<svg id="Layer_1" height="512" viewBox="0 0 512 512" width="512" xmlns="http://www.w3.org/2000/svg" data-name="Layer 1"><path d="m272 375.6v32.63l-3.08.9q-9.375 2.76-18.92 4.67v-36.74q11.025-.33 22-1.46z" fill="#72bcef"/><path d="m250 377.11v36.69a216.217 216.217 0 0 1 -22 3.3v-39.99l.01-.18q11 .465 21.99.13z" fill="#4689d3"/><path d="m228.01 376.93-.01.18v39.99a218.679 218.679 0 0 1 -22 1.1v-42.97q10.98 1.245 22.01 1.7z" fill="#72bcef"/><path d="m206 418.19v.01q-11.01 0-22-1.09v-44.97l.04-.22q10.92 2.055 21.96 3.31z" fill="#4689d3"/><path d="m184.04 371.92-.04.22v44.97a215.8 215.8 0 0 1 -22-3.3v-46.89q10.935 2.925 22.04 5z" fill="#72bcef"/><path d="m162 366.93v46.88a219.378 219.378 0 0 1 -22-5.58v-48.05q10.89 3.795 22 6.74z" fill="#4689d3"/><path d="m406.07 402.15v29.85h-.43a102.054 102.054 0 0 1 -94.42-63v-.01q7.77-1.83 15.46-4.07a102 102 0 0 0 78.96 37.23z" fill="#ed6337"/><path d="m406.07 372.3v29.85h-.43a102 102 0 0 1 -78.96-37.23q12.375-3.615 24.47-8.3a101.89 101.89 0 0 0 54.49 15.68z" fill="#dedede"/><path d="m406.07 330.44v41.86h-.43a101.89 101.89 0 0 1 -54.49-15.68 301.784 301.784 0 0 0 54.09-27.48z" fill="#ed6337"/><path d="m406.07 139.7v41.7a301.265 301.265 0 0 0 -52.94-27.23v-.01a101.949 101.949 0 0 1 52.51-14.46z" fill="#ed6337"/><path d="m406.07 109.85v29.85h-.43a101.949 101.949 0 0 0 -52.51 14.46v.01q-12.39-4.9-25.11-8.68a101.99 101.99 0 0 1 77.62-35.64z" fill="#dedede"/><path d="m406.07 80v29.85h-.43a101.99 101.99 0 0 0 -77.62 35.64q-7.86-2.34-15.81-4.24l.29-1.21a102.061 102.061 0 0 1 93.14-60.04z" fill="#ed6337"/><path d="m206 377.23q-11.025-1.26-21.96-3.31-11.085-2.085-22.04-5-11.1-2.94-22-6.74-6.375-2.22-12.66-4.73a255.822 255.822 0 0 0 -.76-204.58 306.572 306.572 0 0 1 185.63-13.62q7.95 1.905 15.81 4.24 12.705 3.78 25.11 8.68a301.265 301.265 0 0 1 52.94 27.23q9.585 6.195 18.8 13.19a78.306 78.306 0 0 1 30.76 62.41v.01a78.306 78.306 0 0 1 -30.76 62.41q-9.6 7.29-19.63 13.72a301.784 301.784 0 0 1 -54.09 27.48q-12.09 4.68-24.47 8.3-7.68 2.235-15.46 4.07a302.649 302.649 0 0 1 -39.22 6.61q-10.98 1.125-22 1.46-10.98.33-21.99-.13t-22.01-1.7z" fill="#e5f5fd"/><path d="m126.58 152.87a255.822 255.822 0 0 1 .76 204.58q-10.905-4.365-21.54-9.59a238.245 238.245 0 0 0 -.67-185.37q10.575-5.25 21.45-9.62z" fill="#ed6337"/><path d="m105.13 162.49a238.245 238.245 0 0 1 .67 185.37 303.633 303.633 0 0 1 -79.97-57.23 50.2 50.2 0 0 1 0-71.25 303.318 303.318 0 0 1 79.3-56.89z" fill="#e5f5fd"/><g fill="#a6b7d0"><path d="m424.87 192.59q-9.195-6.99-18.8-13.19a301.265 301.265 0 0 0 -52.94-27.23q-12.39-4.9-25.11-8.68-7.86-2.34-15.81-4.24a306.572 306.572 0 0 0 -185.63 13.62l8 20a306.572 306.572 0 0 1 185.63-13.62q7.95 1.905 15.81 4.24 12.705 3.78 25.11 8.68a301.265 301.265 0 0 1 52.94 27.23q9.585 6.195 18.8 13.19a77.418 77.418 0 0 1 20.419 23.32 77.906 77.906 0 0 0 -28.419-43.32z"/><path d="m19 275a50.082 50.082 0 0 1 14.83-35.62 303.316 303.316 0 0 1 78.846-56.659q-3.306-10.231-7.546-20.231a303.318 303.318 0 0 0 -79.3 56.89 50.193 50.193 0 0 0 -6.141 63.847 50.468 50.468 0 0 1 -.689-8.227z"/><path d="m501 261.005h-91.2a6 6 0 0 1 0-12h91.2a6 6 0 0 1 0 12z"/></g></svg>