<svg id="Layer_1" height="512" viewBox="0 0 512 512" width="512" xmlns="http://www.w3.org/2000/svg" data-name="Layer 1"><path d="m342.84 405.95h-177.76a28.212 28.212 0 0 0 -28.21 28.22v67.83h234.18v-67.83a28.212 28.212 0 0 0 -28.21-28.22z" fill="#73d88a"/><path d="m195.08 405.95h-30a28.212 28.212 0 0 0 -28.21 28.22v67.83h30v-67.83a28.212 28.212 0 0 1 28.21-28.22z" fill="#67a96a"/><path d="m256 10c-110.64 0-200.33 89.95-200.33 200.92a200.963 200.963 0 0 0 109.97 179.36l176.73 1.98a200.987 200.987 0 0 0 113.96-181.34c0-110.97-89.69-200.92-200.33-200.92z" fill="#e5f5fd"/><path d="m95.67 210.92c0-104.2 79.081-189.86 180.33-199.926q-9.869-.981-20-.994c-110.64 0-200.33 89.95-200.33 200.92a200.963 200.963 0 0 0 109.97 179.36h40a200.963 200.963 0 0 1 -109.97-179.36z" fill="#a6b7d0"/><path d="m295.39 328.68h-78.78l-.24.23v81.55l79.26-.24v-81.31z" fill="#efc597"/><path d="m305.7 68.48c81.73 30.37 104.46 140.2 43.12 204.34l-53.43 55.86-25.64 26.82a19.017 19.017 0 0 1 -27.5 0l-25.64-26.82-53.43-55.86c-61.34-64.14-38.61-173.97 43.12-204.34a142.918 142.918 0 0 1 99.4 0z" fill="#ffd8b7"/><path d="m349.54 160.19s5.49 44.89-15.93 68.87-61.52 17.84-61.52 17.84-5.49-44.89 15.93-68.87 61.52-17.84 61.52-17.84z" fill="#5f6a78"/><path d="m223.98 178.03c21.42 23.98 15.93 68.87 15.93 68.87s-40.1 6.13-61.52-17.84-15.93-68.87-15.93-68.87 40.1-6.14 61.52 17.84z" fill="#5f6a78"/><path d="m400.86 102.59a92.318 92.318 0 0 1 9.09 105.2 92.372 92.372 0 0 0 -24.14-91.26 10.3 10.3 0 0 1 2.39-16.56 10.164 10.164 0 0 1 4.68-1.14 10.388 10.388 0 0 1 7.98 3.76z" fill="#a6b7d0"/><path d="m342.37 409.98v-40.42l-.14-.64a153.548 153.548 0 0 1 -20.47 11.69v41.41l.02.05a154.875 154.875 0 0 0 20.73-11.88z" fill="#a3b0bf"/><path d="m321.76 422.02.02.05a152.387 152.387 0 0 1 -19.69 7.73l-.08-.26v-41.18a150.448 150.448 0 0 0 19.75-7.75z" fill="#818eac"/><path d="m295.63 390.22q3.225-.855 6.38-1.86v41.18l.08.26a151.9 151.9 0 0 1 -18.89 4.66v-41.46q6.3-1.14 12.43-2.78z" fill="#a3b0bf"/><path d="m283.2 393v41.46a154.588 154.588 0 0 1 -18.78 2.22l-.03-.55v-40.91a155.081 155.081 0 0 0 18.81-2.22z" fill="#818eac"/><path d="m264.39 436.13.03.55c-2.94.17-5.89.25-8.87.25-3.36 0-6.7-.11-10-.32l.03-.48v-40.98c3.29.21 6.62.32 9.97.32 2.97 0 5.91-.08 8.84-.25z" fill="#a3b0bf"/><path d="m245.58 395.15v40.98l-.03.48a154.207 154.207 0 0 1 -19.86-2.56l.14-.75v-40.69a152.727 152.727 0 0 0 19.75 2.54z" fill="#818eac"/><path d="m225.83 392.61v40.69l-.14.75a152.792 152.792 0 0 1 -19.61-5.21v-40.76l.21-.63q4.965 1.68 10.08 3.01c3.11.82 6.27 1.54 9.46 2.15z" fill="#a3b0bf"/><path d="m206.29 387.45-.21.63v40.76a151.67 151.67 0 0 1 -19.75-8.24v-41.46a152.843 152.843 0 0 0 19.96 8.31z" fill="#818eac"/><path d="m165.64 366.66v41.25l-.1.14a154.488 154.488 0 0 0 20.79 12.55v-41.46a153.568 153.568 0 0 1 -20.69-12.48z" fill="#a3b0bf"/><path d="m402.673 233.926a7 7 0 1 1 .289-.006c-.097.004-.193.006-.289.006z" fill="#a6b7d0"/><path d="m257.866 475.845a11 11 0 1 1 8.979-8.979 11.017 11.017 0 0 1 -8.979 8.979z" fill="#4a5160"/><path d="m256 508a11 11 0 1 1 11-11 11.013 11.013 0 0 1 -11 11z" fill="#4a5160"/><path d="m263.524 321.377h-15.048a6 6 0 0 1 0-12h15.048a6 6 0 0 1 0 12z" fill="#efc597"/><path d="m188 468.165a6 6 0 0 0 -6 6v27.835h12v-27.835a6 6 0 0 0 -6-6z" fill="#67a96a"/><path d="m320 470.165a6 6 0 0 0 -6 6v25.835h12v-25.835a6 6 0 0 0 -6-6z" fill="#67a96a"/><g fill="#efc597"><path d="m190.316 116.127a6 6 0 0 1 -3.806-10.642 121.77 121.77 0 0 1 25.53-16.066c2.924-1.369 5.952-2.644 9-3.788a6 6 0 0 1 4.22 11.233c-2.755 1.035-5.492 2.187-8.133 3.423a109.683 109.683 0 0 0 -23.012 14.482 5.978 5.978 0 0 1 -3.799 1.358z"/><path d="m170.94 136.334a6 6 0 0 1 -4.788-9.611c1.9-2.521 3.915-5 5.989-7.354a6 6 0 1 1 9.011 7.924c-1.875 2.132-3.7 4.37-5.415 6.651a5.993 5.993 0 0 1 -4.797 2.39z"/></g></svg>