<svg id="Layer_1" height="512" viewBox="0 0 512 512" width="512" xmlns="http://www.w3.org/2000/svg" data-name="Layer 1"><path d="m262.86 350.89a26.01 26.01 0 0 1 1.24 28.73l-7.41 12.52a48.2 48.2 0 0 1 -23.66 20.24l-5.57 2.22a48.135 48.135 0 0 0 -18.14 12.69 18.237 18.237 0 0 1 -14.67 6.1c-21.99-1.3-27.39 3.79-52.71 11.9l-7.89 2.52h-.02a53.464 53.464 0 0 1 -7.23.5 52.693 52.693 0 0 1 -43.49-22.97l-16.19-23.67c-1.43-1.97-2.85-3.94-4.28-5.91l-3.73-4.86a57.217 57.217 0 0 1 -11.64-39.73l2.6-30.6a16.326 16.326 0 0 1 1.19-4.86 137.383 137.383 0 0 1 30.4-44.93 25.122 25.122 0 0 1 17.47-7.21 60.892 60.892 0 0 0 41.23-16.4 54.756 54.756 0 0 1 91.83 34.15l.3 2.77a.037.037 0 0 0 .01.03l16.52 47.74c.01.02.01.03.02.04z" fill="#7f8a98"/><path d="m108.31 436.34-16.19-23.67c-1.43-1.97-2.85-3.94-4.28-5.91l-3.73-4.86a57.217 57.217 0 0 1 -11.64-39.73l2.6-30.6a16.326 16.326 0 0 1 1.19-4.86 137.383 137.383 0 0 1 30.4-44.93 25.122 25.122 0 0 1 17.47-7.21 60.892 60.892 0 0 0 41.23-16.4 54.7 54.7 0 0 1 46.222-14.04 54.716 54.716 0 0 0 -71.222 3.04 60.892 60.892 0 0 1 -41.23 16.4 25.122 25.122 0 0 0 -17.47 7.21 137.383 137.383 0 0 0 -30.4 44.93 16.326 16.326 0 0 0 -1.19 4.86l-2.6 30.6a57.217 57.217 0 0 0 11.64 39.73l3.73 4.86c1.43 1.97 2.85 3.94 4.28 5.91l16.19 23.67a52.677 52.677 0 0 0 35.506 22.336 52.653 52.653 0 0 1 -10.506-11.336z" fill="#475673"/><path d="m199.053 304.534a23.032 23.032 0 0 1 -11.942-42.752 6 6 0 1 1 6.2 10.274 11.036 11.036 0 1 0 11.406 18.9 6 6 0 0 1 6.2 10.274 22.9 22.9 0 0 1 -11.864 3.304z" fill="#475673"/><path d="m229.123 384.025a23.036 23.036 0 0 1 -.866-46.055 6 6 0 1 1 .462 11.991 11.036 11.036 0 0 0 .851 22.055 6 6 0 1 1 .463 11.991c-.304.012-.608.018-.91.018z" fill="#475673"/><path d="m126.792 316.537q-.75 0-1.5-.064a17.357 17.357 0 0 1 -15.821-18.767 6 6 0 1 1 11.957 1.018 5.357 5.357 0 0 0 10.675.909 6 6 0 1 1 11.957 1.019 17.358 17.358 0 0 1 -17.264 15.885z" fill="#475673"/><path d="m146.138 371.552a5.984 5.984 0 0 1 -1.667-.237 17.357 17.357 0 0 1 9.626-33.353 6 6 0 0 1 -3.328 11.53 5.357 5.357 0 0 0 -2.971 10.294 6 6 0 0 1 -1.66 11.766z" fill="#475673"/><path d="m92.965 352.935a17.352 17.352 0 0 1 -15.055-25.941 6 6 0 1 1 10.429 5.937 5.357 5.357 0 1 0 9.311 5.3 6 6 0 0 1 10.429 5.936 17.372 17.372 0 0 1 -15.114 8.768z" fill="#475673"/><path d="m99.75 407.084a17.351 17.351 0 0 1 -15.05-25.94 6 6 0 1 1 10.429 5.937 5.357 5.357 0 1 0 9.312 5.3 6 6 0 0 1 10.428 5.936 17.369 17.369 0 0 1 -15.119 8.767z" fill="#475673"/><path d="m174.356 413.024a17.381 17.381 0 0 1 -16.731-22.076 6 6 0 1 1 11.549 3.257 5.357 5.357 0 0 0 10.312 2.909 6 6 0 1 1 11.55 3.257 17.383 17.383 0 0 1 -16.68 12.653z" fill="#475673"/><g fill="#4a5160"><path d="m262.617 98.463a6 6 0 0 1 -3.6-10.8l16.288-12.179a6 6 0 1 1 7.186 9.61l-16.286 12.174a5.974 5.974 0 0 1 -3.588 1.195z"/><path d="m214.323 134.573a6 6 0 0 1 -3.6-10.805l23.077-17.256a6 6 0 1 1 7.186 9.61l-23.078 17.256a5.97 5.97 0 0 1 -3.585 1.195z"/><path d="m144.93 487.287a139.617 139.617 0 0 1 -112.094-56.012c-46.145-61.714-33.479-149.464 28.236-195.609l122.736-91.772a6 6 0 0 1 7.186 9.61l-122.736 91.772a127.75 127.75 0 1 0 153 204.625l96.831-72.4a6 6 0 1 1 7.186 9.61l-96.831 72.4a139.041 139.041 0 0 1 -83.514 27.776z"/><path d="m344.094 371.551a6 6 0 0 1 -3.6-10.805l13.062-9.767a6 6 0 1 1 7.186 9.61l-13.062 9.767a5.974 5.974 0 0 1 -3.586 1.195z"/><path d="m378.415 345.889a6 6 0 0 1 -3.6-10.806l13.275-9.926a6 6 0 0 1 7.186 9.611l-13.276 9.925a5.967 5.967 0 0 1 -3.585 1.196z"/><path d="m425.91 310.376a6 6 0 0 1 -3.6-10.806l13.182-9.856a6 6 0 1 1 7.186 9.61l-13.178 9.857a5.974 5.974 0 0 1 -3.59 1.195z"/><path d="m387.687 70.905a6 6 0 0 1 -3.787-10.657l22.634-18.382a6 6 0 0 1 7.565 9.316l-22.633 18.381a5.976 5.976 0 0 1 -3.779 1.342z"/><path d="m315.341 129.66a6 6 0 0 1 -3.787-10.66l41.155-33.42a6 6 0 0 1 7.565 9.315l-41.155 33.422a5.976 5.976 0 0 1 -3.778 1.343z"/><path d="m249.88 182.821a6 6 0 0 1 -3.786-10.657l29.778-24.183a6 6 0 0 1 7.565 9.315l-29.778 24.183a5.976 5.976 0 0 1 -3.779 1.342z"/><path d="m208.124 216.732a6 6 0 0 1 -3.786-10.657l18.26-14.829a6 6 0 0 1 7.565 9.315l-18.263 14.829a5.976 5.976 0 0 1 -3.776 1.342z"/><path d="m466.531 178.087a6 6 0 0 1 -3.867-10.591l28.346-23.851a6 6 0 1 1 7.726 9.181l-28.346 23.852a5.973 5.973 0 0 1 -3.859 1.409z"/><path d="m368.488 260.585a6 6 0 0 1 -3.866-10.585l69.739-58.683a6 6 0 0 1 7.726 9.182l-69.739 58.682a5.974 5.974 0 0 1 -3.86 1.404z"/><path d="m293.9 323.345a6 6 0 0 1 -3.866-10.591l43.332-36.462a6 6 0 0 1 7.726 9.182l-43.332 36.462a5.974 5.974 0 0 1 -3.86 1.409z"/><path d="m416.837 136.929a6 6 0 0 1 -3.707-10.721l84.17-66.023a6 6 0 1 1 7.406 9.441l-84.166 66.023a5.976 5.976 0 0 1 -3.703 1.28z"/><path d="m368.489 174.854a6 6 0 0 1 -3.707-10.721l13.118-10.293a6 6 0 0 1 7.406 9.442l-13.122 10.293a5.97 5.97 0 0 1 -3.695 1.279z"/><path d="m296.356 231.438a6 6 0 0 1 -3.707-10.721l36.343-28.509a6 6 0 1 1 7.406 9.442l-36.343 28.508a5.971 5.971 0 0 1 -3.699 1.28z"/><path d="m47.217 191.109a11.326 11.326 0 1 1 11.326-11.326 11.339 11.339 0 0 1 -11.326 11.326z"/><path d="m75.978 168.74a8.131 8.131 0 1 1 8.131-8.131 8.14 8.14 0 0 1 -8.131 8.131z"/><path d="m357.2 425.457a11.326 11.326 0 1 1 11.326-11.326 11.338 11.338 0 0 1 -11.326 11.326z"/><path d="m384.891 403.088a7.066 7.066 0 1 1 7.066-7.066 7.074 7.074 0 0 1 -7.066 7.066z"/><path d="m332.7 59.022a9.2 9.2 0 1 1 9.195-9.195 9.206 9.206 0 0 1 -9.195 9.195z"/><path d="m360.391 38.783a7.065 7.065 0 1 1 7.066-7.065 7.073 7.073 0 0 1 -7.066 7.065z"/></g></svg>