<svg id="Layer_1" height="512" viewBox="0 0 512 512" width="512" xmlns="http://www.w3.org/2000/svg" data-name="Layer 1"><path d="m337.73 126.07a34 34 0 1 1 -34 34 34.01 34.01 0 0 1 34-34zm17 41.5a.508.508 0 0 0 -.5-.5.5.5 0 0 0 -.5.5.5.5 0 0 0 .5.5.5.5 0 0 0 .5-.5zm-24 8a.508.508 0 0 0 -.5-.5.5.5 0 0 0 -.5.5.5.5 0 0 0 .5.5.5.5 0 0 0 .5-.5zm-6-22a.508.508 0 0 0 -.5-.5.5.5 0 0 0 -.5.5.5.5 0 0 0 .5.5.5.5 0 0 0 .5-.5z" fill="#ed6337"/><path d="m303.43 316.72a142.222 142.222 0 0 1 -5.35 38.79l-4.08.42c-.34.03-.67.05-1 .07l-3.45.16a23.9 23.9 0 0 0 -20.94 14.36l-.88 2.01a18.87 18.87 0 0 1 -17.28 11.29h-14.68a6.8 6.8 0 0 1 -6.79-6.14l-.59-5.87a23.794 23.794 0 0 0 -10.84-17.73 8.394 8.394 0 0 1 -3.85-7.08v-5.87a11.522 11.522 0 0 1 3.89-8.63l25.08-22.15a24.732 24.732 0 0 0 7.27-25.63 25.179 25.179 0 0 0 -21.02-17.68l-2.53-.32a12.376 12.376 0 0 1 -7.8-4.13 7 7 0 0 1 -.85-8.03l5.25-8.98a179.812 179.812 0 0 1 22.84-30.91l5.66-7.91a142.054 142.054 0 0 1 51.94 109.96z" fill="#9be147"/><path d="m294 355.93 4.08-.42a142.371 142.371 0 0 1 -279.35-38.79q0-6.72.61-13.28l1.71.16 1.94-.38a22.506 22.506 0 0 1 23.81 10.8 22.858 22.858 0 0 0 4.09 5.14l10.12 9.53a15.333 15.333 0 0 0 6.41 3.59l1.18.32a20.579 20.579 0 0 1 14.36 14.3l5.43 19.58a19.1 19.1 0 0 0 3.23 6.49l16.44 21.56a20.817 20.817 0 0 1 3.97 9.18l4.47 26.81a3.925 3.925 0 0 0 1.38 2.45 3.79 3.79 0 0 0 3.86.54 7.574 7.574 0 0 0 4.61-6.29 27.2 27.2 0 0 1 6.29-14.87l4.76-5.73a9.835 9.835 0 0 0 1.86-3.44l4.9-15.88a23.64 23.64 0 0 1 8.2-11.8l14.56-11.18a5.177 5.177 0 0 0 2.02-3.25 4.958 4.958 0 0 0 -1.12-4.02l-9.7-11.41c-.58-.68-1.13-1.38-1.65-2.11l-7.41-10.33c-4.1-5.71-10.65-9.5-17.69-9.32a3.73 3.73 0 0 1 -2.01-.52l-15.14-9.09a14.74 14.74 0 0 0 -14.48-.35l-7.97 4.27a15.692 15.692 0 0 1 -20.66-5.43l-7.75-12.24a16.851 16.851 0 0 1 .29-18.47 18.959 18.959 0 0 1 18.19-8.22l11.63 1.47a10.448 10.448 0 0 0 10.38-4.97 18.341 18.341 0 0 1 18.21-8.99l5.08.65a10.355 10.355 0 0 0 9.47-3.93l4.48-5.82a15.112 15.112 0 0 0 .45-17.92l-9.65-13.92a44.639 44.639 0 0 0 -14.15-13.1 45.043 45.043 0 0 1 -4.26-2.84l-8.14-6.11-10.31-7.76a142.464 142.464 0 0 1 156.46 16.17l-5.66 7.91a179.812 179.812 0 0 0 -22.84 30.91l-5.25 8.98a7 7 0 0 0 .85 8.03 12.376 12.376 0 0 0 7.8 4.13l2.53.32a25.179 25.179 0 0 1 21.02 17.68 24.732 24.732 0 0 1 -7.27 25.63l-25.08 22.15a11.522 11.522 0 0 0 -3.89 8.63v5.87a8.394 8.394 0 0 0 3.85 7.08 23.794 23.794 0 0 1 10.84 17.73l.59 5.87a6.8 6.8 0 0 0 6.79 6.14h14.68a18.87 18.87 0 0 0 17.28-11.29l.88-2.01a23.9 23.9 0 0 1 20.94-14.36l3.45-.16c.33-.02.66-.04 1-.07z" fill="#49bdff"/><path d="m167.82 357.05a4.958 4.958 0 0 1 1.12 4.02 5.177 5.177 0 0 1 -2.02 3.25l-14.56 11.18a23.64 23.64 0 0 0 -8.2 11.8l-4.9 15.88a9.835 9.835 0 0 1 -1.86 3.44l-4.76 5.73a27.2 27.2 0 0 0 -6.29 14.87 7.574 7.574 0 0 1 -4.61 6.29 3.79 3.79 0 0 1 -3.86-.54 3.925 3.925 0 0 1 -1.38-2.45l-4.47-26.81a20.817 20.817 0 0 0 -3.97-9.18l-16.44-21.56a19.1 19.1 0 0 1 -3.23-6.49l-5.43-19.58a20.579 20.579 0 0 0 -14.36-14.3l-1.18-.32a15.333 15.333 0 0 1 -6.41-3.59l-10.12-9.53a22.858 22.858 0 0 1 -4.09-5.14 22.506 22.506 0 0 0 -23.81-10.8l-1.94.38-1.71-.16a142.382 142.382 0 0 1 75.69-112.85l10.31 7.76 8.14 6.11a45.043 45.043 0 0 0 4.26 2.84 44.639 44.639 0 0 1 14.15 13.1l9.65 13.92a15.112 15.112 0 0 1 -.45 17.92l-4.48 5.82a10.355 10.355 0 0 1 -9.47 3.93l-5.08-.65a18.341 18.341 0 0 0 -18.21 8.99 10.448 10.448 0 0 1 -10.38 4.97l-11.63-1.47a18.959 18.959 0 0 0 -18.19 8.22 16.851 16.851 0 0 0 -.29 18.47l7.75 12.24a15.692 15.692 0 0 0 20.66 5.43l7.97-4.27a14.74 14.74 0 0 1 14.48.35l15.14 9.09a3.73 3.73 0 0 0 2.01.52c7.04-.18 13.59 3.61 17.69 9.32l7.41 10.33c.52.73 1.07 1.43 1.65 2.11z" fill="#9be147"/><path d="m48.73 336.72q0-6.72.61-13.28l.593-5.249a22.673 22.673 0 0 1 -3.133-4.171 22.506 22.506 0 0 0 -23.81-10.8l-1.94.38-1.71-.16q-.6 6.555-.61 13.28a142.341 142.341 0 0 0 79.084 127.543 142.02 142.02 0 0 1 -49.084-107.543z" fill="#3090fc"/><path d="m161.08 174.37a141.711 141.711 0 0 0 -66.05 16.22l10.31 7.76 8.14 6.11a45.043 45.043 0 0 0 4.26 2.84c2.555 1.494 2.863 2.584 5.841 4.079l1.449-.789a142.646 142.646 0 0 1 125.909-3.059l.551-.771a141.768 141.768 0 0 0 -90.41-32.39z" fill="#3090fc"/><path d="m123.581 211.379a44.657 44.657 0 0 0 -5.841-4.079 45.043 45.043 0 0 1 -4.26-2.84l-8.14-6.11-10.31-7.76a142.382 142.382 0 0 0 -75.69 112.85l1.71.16 1.94-.38a22.506 22.506 0 0 1 23.81 10.8 22.673 22.673 0 0 0 3.133 4.171 142.4 142.4 0 0 1 73.648-106.812z" fill="#50dd5a"/><path d="m338.429 224.045a64.15 64.15 0 0 1 -38.5-115.53l93.168-69.663a6 6 0 1 1 7.185 9.61l-93.172 69.663a52.167 52.167 0 0 0 62.478 83.558l72.553-54.249a6 6 0 1 1 7.185 9.61l-72.553 54.249a63.831 63.831 0 0 1 -38.344 12.752z" fill="#fea92a"/><path d="m460.62 147.112a6 6 0 0 1 -3.6-10.807l1.071-.8a6 6 0 0 1 7.183 9.613l-1.07.8a5.971 5.971 0 0 1 -3.584 1.194z" fill="#f9d438"/><g fill="#fea92a"><path d="m444 42.969a6 6 0 0 1 -3.786-10.657l9.843-7.994a6 6 0 0 1 7.564 9.315l-9.843 7.994a5.971 5.971 0 0 1 -3.778 1.342z"/><path d="m412.535 68.521a6 6 0 0 1 -3.786-10.658l17.9-14.535a6 6 0 0 1 7.565 9.316l-17.9 14.534a5.972 5.972 0 0 1 -3.779 1.343z"/><path d="m384.067 91.64a6 6 0 0 1 -3.786-10.658l12.95-10.517a6 6 0 0 1 7.565 9.316l-12.95 10.519a5.976 5.976 0 0 1 -3.779 1.34z"/><path d="m481.7 86.711a6 6 0 0 1 -3.866-10.591l8.916-7.5a6 6 0 0 1 7.727 9.182l-8.916 7.5a5.974 5.974 0 0 1 -3.861 1.409z"/><path d="m435.647 125.458a6 6 0 0 1 -3.866-10.59l30.328-25.52a6 6 0 0 1 7.727 9.181l-30.328 25.52a5.974 5.974 0 0 1 -3.861 1.409z"/><path d="m417.055 141.1a6 6 0 0 1 -3.867-10.592l5-4.208a6 6 0 1 1 7.727 9.182l-5 4.209a5.981 5.981 0 0 1 -3.86 1.409z"/><path d="m456.675 71.682a6 6 0 0 1 -3.707-10.721l36.6-28.712a6 6 0 1 1 7.407 9.441l-36.601 28.71a5.973 5.973 0 0 1 -3.699 1.282z"/><path d="m435.648 88.176a6 6 0 0 1 -3.707-10.721l5.707-4.477a6 6 0 0 1 7.407 9.441l-5.707 4.481a5.976 5.976 0 0 1 -3.7 1.276z"/><path d="m384.067 128.892a6 6 0 0 1 -3.727-10.7l36.016-28.512a6 6 0 1 1 7.448 9.409l-36.017 28.511a5.967 5.967 0 0 1 -3.72 1.292z"/></g><path d="m295.931 95.428a8.5 8.5 0 1 1 8.5-8.5 8.51 8.51 0 0 1 -8.5 8.5z" fill="#f9d438"/><path d="m318.438 75.089a6.5 6.5 0 1 1 6.5-6.5 6.508 6.508 0 0 1 -6.5 6.5z" fill="#f9d438"/><path d="m430.735 196.842a8 8 0 1 1 8-8 8.009 8.009 0 0 1 -8 8z" fill="#f9d438"/><path d="m420.08 37.8a7.39 7.39 0 1 1 7.39-7.39 7.4 7.4 0 0 1 -7.39 7.39z" fill="#fea92a"/><path d="m450.735 182.342a6.5 6.5 0 1 1 6.5-6.5 6.508 6.508 0 0 1 -6.5 6.5z" fill="#f9d438"/><path d="m330.227 182.073a6.5 6.5 0 1 1 6.5-6.5 6.508 6.508 0 0 1 -6.5 6.5z" fill="#ce4b28"/><path d="m324.227 160.073a6.5 6.5 0 1 1 6.5-6.5 6.508 6.508 0 0 1 -6.5 6.5z" fill="#ce4b28"/><path d="m354.227 174.073a6.5 6.5 0 1 1 6.5-6.5 6.508 6.508 0 0 1 -6.5 6.5z" fill="#ce4b28"/><path d="m395.994 330.334a17.836 17.836 0 0 1 -11.208-11.246 6 6 0 0 0 -11.388 0 17.839 17.839 0 0 1 -11.209 11.247 6 6 0 0 0 0 11.381 17.84 17.84 0 0 1 11.211 11.245 6 6 0 0 0 11.388 0 17.836 17.836 0 0 1 11.208-11.246 6 6 0 0 0 0-11.381z" fill="#604af3"/><path d="m91.994 125.334a17.836 17.836 0 0 1 -11.208-11.246 6 6 0 0 0 -11.388 0 17.839 17.839 0 0 1 -11.209 11.247 6 6 0 0 0 0 11.381 17.84 17.84 0 0 1 11.211 11.245 6 6 0 0 0 11.388 0 17.836 17.836 0 0 1 11.208-11.246 6 6 0 0 0 0-11.381z" fill="#604af3"/><ellipse cx="219.038" cy="478.024" fill="#ffdb00" rx="10.985" ry="11"/><ellipse cx="397.038" cy="389.024" fill="#50dd5a" rx="10.985" ry="11"/><ellipse cx="104.038" cy="96.024" fill="#50dd5a" rx="10.985" ry="11"/></svg>