<svg id="Layer_1" enable-background="new 0 0 512 512" viewBox="0 0 512 512" xmlns="http://www.w3.org/2000/svg"><g id="XMLID_1_"><path id="XMLID_5_" d="m463.1 160.1-5.7 4.3-68 50.8c-9.7 7.3-21.3 11.2-33.5 11.2-2.7 0-5.5-.2-8.2-.6-14.8-2.1-27.9-9.9-36.9-21.9-8.9-12-12.7-26.7-10.5-41.5 2.1-14.8 9.9-27.9 21.9-36.8l62.4-46.6c-25.3-13.4-54.2-21-84.8-21-100.2 0-181.5 81.2-181.5 181.5s81.2 181.5 181.5 181.5 181.5-81.2 181.5-181.5c0-28.5-6.6-55.4-18.2-79.4z" fill="#a0eaea"/></g><path d="m355.2 138.7c17.6 0 31.9 14.3 31.9 31.9s-14.3 31.9-31.9 31.9-31.9-14.3-31.9-31.9c.1-17.6 14.3-31.9 31.9-31.9zm-12.2 25.8c0-.3-.2-.5-.5-.5s-.5.2-.5.5.2.5.5.5c.3-.1.5-.3.5-.5z" fill="#ed6337"/><path d="m290.6 419.2v45.1h-105.5v-18.9c0-21.8 4.3-43.3 12.5-63.5l-14.8-16.5 33.8-32-33.5-33.9h25.2c45.5 0 82.3 36.9 82.2 82.4v37.3z" fill="#e5f5fd"/><path d="m232.3 177.4c-1.7-5-6.5-8.4-11.8-8.4h-3.1v-27.1c-.6-12-6.8-23.1-16.8-29.9l-48.4-26.6-22.5 9.9c-5.4 2.3-10.6 5.1-15.6 8.3l-11.9 7.6c-10.7 6.7-17.4 18.1-18 30.6v27.3h-3.3c-5 0-9.6 3-11.5 7.7-.6 1.5-.9 3.1-.9 4.7 0 6.9 5.6 12.5 12.5 12.5l3.3-.1 1.6 6.9 1.1-.2c10.3-1.5 20.1 5.3 22.3 15.5l1.2 5.6c2.4 11.3 8.2 21.7 16.6 29.7 13.9-10.6 33.3-10.6 47.2 0 8.4-8 14.2-18.4 16.6-29.7l1.2-5.6c2.2-10.2 11.9-17 22.3-15.5l1.3.3 1.5-6.9h3.3c6.9 0 12.5-5.6 12.5-12.5 0-1.4-.2-2.8-.7-4.1z" fill="#ffd8b7"/><path d="m216.7 333.5-33.5-33.9h-64.8l-33.4 33.8 33.8 32-14.8 16.5.8 2.1c6.7 17.7 10.1 36.4 10.1 55.3v25.1h70.3v-18.9c0-21.8 4.2-43.4 12.5-63.5l-14.8-16.5z" fill="#3090fc"/><path d="m118.4 272.9v28.8c0 14.5 5.7 28.3 15.8 38.7l16.6 16.9 16.6-16.9c10.1-10.3 15.8-24.2 15.8-38.7v-28.8z" fill="#efc597"/><path d="m118.8 365.5-14.8 16.4.8 2.1c6.7 17.7 10.1 36.4 10.1 55.3v25h-103.9v-82.4c0-45.5 36.8-82.3 82.2-82.4h25.2v.1l-33.4 33.8z" fill="#e5f5fd"/><path d="m419.1 242.4c3.9 3.9 8.6 6.8 13.8 8.6-10.6 3.5-18.9 11.8-22.4 22.4-3.5-10.6-11.8-18.9-22.4-22.4 10.6-3.5 18.9-11.8 22.4-22.4 1.8 5.2 4.7 9.9 8.6 13.8z" fill="#61a3bc"/><path d="m348.2 306.4c-12-4.6-25.6 0-32.4 10.9-.9 1.5-1.7 3.1-2.4 4.8-5.3 13.9 1.7 29.5 15.6 34.8 12.7 4.8 26.9-.5 33.3-12.4.6-1 1-2.1 1.5-3.2 5.3-14-1.7-29.6-15.6-34.9z" fill="#61a3bc"/><path d="m256.6 206.7c12.1 0 22 9.8 22 22s-9.8 22-22 22-22-9.8-22-22c.1-12.2 9.9-22 22-22z" fill="#61a3bc"/><path d="m140.6 221.6-1.2-5.6c-2.2-10.2-12-17-22.3-15.5l-1.3.3-1.5-59.2c.6-12.5 7.3-23.9 18-30.6l11.9-7.6c1.3-.9 4-2.2 5.4-3 3.1-4.7 4.5-10 2.7-15.3l-22.5 9.9c-5.4 2.4-10.6 5.2-15.6 8.3l-11.9 7.6c-10.6 6.6-17.4 18.1-18 30.6v1.7 25.8h-3.3c-5.1 0-9.6 3.1-11.5 7.7-.6 1.5-.9 3.1-.9 4.7 0 6.9 5.6 12.5 12.5 12.5h3.3l1.5 6.9 1.3-.3c10.4-1.5 20.1 5.3 22.3 15.5l1.2 5.6c2.4 11.3 8.2 21.7 16.6 29.7 6.6-5.1 14.7-7.9 23.1-8-.9-1.2-1.7-2.4-2.5-3.7-3.5-5.5-5.9-11.6-7.3-18z" fill="#efc9a3"/><path d="m118.3 299.7.1-.2h-25.2c-45.5 0-82.3 36.9-82.2 82.4v82.4h30v-82.4c0-43.5 33.9-79.5 77.3-82.2z" fill="#a6b7d0"/><path d="m118.3 194.8c-8.6 0-15.5-7-15.5-15.5 0-3.3 2.7-6 6-6s6 2.7 6 6c0 1.9 1.5 3.5 3.5 3.6s3.5-1.5 3.6-3.5v-.1c0-3.3 2.7-6 6-6s6 2.7 6 6c-.1 8.5-7.1 15.5-15.6 15.5z" fill="#e5ba8f"/><path d="m181.6 194.8c-8.6 0-15.5-7-15.5-15.5 0-3.3 2.7-6 6-6s6 2.7 6 6c0 1.9 1.5 3.5 3.5 3.6 1.9 0 3.5-1.5 3.6-3.5v-.1c0-3.3 2.7-6 6-6s6 2.7 6 6c-.1 8.5-7.1 15.5-15.6 15.5z" fill="#e5ba8f"/><path d="m250.6 416.8h-19.1c-3.3 0-6-2.7-6-6s2.7-6 6-6h19.1c3.3 0 6 2.7 6 6s-2.7 6-6 6z" fill="#ccd3df"/><path d="m157.7 234.5h-3.9c-7.6 0-13.8-6.2-13.8-13.8v-19.2c0-3.3 2.7-6 6-6s6 2.7 6 6v19.2c0 1 .8 1.8 1.8 1.8h3.9c3.3 0 6 2.7 6 6s-2.7 6-6 6z" fill="#e5ba8f"/><g fill="#ed6337"><path d="m482.4 149.7c-3.3 0-6-2.7-6-6 0-1.9.9-3.7 2.4-4.8l3.9-2.9c2.6-2 6.4-1.5 8.4 1.2 2 2.6 1.5 6.4-1.2 8.4l-3.9 2.9c-1 .8-2.3 1.2-3.6 1.2z"/><path d="m355.9 230.9c-2.9 0-5.9-.2-8.8-.6-33.1-4.8-56-35.5-51.2-68.5 2.3-15.9 10.8-30.2 23.7-39.8l87.3-65.3c2.6-2 6.4-1.5 8.4 1.1s1.5 6.4-1.1 8.4l-.1.1-87.3 65.3c-21.6 15.9-26.1 46.3-10.2 67.8 15.9 21.6 46.3 26.1 67.8 10.2.2-.1.3-.2.5-.4l68-50.8 11.7-8.8c2.7-2 6.4-1.5 8.4 1.2s1.5 6.4-1.2 8.4l-11.7 8.8-68 50.8c-10.5 7.9-23.1 12.1-36.2 12.1z"/><path d="m454.8 61.2c-3.3 0-6-2.7-6-6 0-1.8.8-3.5 2.2-4.7l9.2-7.5c2.6-2.1 6.4-1.7 8.4.9s1.7 6.4-.9 8.4l-9.2 7.5c-1 .9-2.3 1.4-3.7 1.4z"/><path d="m425.3 85.1c-3.3 0-6-2.7-6-6 0-1.8.8-3.5 2.2-4.7l16.8-13.6c2.6-2.1 6.4-1.7 8.4.9s1.7 6.4-.9 8.4l-16.8 13.6c-1 1-2.3 1.4-3.7 1.4z"/><path d="m398.7 106.8c-3.3 0-6-2.7-6-6 0-1.8.8-3.5 2.2-4.7l12.1-9.9c2.6-2.1 6.4-1.7 8.4.9s1.7 6.4-.9 8.4l-12.1 9.9c-1 .9-2.4 1.4-3.7 1.4z"/><path d="m490.1 102.2c-3.3 0-6-2.7-6-6 0-1.8.8-3.5 2.1-4.6l8.4-7c2.5-2.2 6.3-1.9 8.5.6s1.9 6.3-.6 8.5l-.1.1-8.4 7c-1.1.9-2.4 1.4-3.9 1.4z"/><path d="m447 138.5c-3.3 0-6-2.7-6-6 0-1.8.8-3.5 2.1-4.6l28.4-23.9c2.5-2.1 6.3-1.8 8.5.7 2.1 2.5 1.8 6.3-.7 8.5l-28.4 23.9c-1.1.9-2.5 1.4-3.9 1.4z"/><path d="m429.6 153.1c-3.3 0-6-2.7-6-6 0-1.8.8-3.5 2.1-4.6l4.7-3.9c2.5-2.2 6.3-1.9 8.5.6s1.9 6.3-.6 8.5l-.1.1-4.7 3.9c-1.1 1-2.5 1.4-3.9 1.4z"/><path d="m466.7 88.1c-3.3 0-6-2.7-6-6 0-1.8.8-3.6 2.3-4.7l34.3-26.9c2.5-2.1 6.3-1.8 8.5.8s1.8 6.3-.8 8.5c-.1.1-.2.1-.3.2l-34.3 26.9c-1.1.7-2.4 1.2-3.7 1.2z"/><path d="m447 103.5c-3.3 0-6-2.7-6-6 0-1.8.8-3.6 2.3-4.7l5.3-4.2c2.6-2 6.4-1.6 8.4 1s1.6 6.4-1 8.4l-5.3 4.2c-1.1.9-2.4 1.3-3.7 1.3z"/><path d="m398.7 141.7c-3.3 0-6-2.7-6-6 0-1.8.8-3.6 2.3-4.7l33.8-26.7c2.6-2 6.4-1.6 8.4 1.1 2 2.6 1.6 6.3-1 8.3l-33.8 26.7c-1.1.8-2.4 1.3-3.7 1.3z"/></g><path d="m316.1 110.3c-4.6 0-8.3-3.7-8.3-8.3s3.7-8.3 8.3-8.3 8.3 3.7 8.3 8.3c0 4.6-3.7 8.3-8.3 8.3z" fill="#61a3bc"/><path d="m337.1 91.3c-3.6 0-6.5-2.9-6.5-6.5s2.9-6.5 6.5-6.5 6.5 2.9 6.5 6.5c0 3.6-2.9 6.5-6.5 6.5z" fill="#61a3bc"/><path d="m442.4 205.4c-4.3 0-7.9-3.5-7.9-7.9s3.5-7.9 7.9-7.9 7.9 3.5 7.9 7.9c0 4.4-3.6 7.9-7.9 7.9z" fill="#61a3bc"/><path d="m432.4 56.3c-4 0-7.3-3.3-7.3-7.3s3.3-7.3 7.3-7.3 7.3 3.3 7.3 7.3c0 4.1-3.3 7.3-7.3 7.3z" fill="#ed6337"/><path d="m348.2 191.5c-3.6 0-6.5-2.9-6.5-6.5s2.9-6.5 6.5-6.5 6.5 2.9 6.5 6.5c0 3.6-2.9 6.5-6.5 6.5z" fill="#c94c2b"/><path d="m342.6 170.9c-3.6 0-6.5-2.9-6.5-6.5s2.9-6.5 6.5-6.5 6.5 2.9 6.5 6.5c-.1 3.6-3 6.5-6.5 6.5z" fill="#c94c2b"/><path d="m370.7 184c-3.6 0-6.5-2.9-6.5-6.5s2.9-6.5 6.5-6.5 6.5 2.9 6.5 6.5c0 3.6-2.9 6.5-6.5 6.5z" fill="#c94c2b"/><path d="m291.7 109.2c-2.6 0-4.9-1.7-5.7-4.1-1.8-5.3-5.9-9.4-11.2-11.2-3.1-1-4.8-4.4-3.8-7.6.6-1.8 2-3.2 3.8-3.8 5.3-1.8 9.4-5.9 11.2-11.2 1-3.1 4.4-4.8 7.6-3.8 1.8.6 3.2 2 3.8 3.8 1.8 5.3 5.9 9.4 11.2 11.2 3.1 1 4.8 4.4 3.8 7.6-.6 1.8-2 3.2-3.8 3.8-5.3 1.8-9.4 5.9-11.2 11.2-.8 2.4-3.1 4.1-5.7 4.1zm-3.1-21c1.1 1 2.1 2 3.1 3.1 1-1.1 2-2.1 3.1-3.1-1.1-1-2.1-2-3.1-3.1-.9 1.1-2 2.2-3.1 3.1z" fill="#61a3bc"/><path d="m306.6 273.3c-4.3 0-7.9-3.5-7.9-7.9s3.5-7.9 7.9-7.9 7.9 3.5 7.9 7.9c0 4.4-3.6 7.9-7.9 7.9z" fill="#61a3bc"/><path d="m227.7 279.3c-4.3 0-7.9-3.5-7.9-7.9s3.5-7.9 7.9-7.9c4.3 0 7.9 3.5 7.9 7.9 0 4.3-3.5 7.9-7.9 7.9z" fill="#61a3bc"/><path d="m250.7 111.5c-4.3 0-7.9-3.5-7.9-7.9s3.5-7.9 7.9-7.9c4.3 0 7.9 3.5 7.9 7.9-.1 4.4-3.6 7.9-7.9 7.9z" fill="#61a3bc"/><path d="m387.5 334.2c-4.3 0-7.9-3.5-7.9-7.9s3.5-7.9 7.9-7.9 7.9 3.5 7.9 7.9c-.1 4.4-3.6 7.9-7.9 7.9z" fill="#61a3bc"/><path d="m262.7 182.4c-4.3 0-7.9-3.5-7.9-7.9s3.5-7.9 7.9-7.9 7.9 3.5 7.9 7.9c-.1 4.4-3.6 7.9-7.9 7.9z" fill="#61a3bc"/><path d="m215.8 200.8-8 37.4c-4 18.7-16.9 34.1-34.6 41.4l-1.1.4c-1 .4-2.6 1-3.5 1.3-4.2 1.5-8.3 3.3-12.2 5.2-1.8.9-3.7 1.4-5.7 1.4-2.1 0-4.2-.6-6-1.5-4.3-2-8.7-3.8-13.2-5.3-1.2-.4-2.4-.9-3.6-1.4-17.3-7.4-30-22.7-33.9-41.1l-8.1-37.9 1.3-.3c10.4-1.5 20.1 5.3 22.3 15.5l1.2 5.6c2.4 11.3 8.2 21.7 16.6 29.7 13.9-10.6 33.3-10.6 47.2 0 8.4-8 14.2-18.4 16.6-29.7l1.2-5.6c2.2-10.2 12-17 22.3-15.5z" fill="#6d7486"/><path d="m157.7 263.3h-11.7c-3.3 0-6-2.7-6-6s2.7-6 6-6h11.7c3.3 0 6 2.7 6 6s-2.7 6-6 6z" fill="#ffd8b7"/><path d="m200 85.5c-.2-.3-.5-.6-.7-.8-4-4.5-8.6-8.3-13.6-11.5l-.2.4v10.6c.1 6.4-2.3 12.5-6.6 17.2l.3.3 21.4 10.3c10 6.8 16.2 17.8 16.8 29.9v27.2h3.1c5.3 0 10 3.3 11.8 8.3v-40.6c0-21.9-12.4-41.8-32.3-51.3z" fill="#4a5160"/><path d="m101.5 85.4c-19.5 9.6-32 29.5-32 51.4v39.9c1.9-4.6 6.4-7.7 11.5-7.7h3.4v-27.2c.6-12.5 7.4-24 18-30.6l11.9-7.6c5-3.1 10.2-5.9 15.6-8.3l22.5-9.9c3.6 10.8-11.3 24.3-11.3 24.3h19.1c14.1-.1 25.5-11.5 25.5-25.6l.2-10.9c-27.3-17.3-63-12.1-84.4 12.2z" fill="#6d7486"/></svg>