<svg id="Layer_1" enable-background="new 0 0 512 512" viewBox="0 0 512 512" xmlns="http://www.w3.org/2000/svg"><path d="m201.9 263.1-71.7.3-.2.2v99.4h72v-99.4z" fill="#efc597"/><path d="m256.9 157.2c2.5 7.2-1.2 15.1-8.5 17.7-1.5.5-3 .8-4.6.8h-3.7l-10.5 49.2c-3.5 16.5-13.4 31-27.6 40.2-3.4 2.2-7 4.2-10.8 5.7l-1.2.5c-1.1.5-2.3.9-3.4 1.3-4.8 1.7-9.5 3.7-14.1 6-3.9 2-8.6 2.1-12.5.1-4.8-2.1-9.6-4.3-14.6-5.9-1.5-.5-3-1.1-4.5-1.7-3.6-1.5-7.1-3.4-10.4-5.6-14-9.3-23.8-23.6-27.3-40l-10.6-49.7h-3.7c-7.7 0-13.9-6.2-13.9-13.9s6.2-13.9 13.9-13.9h3.7v-28.4c0-11 3.9-21.7 11-30.1 5.3-6.4 8.2-14.4 8.2-22.8l.1-11.6h-.1.1c4.5-5.1 9.7-9.6 15.4-13.3l.1.2v11.7c0 15.7 12.7 28.4 28.3 28.4h21.3c15.7 0 28.3-12.7 28.3-28.4v-11.8l.3-.4c5.9 3.7 11.3 8.3 15.9 13.6v7.9c0 10 3.2 19.8 9.3 27.7 6.4 8.3 9.9 18.4 9.9 28.8v28.4h3.4c5.6.1 10.8 3.8 12.8 9.3z" fill="#ffd8b7"/><path d="m175.3 272.8c-1.5-.5-3-1.1-4.5-1.7-3.6-1.5-7.1-3.4-10.4-5.6-14-9.3-23.8-23.6-27.3-40l-3.6-17c-4.7-21.7-7-43.9-7-66.1v-22.7c0-11 3.9-21.7 11-30.1 3-3.5 5.2-7.6 6.6-12.1-8-5.2-12.9-14.2-12.9-23.8v-11.8l-.1-.2c-5.7 3.7-10.9 8.2-15.4 13.3h-.1.1l-.1 11.6c0 8.3-2.9 16.4-8.2 22.8-7.1 8.4-11 19.1-11 30.1v28.4h-3.7c-3.7 0-7.2 1.5-9.8 4.1-1.3 1.3-2.3 2.8-3 4.5-2.9 7.1.5 15.2 7.6 18.1 1.7.7 3.4 1 5.2 1h3.7l10.6 49.7c3.5 16.4 13.3 30.8 27.3 40 3.3 2.2 6.8 4.1 10.4 5.6 1.5.6 3 1.2 4.5 1.7 5 1.7 9.8 3.8 14.6 5.9 4 1.9 8.6 1.9 12.5-.1 2.8-1.3 5.6-2.6 8.4-3.8-1.7-.5-3.5-1.2-5.4-1.8z" fill="#efcba8"/><circle cx="394" cy="135" fill="#e4416c" r="93"/><ellipse cx="443.4" cy="265" fill="#e1b7a3" rx="3.8" ry="3.8"/><ellipse cx="345.4" cy="19.6" fill="#e1b7a3" rx="3.6" ry="3.6"/><path d="m321.6 404.5v91.5h-137.2v-38.3c0-12.4 4.9-24.3 13.7-33l20.2-20.2-16.4-18.3 37.5-35.6-37.1-37.6h28c50.4 0 91.3 41 91.3 91.5z" fill="#e5f5fd"/><path d="m256.9 112.2v45.1c-1.9-5.5-7.2-9.3-13.1-9.3h-3.4v-28.4c0-10.4-3.5-20.6-9.9-28.8-6.1-7.9-9.4-17.7-9.3-27.7v-7.9c21.8 10.5 35.7 32.7 35.7 57z" fill="#6d7486"/><path d="m205.3 41.5-.3.4v11.7c0 15.7-12.7 28.4-28.3 28.4h-21.3c-15.7 0-28.4-12.7-28.3-28.4v-11.7l-.1-.2c23.9-15.2 54.4-15.3 78.3-.2z" fill="#6d7486"/><path d="m200.7 329.3c-2.5 11-8.1 21-16 29l-18.4 18.7-18.4-18.7c-7.9-8-13.4-18.1-16-29 11.5 19 36.2 25.1 55.2 13.6 5.5-3.4 10.2-8 13.6-13.6z" fill="#d4e1f4"/><path d="m239.5 350.6-37.2-37.6v2.4c0 4.7-.5 9.3-1.6 13.9-2.5 11-8.1 21-16 29l-18.4 18.7-18.4-18.7c-7.9-8-13.4-18.1-16-29-1.1-4.6-1.6-9.2-1.6-13.9v-2.3l-37.1 37.5 37.5 35.6-16.4 18.3 18.4 18.3c8.8 8.8 13.7 20.6 13.7 33v40.2h38.1v-38.3c0-12.4 4.9-24.3 13.7-33l20.2-20.2-16.4-18.3z" fill="#3090fc"/><path d="m146.4 455.8v40.2h-135.4v-91.5c0-50.5 40.9-91.5 91.3-91.5h28v.1l-37.1 37.5 37.5 35.6-16.4 18.3 18.4 18.3c8.7 8.7 13.7 20.6 13.7 33z" fill="#e5f5fd"/><path d="m111.7 55.1-.1 11.6c0 8.3-2.9 16.4-8.2 22.8-7.1 8.4-11 19.1-11 30.1v28.4h-3.7c-3.7 0-7.2 1.5-9.8 4.1-1.3 1.3-2.3 2.8-3 4.5v-44.4c.1-24.3 13.9-46.5 35.8-57.1z" fill="#6d7486"/><path d="m199.6 223.5v5.9h-.9c-6.5 0-12.7-2.9-16.9-7.8l-5.3 4.7c-5.8 5.1-14.6 4.6-19.7-1.1-.3-.3-.5-.6-.8-.9l-3.1-4.2-.8 1.3c-3.2 5-8.8 8.1-14.7 8.1v-5.9c0-9.7 7.8-17.5 17.5-17.5h27.4c9.5-.1 17.3 7.7 17.3 17.4z" fill="#6d7486"/><path d="m130.3 313h-28c-50.4 0-91.3 41-91.3 91.5v91.5h30v-91.5c0-49.7 39.6-90.3 89.3-91.5z" fill="#a6b7d0"/><path d="m331 135c0-45.6 33-84.4 78-91.8-50.7-8.2-98.5 26.2-106.7 76.8s26.1 98.5 76.8 106.7c9.9 1.6 20 1.6 29.9 0-45-7.3-78-46.1-78-91.7z" fill="#ff5f91"/><path d="m151.3 139.4c-2.3 0-4.4-1.3-5.4-3.4-2.9-6-9-9.8-15.7-9.9-3.5 0-6.9 1-9.7 3-2.7 1.9-6.5 1.1-8.3-1.6-1.9-2.7-1.1-6.5 1.6-8.3 4.9-3.3 10.6-5.1 16.5-5.1 11.3 0 21.5 6.5 26.5 16.6 1.4 3 .2 6.6-2.8 8-.9.4-1.8.7-2.7.7z" fill="#6d7486"/><path d="m178.8 138.9c-3.3 0-6-2.7-6-6 0-.8.2-1.6.5-2.3 6.2-15 23.4-22.1 38.4-15.8.7.3 1.4.6 2.1 1 3 1.5 4.1 5.1 2.7 8.1-1.5 3-5.1 4.1-8.1 2.7h-.1c-2.5-1.3-5.2-1.9-7.9-1.9-7 0-13.4 4.2-16 10.7-1 2.1-3.2 3.5-5.6 3.5z" fill="#6d7486"/><path d="m174.1 256.5h-15.6c-3.3 0-6-2.7-6-6s2.7-6 6-6h15.6c3.3 0 6 2.7 6 6s-2.7 6-6 6z" fill="#efc597"/><path d="m294.2 442.5h-61.2c-3.3 0-6-2.7-6-6s2.7-6 6-6h61.2c3.3 0 6 2.7 6 6s-2.7 6-6 6z" fill="#ccd3df"/><path d="m467.5 136.3c-3.3 0-6-2.7-6-6 0-1.3.4-2.6 1.2-3.6 30.3-40.4 40-72.9 26-87-8.1-8.1-21.9-8.5-41-1-3.1 1.2-6.6-.3-7.8-3.3-1.2-3.1.3-6.6 3.3-7.8h.1c16.4-6.5 39.1-11.1 53.9 3.7 19.1 19.2 10.3 55.6-24.9 102.6-1.1 1.5-2.9 2.4-4.8 2.4z" fill="#d4e1f4"/><path d="m318.6 245.8c-10.5 0-19.2-3.3-25.7-9.8-15.3-15.4-9.8-39.5-2.4-56.9 1.3-3.1 4.8-4.5 7.8-3.2 3.1 1.3 4.5 4.8 3.2 7.8-5.9 14.1-10.8 33.1-.1 43.8 4.2 4.3 9.9 6.3 17.2 6.3 25.7 0 68.6-26.4 109.3-67.2 4.1-4.1 8.2-8.4 12.1-12.6 2.2-2.5 6-2.7 8.5-.4 2.5 2.2 2.7 6 .4 8.5v.1c-4 4.4-8.2 8.8-12.4 13-34.1 34.1-83 70.6-117.9 70.6z" fill="#d4e1f4"/><path d="m475.3 132.2c-4.9-12.7-19.2-19.1-31.9-14.2s-19.1 19.2-14.2 31.9 19.2 19.1 31.9 14.2c9.6-3.7 15.9-12.8 15.9-23-.1-3.1-.6-6.1-1.7-8.9z" fill="#fff655"/><path d="m341.6 180.4c-1.9 0-3.7-.9-4.8-2.5-1.4-1.9-2.7-3.8-3.9-5.8-1.7-2.8-.8-6.5 2-8.2s6.5-.8 8.2 2c1 1.7 2.1 3.3 3.3 4.9 2 2.7 1.4 6.4-1.3 8.4-1 .8-2.3 1.2-3.5 1.2z" fill="#f4f8fc"/><path d="m329.2 154.4c-2.7 0-5.1-1.8-5.8-4.5-4.2-16-3.6-32.8 1.7-48.4 1-3.2 4.4-4.9 7.6-3.9s4.9 4.4 3.9 7.6c0 .1 0 .1-.1.2-4.6 13.4-5.1 27.8-1.4 41.5.8 3.2-1.1 6.5-4.3 7.3-.6.2-1.1.2-1.6.2z" fill="#f4f8fc"/><g fill="#e1b7a3"><path d="m323.5 42.1c-5-1.7-8.9-5.6-10.6-10.6-1-3.1-4.4-4.8-7.6-3.8-1.8.6-3.2 2-3.8 3.8-1.7 5-5.6 9-10.6 10.6-3.1 1.1-4.8 4.4-3.8 7.6.6 1.8 2 3.2 3.8 3.8 5 1.7 8.9 5.6 10.6 10.6 1 3.1 4.4 4.8 7.6 3.8 1.8-.6 3.2-2 3.8-3.8 1.7-5 5.6-9 10.6-10.6 3.1-1 4.8-4.4 3.8-7.6-.6-1.8-2-3.2-3.8-3.8z"/><path d="m494.9 225.4c-5.3-1.8-9.5-6-11.2-11.3-1-3.1-4.4-4.8-7.6-3.8-1.8.6-3.2 2-3.8 3.8-1.8 5.3-5.9 9.5-11.2 11.3-3.1 1-4.8 4.4-3.8 7.6.6 1.8 2 3.2 3.8 3.8 5.3 1.8 9.5 6 11.2 11.3 1 3.1 4.4 4.8 7.6 3.8 1.8-.6 3.2-2 3.8-3.8 1.8-5.3 5.9-9.5 11.2-11.3 3.1-1 4.8-4.4 3.8-7.6-.6-1.8-2-3.2-3.8-3.8z"/><path d="m443.4 274.8c-5.4 0-9.8-4.4-9.8-9.8s4.4-9.8 9.8-9.8 9.8 4.4 9.8 9.8c-.1 5.4-4.4 9.8-9.8 9.8z"/><path d="m345.4 29.2c-5.3 0-9.6-4.3-9.6-9.6s4.3-9.6 9.6-9.6 9.6 4.3 9.6 9.6c0 5.3-4.3 9.6-9.6 9.6z"/></g><g id="XMLID_2174_"><path d="m175.5 174.5h-20.3c-3.3 0-6-2.7-6-6s2.7-6 6-6h20.3c3.3 0 6 2.7 6 6s-2.7 6-6 6z" fill="#88ced8"/></g><ellipse cx="200.4" cy="168.5" fill="#a0eaea" rx="24.9" ry="25"/><ellipse cx="130.3" cy="168.5" fill="#a0eaea" rx="24.9" ry="25"/><path d="m130.2 178.9c-9.2 0-16.6-7.4-16.6-16.6 0-3.3 2.7-6 6-6s6 2.7 6 6c0 2.5 2 4.6 4.5 4.6s4.6-2 4.6-4.5v-.1c0-3.3 2.7-6 6-6s6 2.7 6 6c0 9.2-7.4 16.6-16.5 16.6z" fill="#61a3bc"/><path d="m200.5 178.9c-9.2 0-16.6-7.4-16.6-16.6 0-3.3 2.7-6 6-6s6 2.7 6 6c0 2.5 2 4.6 4.5 4.6s4.6-2 4.6-4.5v-.1c0-3.3 2.7-6 6-6s6 2.7 6 6c.1 9.2-7.3 16.6-16.5 16.6z" fill="#61a3bc"/></svg>