<svg id="Layer_1" height="512" viewBox="0 0 512 512" width="512" xmlns="http://www.w3.org/2000/svg" data-name="Layer 1"><g fill="#604af3"><path d="m40.749 116.266a12.392 12.392 0 1 1 12.12-9.827 12.413 12.413 0 0 1 -12.12 9.827z"/><path d="m158.937 141.29a12.478 12.478 0 0 1 -2.593-.273 12.329 12.329 0 1 1 2.593.273z"/><path d="m224.863 206.205a12.392 12.392 0 1 1 12.12-9.827 12.413 12.413 0 0 1 -12.12 9.827z"/><path d="m306.37 271.8a12.494 12.494 0 0 1 -2.593-.274 12.316 12.316 0 1 1 2.593.274z"/><path d="m471.256 319.783a12.391 12.391 0 1 1 12.12-9.826 12.414 12.414 0 0 1 -12.12 9.826z"/><path d="m311.256 372.129a12.485 12.485 0 0 1 -2.593-.273 12.326 12.326 0 1 1 2.593.273z"/><path d="m463.66 417.465a12.393 12.393 0 1 1 2.541-24.517 12.393 12.393 0 0 1 -2.541 24.517z"/></g><path d="m132.658 129.336a6.073 6.073 0 0 1 -1.249-.131l-66.272-14.034a6 6 0 1 1 2.486-11.739l66.277 14.033a6 6 0 0 1 -1.238 11.871z" fill="#6d7486"/><path d="m445 307.832a6.013 6.013 0 0 1 -1.871-.3l-112.396-36.864a6 6 0 1 1 3.741-11.4l112.391 36.863a6 6 0 0 1 -1.869 11.7z" fill="#6d7486"/><path d="m437.376 405.512a6 6 0 0 1 -1.944-.325l-99.887-34.216a6 6 0 1 1 3.889-11.353l99.886 34.216a6 6 0 0 1 -1.944 11.678z" fill="#6d7486"/><path d="m207.768 181.822a5.981 5.981 0 0 1 -4.326-1.841l-29.981-31.172a6 6 0 1 1 8.648-8.318l29.982 31.172a6 6 0 0 1 -4.323 10.159z" fill="#6d7486"/><path d="m281.577 250.167a5.973 5.973 0 0 1 -3.69-1.273l-39.556-30.915a6 6 0 1 1 7.389-9.455l39.555 30.914a6 6 0 0 1 -3.7 10.729z" fill="#6d7486"/><path d="m310.268 339.4a6 6 0 0 1 -5.983-5.627l-2.972-47.662a6 6 0 0 1 11.977-.747l2.972 47.662a6 6 0 0 1 -5.616 6.362q-.189.012-.378.012z" fill="#6d7486"/><path d="m469.189 384.812a6 6 0 0 1 -5.979-5.583l-3.237-46.412a6 6 0 1 1 11.97-.835l3.238 46.412a6 6 0 0 1 -5.568 6.4c-.142.013-.284.018-.424.018z" fill="#6d7486"/><path d="m349.7 172.879a9.056 9.056 0 1 1 9.056-9.055 9.066 9.066 0 0 1 -9.056 9.055z" fill="#ed6337"/><path d="m278.407 137.231a8.037 8.037 0 1 1 8.037-8.037 8.047 8.047 0 0 1 -8.037 8.037z" fill="#ed6337"/><path d="m433.223 129.083a7.019 7.019 0 1 1 7.018-7.019 7.027 7.027 0 0 1 -7.018 7.019z" fill="#fadf4a"/><path d="m164.333 243.157a10.074 10.074 0 1 1 10.074-10.074 10.085 10.085 0 0 1 -10.074 10.074z" fill="#fadf4a"/><path d="m159.24 264.546a7.019 7.019 0 1 1 7.019-7.018 7.026 7.026 0 0 1 -7.019 7.018z" fill="#ed6337"/><path d="m273.314 462.14a9.056 9.056 0 1 1 9.056-9.056 9.065 9.065 0 0 1 -9.056 9.056z" fill="#fadf4a"/><path d="m165.352 339.917a7.019 7.019 0 1 1 7.018-7.019 7.026 7.026 0 0 1 -7.018 7.019z" fill="#fadf4a"/><path d="m51.277 323.621a10.074 10.074 0 1 1 10.074-10.075 10.086 10.086 0 0 1 -10.074 10.075z" fill="#fadf4a"/><path d="m459.705 243.157a10.074 10.074 0 1 1 10.073-10.074 10.085 10.085 0 0 1 -10.073 10.074z" fill="#fadf4a"/><path d="m193.87 52.693a7.019 7.019 0 1 1 7.019-7.018 7.026 7.026 0 0 1 -7.019 7.018z" fill="#fadf4a"/><path d="m99.656 456.538a12.112 12.112 0 1 1 12.112-12.111 12.125 12.125 0 0 1 -12.112 12.111zm0-12.223a.111.111 0 0 0 -.11.112c0 .124.222.122.222 0a.112.112 0 0 0 -.112-.112z" fill="#ed6337"/><path d="m422.02 468.251a7.019 7.019 0 1 1 7.018-7.019 7.026 7.026 0 0 1 -7.018 7.019z" fill="#fadf4a"/><path d="m88.962 30.286a10.074 10.074 0 1 1 10.074-10.074 10.085 10.085 0 0 1 -10.074 10.074z" fill="#fadf4a"/><path d="m318.13 45.564a11.093 11.093 0 1 1 11.093-11.093 11.106 11.106 0 0 1 -11.093 11.093z" fill="#fadf4a"/><path d="m342.574 58.805a7.019 7.019 0 1 1 7.019-7.019 7.026 7.026 0 0 1 -7.019 7.019z" fill="#fadf4a"/><path d="m71.647 41.49a7.019 7.019 0 1 1 7.019-7.019 7.026 7.026 0 0 1 -7.019 7.019z" fill="#ed6337"/><path d="m48.222 197.324a8.037 8.037 0 1 1 8.037-8.037 8.046 8.046 0 0 1 -8.037 8.037z" fill="#fadf4a"/><path d="m457.668 51.675a8.037 8.037 0 1 1 8.037-8.037 8.046 8.046 0 0 1 -8.037 8.037z" fill="#ed6337"/><path d="m210.125 344.523a18.283 18.283 0 0 1 -11.487-11.523 6 6 0 0 0 -11.387 0 18.284 18.284 0 0 1 -11.486 11.525 6 6 0 0 0 0 11.381 18.284 18.284 0 0 1 11.486 11.525 6 6 0 0 0 11.387 0 18.283 18.283 0 0 1 11.487-11.531 6 6 0 0 0 0-11.381z" fill="#3090fc"/><path d="m465.774 479.986a18.28 18.28 0 0 1 -11.487-11.524 6 6 0 0 0 -11.387 0 18.276 18.276 0 0 1 -11.486 11.524 6 6 0 0 0 0 11.381 18.28 18.28 0 0 1 11.486 11.525 6 6 0 0 0 11.387 0 18.284 18.284 0 0 1 11.487-11.525 6 6 0 0 0 0-11.381z" fill="#3090fc"/><path d="m230.5 20.633a18.284 18.284 0 0 1 -11.491-11.525 6 6 0 0 0 -11.387 0 18.284 18.284 0 0 1 -11.487 11.525 6 6 0 0 0 0 11.381 18.28 18.28 0 0 1 11.487 11.524 6 6 0 0 0 11.387 0 18.281 18.281 0 0 1 11.491-11.524 6 6 0 0 0 0-11.381zm-17.18 9.051a30.421 30.421 0 0 0 -3.355-3.361 30.421 30.421 0 0 0 3.355-3.361 30.6 30.6 0 0 0 3.355 3.361 30.684 30.684 0 0 0 -3.36 3.361z" fill="#3090fc"/><path d="m395.5 186.652a26.377 26.377 0 0 1 -16.578-16.632 6 6 0 0 0 -11.388 0 26.382 26.382 0 0 1 -16.58 16.633 6 6 0 0 0 0 11.381 26.379 26.379 0 0 1 16.58 16.633 6 6 0 0 0 11.388 0 26.377 26.377 0 0 1 16.578-16.634 6 6 0 0 0 0-11.381z" fill="#3090fc"/><path d="m83.36 472.834a8.037 8.037 0 1 1 8.04-8.034 8.046 8.046 0 0 1 -8.04 8.034z" fill="#fadf4a"/></svg>