<svg id="Layer_1" height="512" viewBox="0 0 512 512" width="512" xmlns="http://www.w3.org/2000/svg" data-name="Layer 1"><path d="m262.67 11c-117.64 0-213 95.65-213 213.63a213.488 213.488 0 0 0 82.21 168.62h.35v-28.64c-.05-.04-.1-.07-.15-.11l.15-.2v.31c24.69 17.66 53.09 36.45 83.8 42.95l94.3 1.83c28.48-6.13 54.96-25.68 78.32-41.51l.2.93v27.95c1.56-1.15 3.09-2.32 4.61-3.51a213.488 213.488 0 0 0 82.21-168.62c0-117.98-95.36-213.63-213-213.63z" fill="#e5f5fd"/><path d="m216.25 332-.25.79-1 79.21 96-1-1-78.21.11-.79z" fill="#efc597"/><path d="m79.67 224.63c0-112.921 87.362-205.374 198-213.095-4.956-.346-9.956-.535-15-.535-117.64 0-213 95.65-213 213.63a213.488 213.488 0 0 0 82.21 168.62h.35v-28.119a213.165 213.165 0 0 1 -52.56-140.501z" fill="#a6b7d0"/><path d="m200.44 318.63a84.222 84.222 0 0 1 -19.43-38.42l-2.14-10.01h.02v-56.96h-4.94a47.733 47.733 0 0 1 38.57-46.58c11.99-2.3 26.97-8.66 38.08-16.66l.43-.47c.12.11.25.22.37.33a82.872 82.872 0 0 0 42.31 20.15 151.637 151.637 0 0 0 18.19 1.72 41.921 41.921 0 0 1 40.51 41.88h4.46a16.794 16.794 0 0 1 11.84 28.65 16.792 16.792 0 0 1 -11.84 4.91h-4.46l-7.06 33.04a83.939 83.939 0 0 1 -129.1 52.25q-3.045-2.055-5.9-4.37a84.338 84.338 0 0 1 -9.91-9.46z" fill="#ffd8b7"/><path d="m246.25 332.46q-3.045-2.055-5.9-4.37a83.976 83.976 0 0 1 -29.34-47.98l-2.14-10.11h.02l-4.94-56.86a47.679 47.679 0 0 1 38.57-46.53 97.454 97.454 0 0 0 21.834-7.272 83.709 83.709 0 0 1 -12.954-9.491c-.12-.11-.25-.213-.37-.323l-.43.473c-11.11 8-26.09 14.361-38.08 16.661a47.626 47.626 0 0 0 -38.57 46.481l4.94 56.861h-.02l2.14 10.11a84.381 84.381 0 0 0 29.34 47.955c1.9 1.54 3.87 3.012 5.9 4.382a83.779 83.779 0 0 0 61.93 13.023 83.627 83.627 0 0 1 -31.93-13.01z" fill="#f2cfad"/><path d="m446.55 447.48v53.52h-367.76v-53.52a54.16 54.16 0 0 1 53.09-54.23c.11.09.23.18.35.27v30.98l-.15.21a224.648 224.648 0 0 0 256.97 3.1l-.2-.3v-30.75c1.56-1.15 3.09-2.32 4.61-3.51a54.16 54.16 0 0 1 53.09 54.23z" fill="#50a6ea"/><path d="m388.85 427.51.2.3a224.648 224.648 0 0 1 -256.97-3.1l.15-.21v-30.98a212.546 212.546 0 0 0 256.62 3.24z" fill="#475673"/><path d="m216.03 401.56a224.5 224.5 0 0 0 172.62-33.68l.2.93v27.95a212.546 212.546 0 0 1 -256.62-3.24v-28.91a223.548 223.548 0 0 0 83.8 36.95z" fill="#5f6a78"/><g fill="#6d7486"><path d="m374.8 288.9c8.59 42.44-21.52 82.92-64.47 86.78v-42.89l-.22-.33a84.2 84.2 0 0 0 35.24-52.25l7.06-33.04h4.46a16.572 16.572 0 0 0 8.95-2.6z"/><path d="m278.09 65.92-34.78-.17a80.936 80.936 0 0 0 -80.82 81.06v67.08l.02.1a28.235 28.235 0 0 1 6.48-.75h4.96a47.733 47.733 0 0 1 38.57-46.58c11.99-2.3 26.97-8.66 38.08-16.66l.43-.47c.12.11.25.22.37.33a82.872 82.872 0 0 0 42.31 20.15 151.637 151.637 0 0 0 18.19 1.72 41.921 41.921 0 0 1 40.51 41.88h4.46a16.764 16.764 0 0 1 6.43 1.28v-63.51a85.334 85.334 0 0 0 -85.21-85.46z"/><path d="m210.35 328.09a84.1 84.1 0 0 1 -29.34-47.88l-2.14-10.01h-9.92a28.356 28.356 0 0 1 -13.89-3.64l-4.52 22.34c-8.63 42.58 21.72 83.18 64.89 86.82h.6v-42.93l.22-.33q-3.045-2.055-5.9-4.37z"/></g><path d="m173.95 213.24h4.94v56.96h-9.94a28.428 28.428 0 0 1 -28.4-28.44v-.08a28.449 28.449 0 0 1 28.44-28.44z" fill="#ed6337"/><path d="m132.23 402.781v-9.261c-.12-.09-.24-.18-.35-.27a54.16 54.16 0 0 0 -53.09 54.23v53.52h30v-53.52a54.218 54.218 0 0 1 23.44-44.699z" fill="#72bcef"/><path d="m218.14 254.443a19.581 19.581 0 0 1 -19.54-19.58 6 6 0 0 1 12 0 7.54 7.54 0 1 0 15.08 0 6 6 0 0 1 12 0 19.582 19.582 0 0 1 -19.54 19.58z" fill="#e0b68c"/><path d="m308.225 254.443a19.581 19.581 0 0 1 -19.54-19.58 6 6 0 0 1 12 0 7.54 7.54 0 1 0 15.08 0 6 6 0 1 1 12 0 19.582 19.582 0 0 1 -19.54 19.58z" fill="#e0b68c"/><path d="m88.011 230.629a6 6 0 0 1 -6-6 180.691 180.691 0 0 1 13.151-67.986 6 6 0 0 1 11.127 4.494 168.739 168.739 0 0 0 -12.278 63.492 6 6 0 0 1 -6 6z" fill="#a6b7d0"/><path d="m95.983 283.116a6 6 0 0 1 -5.724-4.21 180.949 180.949 0 0 1 -4.975-19.77 6 6 0 1 1 11.783-2.267 169.006 169.006 0 0 0 4.645 18.454 6 6 0 0 1 -5.729 7.793z" fill="#a6b7d0"/><path d="m238.53 324.626h-55.678a19.945 19.945 0 0 1 -19.9-19.942v-34.484h12v34.48a7.931 7.931 0 0 0 7.9 7.942h55.678z" fill="#4a5160"/><path d="m156 462.815a6 6 0 0 0 -6 6v31.185h12v-31.185a6 6 0 0 0 -6-6z" fill="#4297d1"/><path d="m370 462.815a6 6 0 0 0 -6 6v31.185h12v-31.185a6 6 0 0 0 -6-6z" fill="#4297d1"/><path d="m486.436 457.418a6 6 0 0 1 -6-6v-.168a6 6 0 0 1 12 0v.168a6 6 0 0 1 -6 6z" fill="#ccd3df"/><path d="m486.436 433.479a6 6 0 0 1 -6-6 48.287 48.287 0 0 0 -27.575-43.648 6 6 0 0 1 5.139-10.844 60.244 60.244 0 0 1 34.436 54.492 6 6 0 0 1 -6 6z" fill="#ccd3df"/><path d="m487.006 483a8 8 0 1 1 7.994-8 8.006 8.006 0 0 1 -7.994 8z" fill="#ccd3df"/><path d="m435.846 212.456a6 6 0 0 1 -5.962-5.386c-.489-4.747-1.188-9.522-2.074-14.191a6 6 0 0 1 11.789-2.24c.95 5 1.7 10.116 2.222 15.2a6.012 6.012 0 0 1 -5.975 6.616z" fill="#a6b7d0"/><path d="m423.809 164.354a6 6 0 0 1 -5.555-3.728c-1.966-4.8-4.178-9.561-6.572-14.145a169.224 169.224 0 0 0 -31.205-42.152 6 6 0 0 1 8.423-8.547 181.1 181.1 0 0 1 33.417 45.143c2.567 4.91 4.936 10.01 7.042 15.155a6 6 0 0 1 -5.55 8.274z" fill="#a6b7d0"/><path d="m484.92 44.31a33.632 33.632 0 0 1 -21.135-21.2 6 6 0 0 0 -11.387 0 33.632 33.632 0 0 1 -21.135 21.2 6 6 0 0 0 0 11.38 33.632 33.632 0 0 1 21.135 21.2 6 6 0 0 0 11.387 0 33.632 33.632 0 0 1 21.135-21.2 6 6 0 0 0 0-11.38z" fill="#50dd5a"/><path d="m74.732 364.411a33.7 33.7 0 0 1 -15.932-25.378 6 6 0 0 0 -11.106-2.516 33.562 33.562 0 0 1 -25.285 15.975 6 6 0 0 0 -2.526 11.1 33.7 33.7 0 0 1 15.933 25.378 6 6 0 0 0 11.106 2.516 33.564 33.564 0 0 1 25.285-15.975 6 6 0 0 0 2.526-11.1z" fill="#50dd5a"/><ellipse cx="476.038" cy="103" fill="#d8ff33" rx="10.985" ry="11"/><ellipse cx="42.322" cy="75" fill="#d8ff33" rx="10.985" ry="11"/><ellipse cx="42.322" cy="432" fill="#d8ff33" rx="10.985" ry="11"/><path d="m245.63 331.748a13.122 13.122 0 1 1 13.1-13.122 13.126 13.126 0 0 1 -13.1 13.122z" fill="#ed6337"/></svg>