<svg id="Layer_1" height="512" viewBox="0 0 512 512" width="512" xmlns="http://www.w3.org/2000/svg" data-name="Layer 1"><path d="m342.81 67.09a26.993 26.993 0 0 1 15.64 34.83 26.526 26.526 0 0 1 -1.46 3.2 26.915 26.915 0 0 1 -13.73 12.27 141.153 141.153 0 0 1 -19.1-19.59 148.929 148.929 0 0 1 -13.81-19.84 27.006 27.006 0 0 1 32.46-10.87z" fill="#3090fc"/><path d="m343.26 117.39a27.012 27.012 0 0 1 -32.91-39.43 148.929 148.929 0 0 0 13.81 19.84 141.153 141.153 0 0 0 19.1 19.59z" fill="#3090fc"/><ellipse cx="262.5" cy="265" fill="#ff9c40" rx="68.534" ry="53"/><ellipse cx="262.5" cy="265" fill="#fadf4a" rx="37.5" ry="29"/><path d="m223.965 265c0-25.284 22.9-46.419 53.535-51.711a88.025 88.025 0 0 0 -15-1.289c-37.851 0-68.535 23.729-68.535 53s30.684 53 68.535 53a88.025 88.025 0 0 0 15-1.289c-30.632-5.292-53.535-26.427-53.535-51.711z" fill="#fe8700"/><path d="m281.159 464.654a6 6 0 0 1 0-12 140.685 140.685 0 0 0 39.722-5.62 6 6 0 0 1 3.387 11.511 152.636 152.636 0 0 1 -43.109 6.109z" fill="#edb740"/><path d="m367.316 435.332a6 6 0 0 1 -3.856-10.6c19.2-16.083 29.771-36.97 29.771-58.814v-6.055c0-33.457-25.342-64.292-64.564-78.557a6 6 0 0 1 4.1-11.278c44.019 16.011 72.462 51.273 72.462 89.835v6.055c0 25.456-12.1 49.61-34.064 68.013a5.98 5.98 0 0 1 -3.849 1.401z" fill="#ffdb00"/><path d="m192.117 268.032a6 6 0 0 1 -1.581-.213c-25.417-6.925-47.7-20.556-62.755-38.382a90.421 90.421 0 0 1 -16.559-28.682 79.6 79.6 0 0 1 -4.123-33.514 6 6 0 1 1 11.951 1.087 67.679 67.679 0 0 0 3.51 28.5 78.433 78.433 0 0 0 14.391 24.872c13.5 15.986 33.647 28.255 56.739 34.546a6 6 0 0 1 -1.573 11.791z" fill="#ffdb00"/><g fill="#edb740"><path d="m125.715 138.127a6 6 0 0 1 -5.019-9.279 100.124 100.124 0 0 1 14.555-17.461 6 6 0 0 1 8.309 8.657 88.176 88.176 0 0 0 -12.815 15.361 5.993 5.993 0 0 1 -5.03 2.722z"/><path d="m158.4 107.168a6 6 0 0 1 -3.133-11.121 135.178 135.178 0 0 1 29.594-13.4 151.936 151.936 0 0 1 49.761-6.947 6 6 0 0 1 -.142 12c-.049 0-.1 0-.147 0a140.117 140.117 0 0 0 -45.846 6.391 123.22 123.22 0 0 0 -26.967 12.2 5.97 5.97 0 0 1 -3.12.877z"/><path d="m27.343 335.617a6 6 0 0 1 -5.142-2.9 81.83 81.83 0 0 1 -12.2-42.8 6 6 0 0 1 12 0 69.99 69.99 0 0 0 10.473 36.6 6 6 0 0 1 -5.13 9.1z"/><path d="m68.727 373.17a5.979 5.979 0 0 1 -2.776-.684 120.262 120.262 0 0 1 -25.986-18.168 6 6 0 1 1 8.147-8.81 108.256 108.256 0 0 0 23.4 16.343 6 6 0 0 1 -2.785 11.319z"/><path d="m134.072 388.651a155.246 155.246 0 0 1 -31.053-3.111 6 6 0 0 1 2.406-11.757 143.169 143.169 0 0 0 28.647 2.868 6 6 0 0 1 0 12z"/></g><path d="m156.6 387.928a6 6 0 0 1 -.58-11.972c42.347-4.165 78.492-27.159 92.082-58.577a6 6 0 1 1 11.013 4.764c-15.294 35.359-55.3 61.169-101.922 65.755a5.932 5.932 0 0 1 -.593.03z" fill="#ffdb00"/><path d="m271.215 216.63a6 6 0 0 1 -5.127-9.108c10.688-17.657 27.589-32.267 48.876-42.248 21.67-10.161 46.464-14.783 71.711-13.366a6 6 0 0 1 -.675 11.981c-23.272-1.309-46.07 2.931-65.944 12.25-19.135 8.972-34.248 21.973-43.705 37.6a6 6 0 0 1 -5.136 2.891z" fill="#ffdb00"/><path d="m454.09 185.534a5.97 5.97 0 0 1 -3.313-1 118.861 118.861 0 0 0 -22.477-11.611 6 6 0 0 1 4.367-11.178 130.908 130.908 0 0 1 24.746 12.79 6 6 0 0 1 -3.324 11z" fill="#edb740"/><path d="m495.947 259.251c-.079 0-.159 0-.238 0a6 6 0 0 1 -5.761-6.231 69.614 69.614 0 0 0 -10.738-39.723 6 6 0 0 1 10.225-6.282 82.518 82.518 0 0 1 12.5 46.475 6 6 0 0 1 -5.988 5.761z" fill="#edb740"/><path d="m123.146 435.582a5.974 5.974 0 0 1 -2.731-.662 123.993 123.993 0 0 1 -20.036-12.785 6 6 0 1 1 7.412-9.436 112.167 112.167 0 0 0 18.1 11.542 6 6 0 0 1 -2.742 11.341z" fill="#edb740"/><path d="m187.23 450.578h-.013c-4.714-.011-9.475-.236-14.15-.671a153.912 153.912 0 0 1 -17.329-2.61 6 6 0 0 1 2.465-11.744 142.043 142.043 0 0 0 15.976 2.406c4.315.4 8.712.609 13.065.619a6 6 0 0 1 -.014 12z" fill="#edb740"/><path d="m219.18 447.211a6 6 0 0 1 -1.269-11.864c18.644-4.054 35.742-11.885 49.447-22.649l5.452-4.281c32.072-25.19 41.22-62.433 23.306-94.882a6 6 0 0 1 10.506-5.8c10.043 18.193 12.953 38.187 8.416 57.822-4.609 19.943-16.648 38.028-34.816 52.3l-5.451 4.281c-15.124 11.878-33.9 20.5-54.311 24.938a5.983 5.983 0 0 1 -1.28.135z" fill="#ffdb00"/><path d="m215.393 230.126a6 6 0 0 1 -5.308-3.192c-14.366-27.128-12.886-57.685 4.063-83.834a6 6 0 0 1 10.071 6.526c-14.513 22.391-15.8 48.521-3.529 71.691a6 6 0 0 1 -5.3 8.809z" fill="#ffdb00"/><path d="m247.105 124.391a6 6 0 0 1 -3.381-10.96 129.181 129.181 0 0 1 19.91-11.078 142.375 142.375 0 0 1 25.8-8.641 6 6 0 1 1 2.72 11.688 130.506 130.506 0 0 0 -23.625 7.907 117.226 117.226 0 0 0 -18.056 10.044 5.976 5.976 0 0 1 -3.368 1.04z" fill="#edb740"/><path d="m410.444 130.944a5.98 5.98 0 0 1 -3.843-1.395 113.419 113.419 0 0 0 -29.749-17.736 6 6 0 0 1 4.556-11.1 125.391 125.391 0 0 1 32.886 19.628 6 6 0 0 1 -3.85 10.6z" fill="#edb740"/><path d="m36.406 203.453a6.008 6.008 0 0 1 -5.8-7.537 85.34 85.34 0 0 1 8.35-20.318 93.679 93.679 0 0 1 7.423-11.1 106.729 106.729 0 0 1 18.421-18.379 6 6 0 1 1 7.412 9.438 94.708 94.708 0 0 0 -16.356 16.3 81.628 81.628 0 0 0 -6.47 9.669 73.313 73.313 0 0 0 -7.186 17.46 6 6 0 0 1 -5.794 4.467z" fill="#edb740"/><path d="m41.6 255.372a6 6 0 0 1 -5.4-3.392 84.757 84.757 0 0 1 -4.951-12.775 6 6 0 0 1 11.502-3.405 72.844 72.844 0 0 0 4.249 10.96 6 6 0 0 1 -5.4 8.612z" fill="#edb740"/><path d="m157.445 319.426a150.862 150.862 0 0 1 -56.238-10.668 6 6 0 0 1 4.494-11.127c32.4 13.088 71.092 13.088 103.492 0a6 6 0 1 1 4.495 11.126 150.847 150.847 0 0 1 -56.243 10.669z" fill="#ffdb00"/><path d="m407.559 244.988a6 6 0 0 1 -1.956-.329 142.072 142.072 0 0 0 -82.52-2.67 6 6 0 0 1 -3.127-11.585 154.2 154.2 0 0 1 89.559 2.91 6 6 0 0 1 -1.956 11.674z" fill="#ffdb00"/><path d="m477.954 325.767a6 6 0 0 1 -5.985-5.663 70.363 70.363 0 0 0 -9.248-30.884 83.39 83.39 0 0 0 -9.779-13.737 6 6 0 0 1 9.041-7.891 95.505 95.505 0 0 1 11.183 15.721 82.241 82.241 0 0 1 10.783 36.118 6 6 0 0 1 -5.654 6.327c-.114.006-.229.009-.341.009z" fill="#edb740"/><path d="m440.889 397.46a6 6 0 0 1 -3.57-10.826c15.037-11.106 25.772-25.145 31.042-40.6a6 6 0 0 1 11.358 3.873c-6.063 17.778-18.259 33.816-35.271 46.379a5.971 5.971 0 0 1 -3.559 1.174z" fill="#edb740"/><path d="m262 326.154a93.5 93.5 0 0 1 -23.609-2.99 6 6 0 1 1 3.031-11.61 81.527 81.527 0 0 0 20.578 2.6c35.29 0 64-21.981 64-49 0-21.829-19.181-41.225-46.643-47.167a82.246 82.246 0 0 0 -17.357-1.833 6 6 0 0 1 0-12 94.212 94.212 0 0 1 19.895 2.1c33.034 7.146 56.105 31.365 56.105 58.9 0 33.636-34.094 61-76 61z" fill="#ed6337"/><path d="m215.391 230.123a6 6 0 0 1 -3.453-10.912 78.254 78.254 0 0 1 12.159-6.968 6 6 0 0 1 5.025 10.9 66.18 66.18 0 0 0 -10.289 5.894 5.973 5.973 0 0 1 -3.442 1.086z" fill="#ed6337"/><path d="m211.437 309.193a5.977 5.977 0 0 1 -3.8-1.361 65.528 65.528 0 0 1 -9.827-9.952 52.486 52.486 0 0 1 -11.81-32.726c0-11.861 4.223-23.352 12.211-33.23a6 6 0 0 1 9.33 7.546 39.307 39.307 0 0 0 -.323 50.964 53.549 53.549 0 0 0 8.028 8.12 6 6 0 0 1 -3.809 10.639z" fill="#ed6337"/><path d="m242 220.154a8 8 0 1 1 8-8 8.009 8.009 0 0 1 -8 8z" fill="#ed6337"/><path d="m223 321.154a8 8 0 1 1 8-8 8.009 8.009 0 0 1 -8 8z" fill="#ed6337"/><path d="m231 138.154a8 8 0 1 1 8-8 8.009 8.009 0 0 1 -8 8z" fill="#6addc7"/><path d="m33 225.154a8 8 0 1 1 8-8 8.009 8.009 0 0 1 -8 8z" fill="#9c28b1"/><path d="m87 384.154a8 8 0 1 1 8-8 8.009 8.009 0 0 1 -8 8z" fill="#ff5a81"/><path d="m116 157.154a8 8 0 1 1 8-8 8.009 8.009 0 0 1 -8 8z" fill="#50dd5a"/><path d="m262 468.154a8 8 0 1 1 8-8 8.009 8.009 0 0 1 -8 8z" fill="#ec6437"/><path d="m346.145 459.507a6 6 0 0 1 -5.694-4.1 9.865 9.865 0 0 0 -6.206-6.211 6 6 0 0 1 0-11.384 9.865 9.865 0 0 0 6.206-6.211 6 6 0 0 1 5.693-4.1 6 6 0 0 1 5.691 4.105 9.861 9.861 0 0 0 6.206 6.21 6 6 0 0 1 0 11.384 9.861 9.861 0 0 0 -6.206 6.21 6 6 0 0 1 -5.69 4.097z" fill="#f3a4ef"/><path d="m454.477 438.808a29.624 29.624 0 0 1 -18.641-18.654 6 6 0 0 0 -11.385 0 29.629 29.629 0 0 1 -18.64 18.655 6 6 0 0 0 0 11.384 29.629 29.629 0 0 1 18.64 18.655 6 6 0 0 0 11.385 0 29.624 29.624 0 0 1 18.641-18.654 6 6 0 0 0 0-11.384z" fill="#d8ff33"/><path d="m93.477 61.808a29.624 29.624 0 0 1 -18.641-18.654 6 6 0 0 0 -11.385 0 29.629 29.629 0 0 1 -18.64 18.655 6 6 0 0 0 0 11.384 29.629 29.629 0 0 1 18.64 18.655 6 6 0 0 0 11.385 0 29.624 29.624 0 0 1 18.641-18.656 6 6 0 0 0 0-11.384z" fill="#604af3"/><path d="m86.145 152.507a6 6 0 0 1 -5.694-4.1 9.865 9.865 0 0 0 -6.206-6.211 6 6 0 0 1 0-11.384 9.865 9.865 0 0 0 6.206-6.211 6 6 0 0 1 5.693-4.1 6 6 0 0 1 5.691 4.105 9.861 9.861 0 0 0 6.206 6.21 6 6 0 0 1 0 11.384 9.861 9.861 0 0 0 -6.206 6.21 6 6 0 0 1 -5.69 4.097z" fill="#49bdff"/><path d="m231.029 255.369a6 6 0 0 1 -4.62-9.825c6.14-7.419 15.415-12.583 26.117-14.538a6 6 0 1 1 2.157 11.805c-7.814 1.427-14.749 5.212-19.028 10.383a5.987 5.987 0 0 1 -4.626 2.175z" fill="#d69625"/><path d="m262 300.154c-13.507 0-25.939-5-34.111-13.711a30.827 30.827 0 0 1 -8.8-21.289 6 6 0 0 1 12 0 19.049 19.049 0 0 0 5.552 13.08c5.824 6.212 15.3 9.92 25.357 9.92a6 6 0 0 1 0 12z" fill="#d69625"/><path d="m285.155 293.743a6 6 0 0 1 -3.217-11.069c6.972-4.417 10.971-10.8 10.971-17.52 0-9.051-7.236-17.305-18.434-21.027a6 6 0 1 1 3.783-11.387c16.19 5.38 26.651 18.1 26.651 32.414 0 10.914-6.032 20.994-16.549 27.657a5.971 5.971 0 0 1 -3.205.932z" fill="#d69625"/><circle cx="434" cy="251.154" fill="#e374db" r="21"/><circle cx="67" cy="280.154" fill="#7ce5e9" r="28"/><path d="m359.061 131.811c-14.1 0-34.989-24.625-39.551-30.223-7.855-9.634-14.3-19.551-18.145-27.922-7.586-16.508-2.081-20.995-.272-22.469 5.982-4.877 16.757 1.691 30.049 13.605l-12.01 4.936c-5.866-5.259-6.967-6.792-9.387-7.9 1.27 5.382 6.922 17.273 19.066 32.17 11.888 14.584 22.209 22.452 27.362 24.94-.805-2.989-2.543-4.357-4.481-8.015l7.608-11.619c5.149 9.726 12.782 25.42 5.605 30.665a9.661 9.661 0 0 1 -5.844 1.832z" fill="#fff27d"/></svg>