<svg id="Layer_1" height="512" viewBox="0 0 512 512" width="512" xmlns="http://www.w3.org/2000/svg" data-name="Layer 1"><path d="m410.193 176.719a194.265 194.265 0 0 0 -102.167-171 6.128 6.128 0 0 0 -4.864-.393 6.05 6.05 0 0 0 -3.572 3.274l-7.472 18.1 10.993 5.8 4.8-13.01a182.145 182.145 0 0 1 90.059 157.229c0 100.474-81.743 182.216-182.217 182.216a182.644 182.644 0 0 1 -81.531-19.214l8.365-14.554-10.545-5.729-11.277 19.916a6 6 0 0 0 2.408 8.136 195.366 195.366 0 0 0 92.805 23.445c4.639 0 9.022-.175 14.022-.5v55.565h12v-56.782c94-12.657 168.193-94.154 168.193-192.499z" fill="#6d7486"/><path d="m287.09 22.02-162.46 294.53 25.73 14.86 162.46-294.53z" fill="#4a5160"/><path d="m360.41 142.74a148.007 148.007 0 0 1 -13.43 103.69l-56.34-29.93c11.13-20.94 18.49-42.63 21.74-64a146.1 146.1 0 0 0 48.03-9.76z" fill="#5fa8ed"/><path d="m290.64 216.5 56.34 29.93a148.033 148.033 0 0 1 -78.4 69.17 146.926 146.926 0 0 0 -18.79-45.27c15.88-14.65 29.73-32.88 40.85-53.82z" fill="#4689d3"/><path d="m360.41 142.74a146.1 146.1 0 0 1 -48.03 9.76c5.8-38.09-1.42-75.15-23.54-105.15a148.216 148.216 0 0 1 71.57 95.39z" fill="#4689d3"/><path d="m288.84 47.35c22.12 30 29.34 67.06 23.54 105.15a146.409 146.409 0 0 1 -74.14-17.31l-.33-.18 41.22-77.59 6.33-11.92c1.14.61 2.27 1.22 3.38 1.85z" fill="#5fa8ed"/><path d="m238.24 135.19a146.409 146.409 0 0 0 74.14 17.31c-3.25 21.37-10.61 43.06-21.74 64l-74.89-39.78 22.16-41.71z" fill="#4689d3"/><path d="m290.64 216.5v.01c-11.12 20.94-24.97 39.17-40.85 53.82a146.843 146.843 0 0 0 -55.86-51.74c-.11-.06-.22-.12-.33-.17l22.15-41.7z" fill="#5fa8ed"/><path d="m285.46 45.5-6.33 11.92-41.22 77.59a148.223 148.223 0 0 1 -56.08-52.01c28.29-26.07 63-40.8 100.2-39.26 1.15.57 2.29 1.15 3.43 1.76z" fill="#4689d3"/><path d="m282.03 43.74c-37.2-1.54-71.91 13.19-100.2 39.26a148.143 148.143 0 0 1 -18.91-45.16 148.163 148.163 0 0 1 119.11 5.9z" fill="#5fa8ed"/><path d="m249.79 270.33a146.926 146.926 0 0 1 18.79 45.27 148.276 148.276 0 0 1 -108.46-1.09l.15-.26-7.74-4.46c36.09.63 69.73-14.03 97.26-39.46z" fill="#5fa8ed"/><path d="m193.93 218.59a146.843 146.843 0 0 1 55.86 51.74c-27.53 25.43-61.17 40.09-97.26 39.46l-5.72-3.3 5.57-10.48 41.22-77.59c.11.05.22.11.33.17z" fill="#4689d3"/><path d="m237.91 135.01-22.16 41.71-74.89-39.78c11.15-20.99 25.04-39.27 40.97-53.94a148.223 148.223 0 0 0 56.08 52.01z" fill="#5fa8ed"/><path d="m140.86 136.94 74.89 39.78-22.15 41.7a148.2 148.2 0 0 0 -74.5-17.34c3.24-21.41 10.61-43.15 21.76-64.14z" fill="#4689d3"/><path d="m193.6 218.42-41.22 77.59-5.57 10.48-6.55-3.78c-20.21-29.35-26.71-65.01-21.16-101.63a148.2 148.2 0 0 1 74.5 17.34z" fill="#5fa8ed"/><path d="m162.92 37.84a148.143 148.143 0 0 0 18.91 45.16c-15.93 14.67-29.82 32.95-40.97 53.94l-56.33-29.93a148.049 148.049 0 0 1 78.39-69.17z" fill="#4689d3"/><path d="m84.53 107.01 56.33 29.93c-11.15 20.99-18.52 42.73-21.76 64.14a148.2 148.2 0 0 0 -48 9.6 148.013 148.013 0 0 1 13.43-103.67z" fill="#5fa8ed"/><path d="m140.26 302.71-5.73-3.31-.73 1.27a148.186 148.186 0 0 1 -62.7-89.99 148.2 148.2 0 0 1 48-9.6c-5.55 36.62.95 72.28 21.16 101.63z" fill="#4689d3"/><path d="m108.51 119.751-23.98-12.741a148.013 148.013 0 0 0 -13.43 103.67 148.343 148.343 0 0 1 28.415-7.668 147.842 147.842 0 0 1 8.995-83.261z" fill="#49bdff"/><path d="m162.92 37.84q1.563 6.652 3.718 13.076a149.169 149.169 0 0 1 64.232-22.043 148.883 148.883 0 0 0 -67.95 8.967z" fill="#49bdff"/><path d="m162.92 37.84a148.049 148.049 0 0 0 -78.39 69.17l23.98 12.741q2.683-6.444 6.02-12.741a147.962 147.962 0 0 1 52.108-56.094q-2.145-6.421-3.718-13.076z" fill="#43a2ff"/><path d="m120.444 256.6a149.182 149.182 0 0 1 -19.344-45.92c-.6-2.54-1.121-5.1-1.585-7.668a148.343 148.343 0 0 0 -28.415 7.668 148.186 148.186 0 0 0 62.7 89.99l.73-1.27 5.73 3.31a129.038 129.038 0 0 1 -19.816-46.11z" fill="#43a2ff"/><g fill="#ccd3df"><path d="m420.282 315.818a6 6 0 0 1 -5.208-8.97 181.365 181.365 0 0 0 22.826-108.63 6 6 0 0 1 11.938-1.225 193.352 193.352 0 0 1 -24.338 115.794 6 6 0 0 1 -5.218 3.031z"/><path d="m369.314 373.617a6 6 0 0 1 -3.6-10.8c3.4-2.545 6.754-5.244 9.967-8.022a184.229 184.229 0 0 0 15.13-14.682 6 6 0 1 1 8.837 8.117 195.9 195.9 0 0 1 -16.12 15.644c-3.424 2.96-7 5.837-10.623 8.55a5.974 5.974 0 0 1 -3.591 1.193z"/><path d="m346.89 388.041a6 6 0 0 1 -2.883-11.266c2.729-1.493 5.458-3.078 8.109-4.712a6 6 0 1 1 6.3 10.217c-2.827 1.742-5.737 3.432-8.648 5.024a5.969 5.969 0 0 1 -2.878.737z"/></g><path d="m246.46 467.88v-43.63h-19.82v43.63l-32.12 32.12h84.06z" fill="#fadf4a"/></svg>