<svg id="Layer_1" height="512" viewBox="0 0 512 512" width="512" xmlns="http://www.w3.org/2000/svg" data-name="Layer 1"><path d="m488.46 89.06a31.973 31.973 0 0 0 12.54 7.75 32.08 32.08 0 0 0 -20.29 20.29 32.088 32.088 0 0 0 -20.29-20.29 32.08 32.08 0 0 0 20.29-20.29 31.973 31.973 0 0 0 7.75 12.54z" fill="#ccd3df"/><path d="m482.4 195.76a170.17 170.17 0 0 0 -78.67-123l-112.08 97.14 12.49 98.24.03.09 122.48 76.04c40.46-36.25 63.03-90.85 55.75-148.51z" fill="#7f8a98"/><path d="m446.59 414.07v33.98a17.858 17.858 0 0 1 -17.86 17.86h-30.75v-69.7h30.75a17.865 17.865 0 0 1 17.86 17.86z" fill="#ed6337"/><path d="m426.65 365.81v30.4h-28.67-204.18-29.47v-30.4z" fill="#71c3d7"/><path d="m304.345 268.23-.117-.09-12.567-98.24 112.074-97.14q-4.334-2.715-8.832-5.19a172.768 172.768 0 0 0 -104.892-19.94c-83.04 10.39-146.57 81.07-150.93 161.8a163.207 163.207 0 0 0 .909 28.4q.226 1.92.51 3.81a169.369 169.369 0 0 0 13.625 46.99 112.028 112.028 0 0 1 9.875 46.89v30.48h263v-21.73z" fill="#e5f5fd"/><path d="m397.98 396.21v69.7h-204.18v-69.7z" fill="#e5f5fd"/><path d="m340.51 213.65a50.5 50.5 0 1 1 -56.37-43.35 51.537 51.537 0 0 1 7.51-.4 50.217 50.217 0 0 1 48.86 43.75z" fill="#a6b7d0"/><path d="m193.8 396.21v69.7h-30.75a17.852 17.852 0 0 1 -17.86-17.86v-33.98a17.858 17.858 0 0 1 17.86-17.86z" fill="#ed6337"/><path d="m155.71 58.63a32.017 32.017 0 0 0 12.54 7.75 32.08 32.08 0 0 0 -20.29 20.29 32.088 32.088 0 0 0 -20.29-20.29 32.08 32.08 0 0 0 20.29-20.29 32.017 32.017 0 0 0 7.75 12.54z" fill="#ccd3df"/><path d="m124.9 414.83h20.29v32.46h-20.29z" fill="#49bdff"/><path d="m140.5 241.64-1.67.25a29.168 29.168 0 0 0 -10.64 2l-.28-.72-14.38-28.34a61.423 61.423 0 0 1 25.3-5.41l.25.01a163.11 163.11 0 0 0 .91 28.4q.225 1.92.51 3.81z" fill="#3090fc"/><path d="m127.91 243.17.28.72a28.331 28.331 0 0 0 -6.37 3.43l-.13-.18-26.59-18.62-.48-.47a61.939 61.939 0 0 1 18.91-13.22z" fill="#49bdff"/><path d="m104.61 414.83h20.29v32.46h-20.29z" fill="#3090fc"/><path d="m121.69 247.14.13.18a29.017 29.017 0 0 0 -7.02 7.05l-31.41-6.78-1.58-.35a62.059 62.059 0 0 1 12.81-19.19l.48.47z" fill="#3090fc"/><path d="m83.39 247.59 31.41 6.78a29.172 29.172 0 0 0 -5.39 16.94h-32.47a61.671 61.671 0 0 1 4.87-24.07z" fill="#49bdff"/><path d="m109.41 311.89v22.56c0 .13 0 .27-.01.4l-1.09-.02-31.37-3.18v-19.76z" fill="#3090fc"/><path d="m109.41 291.6v20.29h-1.02-31.45v-20.29h31.45z" fill="#49bdff"/><path d="m109.41 271.31v20.29h-1.02-31.45v-20.29h31.45z" fill="#3090fc"/><path d="m108.31 334.83 1.09.02a51.166 51.166 0 0 1 -10.89 31.24l-.94-.72-25.59-18.12a18.959 18.959 0 0 0 4.96-12.8v-2.8z" fill="#49bdff"/><path d="m84.32 414.83h20.29v32.46h-20.29z" fill="#49bdff"/><path d="m97.57 365.37.94.72a51.731 51.731 0 0 1 -23.5 16.93l-.58-1.62-18.77-26.48-.05-1.38c.76-.04 1.53-.06 2.3-.06a19 19 0 0 0 14.07-6.23z" fill="#3090fc"/><path d="m64.03 414.83h20.29v32.46h-20.29z" fill="#3090fc"/><path d="m74.43 381.4.58 1.62a51.261 51.261 0 0 1 -17.1 2.92 14.055 14.055 0 0 0 -3.97.56l-.12-.43-24.22-21.61-1.52-.26a46.709 46.709 0 0 1 27.53-10.66l.05 1.38z" fill="#49bdff"/><path d="m64.03 414.83v32.46h-6.12a46.631 46.631 0 0 1 -22.06-5.52l.66-1.25 13.85-27.82a14.376 14.376 0 0 0 7.55 2.13z" fill="#49bdff"/><path d="m53.82 386.07.12.43a14.456 14.456 0 0 0 -9.23 8.04l-.42-.19-31.25-7.67a47.139 47.139 0 0 1 15.04-22.48l1.52.26z" fill="#3090fc"/><path d="m50.36 412.7-13.85 27.82-.66 1.25a47.166 47.166 0 0 1 -20.7-22.1l1.52-.49 27-16.35a14.452 14.452 0 0 0 6.69 9.87z" fill="#3090fc"/><path d="m44.29 394.35.42.19a14.3 14.3 0 0 0 -1.04 8.29l-27 16.35-1.52.49a46.516 46.516 0 0 1 -4.15-19.28 47.033 47.033 0 0 1 2.04-13.71z" fill="#49bdff"/><path d="m313.04 217.12a22.81 22.81 0 1 1 -25.46-19.58 22.708 22.708 0 0 1 25.46 19.58z" fill="#50a6ea"/><g fill="#ed6337"><circle cx="355.89" cy="431.06" r="15"/><circle cx="295.89" cy="431.06" r="15"/><circle cx="235.89" cy="431.06" r="15"/></g><path d="m164.33 365.81v30.4h29.47.53v-30.4z" fill="#aedeea"/><path d="m184.29 288.63a169.6 169.6 0 0 1 -13.79-46.99q-.285-1.89-.51-3.81a163.11 163.11 0 0 1 -.91-28.4c4.36-80.73 67.89-151.41 150.93-161.8q3.377-.422 6.737-.709a174.629 174.629 0 0 0 -36.737.709c-83.04 10.39-146.57 81.07-150.93 161.8a163.11 163.11 0 0 0 .91 28.4q.225 1.92.51 3.81a169.6 169.6 0 0 0 13.79 46.99 112.183 112.183 0 0 1 10.04 46.89v30.29h30v-30.29a112.183 112.183 0 0 0 -10.04-46.89z" fill="#a6b7d0"/><path d="m175.19 448.05v-33.98a17.858 17.858 0 0 1 17.86-17.86h-30a17.858 17.858 0 0 0 -17.86 17.86v33.98a17.852 17.852 0 0 0 17.86 17.86h30a17.852 17.852 0 0 1 -17.86-17.86z" fill="#ff9578"/><path d="m450.828 234.141c-.161 0-.323-.007-.486-.02a6 6 0 0 1 -5.5-6.46 133.1 133.1 0 0 0 -5.678-50.315 6 6 0 1 1 11.448-3.6 145.055 145.055 0 0 1 6.188 54.874 6 6 0 0 1 -5.972 5.521z" fill="#dedede"/><path d="m433.805 155.822a6 6 0 0 1 -5.243-3.075 132.226 132.226 0 0 0 -8.851-13.762 6 6 0 0 1 9.67-7.105 144.193 144.193 0 0 1 9.657 15.015 6 6 0 0 1 -5.233 8.927z" fill="#dedede"/><path d="m100.134 169.076a6 6 0 0 1 -5.939-6.9 175.27 175.27 0 0 1 9.151-35.058 180.757 180.757 0 0 1 16.483-33.124 6 6 0 1 1 10.141 6.414 168.787 168.787 0 0 0 -15.387 30.921 163.206 163.206 0 0 0 -8.525 32.652 6 6 0 0 1 -5.924 5.095z" fill="#6d7486"/></svg>