<svg id="Layer_1" height="512" viewBox="0 0 512 512" width="512" xmlns="http://www.w3.org/2000/svg" data-name="Layer 1"><path d="m493.39 195.6a245.52 245.52 0 0 1 7.31 72.75 229.666 229.666 0 0 1 -312.46-54.74 24.336 24.336 0 0 0 -12.97-8.97c-4.31-1.22-9.37-2.91-12.58-4.82a50.594 50.594 0 0 1 -17.68-69.34c.19-.31.41-.67.66-1.04a13.312 13.312 0 0 0 1.9-9.72 229.527 229.527 0 0 1 -.21-83.3 246.06 246.06 0 0 1 68.7-22.11c-9.52 23.12-10.25 65.17-10.04 84.45a16.547 16.547 0 0 0 8.25 14c.03.02.05.03.08.05a50.619 50.619 0 0 1 24.42 49.55 34.418 34.418 0 0 0 9.23 28.19c10.7 11.02 25.97 25.65 38.02 32.8a168.706 168.706 0 0 0 207.37-27.75z" fill="#ffe578"/><path d="m500.7 268.35a242.8 242.8 0 0 1 -13.41 68.46 265.083 265.083 0 0 1 -87.46 32.76 41.792 41.792 0 0 1 -29.94-6.17c-.24-.16-.47-.3-.69-.43a44.966 44.966 0 0 0 -44.6-.77 41.8 41.8 0 0 1 -31.78 3.61c-21.74-6.32-55.88-17.29-75.51-28.94-1.37-.82-2.97-1.83-4.66-2.95a31.8 31.8 0 0 1 -14.51-24.97 50.549 50.549 0 0 0 -24.73-41.3c-4.83-2.87-12.06-4.35-18.86-5.11a40.82 40.82 0 0 1 -30.84-20.1 265.237 265.237 0 0 1 -33.61-166.73l-.01-.01a243.278 243.278 0 0 1 57.27-39.28 229.527 229.527 0 0 0 .21 83.3 13.312 13.312 0 0 1 -1.9 9.72c-.25.37-.47.73-.66 1.04a50.594 50.594 0 0 0 17.68 69.34c3.21 1.91 8.27 3.6 12.58 4.82a24.336 24.336 0 0 1 12.97 8.97 229.666 229.666 0 0 0 312.46 54.74z" fill="#fff2a0"/><path d="m487.29 336.81a247.143 247.143 0 0 1 -41.07 73.57c-12.15 4.61-32.29 9.53-46.43 12.72a54.088 54.088 0 0 0 -23.8 12.28 44.991 44.991 0 0 1 -52.72 4.93 30.2 30.2 0 0 1 -3.7-2.7 53.877 53.877 0 0 0 -25.77-11.87 292.667 292.667 0 0 1 -101.89-37.27c-7.78-4.62-19.09-12.72-27.41-18.86a43.207 43.207 0 0 0 -21.71-8.07 50.66 50.66 0 0 1 -45.81-49.72 71.109 71.109 0 0 0 -5.43-26.96c-13.92-32.76-44.73-111.04-43.17-158.84a243.787 243.787 0 0 1 41.71-50.32l.01.01a265.237 265.237 0 0 0 33.61 166.73 40.82 40.82 0 0 0 30.84 20.1c6.8.76 14.03 2.24 18.86 5.11a50.549 50.549 0 0 1 24.73 41.3 31.8 31.8 0 0 0 14.51 24.97c1.69 1.12 3.29 2.13 4.66 2.95 19.63 11.65 53.77 22.62 75.51 28.94a41.8 41.8 0 0 0 31.78-3.61 44.966 44.966 0 0 1 44.6.77c.22.13.45.27.69.43a41.792 41.792 0 0 0 29.94 6.17 265.083 265.083 0 0 0 87.46-32.76z" fill="#ffe578"/><path d="m274.24 11.67a244.69 244.69 0 0 1 219.15 183.93 168.706 168.706 0 0 1 -207.37 27.75c-12.05-7.15-27.32-21.78-38.02-32.8a34.418 34.418 0 0 1 -9.23-28.19 50.619 50.619 0 0 0 -24.42-49.55c-.03-.02-.05-.03-.08-.05a16.547 16.547 0 0 1 -8.25-14c-.21-19.28.52-61.33 10.04-84.45a244.861 244.861 0 0 1 58.18-2.64z" fill="#fff2a0"/><path d="m301.46 496.7a243.985 243.985 0 0 1 -170.52-30.07c-116.33-69.06-154.64-219.36-85.57-335.69q1.47-2.49 3.01-4.92c-1.56 47.8 29.25 126.08 43.17 158.84a71.109 71.109 0 0 1 5.43 26.96 50.66 50.66 0 0 0 45.81 49.72 43.207 43.207 0 0 1 21.71 8.07c8.32 6.14 19.63 14.24 27.41 18.86a292.667 292.667 0 0 0 101.89 37.27 53.877 53.877 0 0 1 25.77 11.87 30.2 30.2 0 0 0 3.7 2.7 44.991 44.991 0 0 0 52.72-4.93 54.088 54.088 0 0 1 23.8-12.28c14.14-3.19 34.28-8.11 46.43-12.72a244.4 244.4 0 0 1 -144.76 86.32z" fill="#fff2a0"/><circle cx="146" cy="314" fill="#edd46b" r="24"/><circle cx="346" cy="402" fill="#edd46b" r="24"/><circle cx="189" cy="153" fill="#edd46b" r="24"/><path d="m381.5 153a106.2 106.2 0 0 0 77.778-33.759 245.436 245.436 0 0 0 -178.644-107.008 106.574 106.574 0 0 0 100.866 140.767z" fill="#ffe578"/><path d="m424.726 78.359a246.613 246.613 0 0 0 -93.713-55.594 54.5 54.5 0 0 0 93.713 55.594z" fill="#edd46b"/><circle cx="407" cy="169" fill="#edd46b" r="28"/><path d="m143.844 86.432a245.122 245.122 0 0 1 63.928-32.563c1.428-14.487 3.939-29 8.288-39.559a246.06 246.06 0 0 0 -68.7 22.11 228.815 228.815 0 0 0 -3.516 50.012z" fill="#ceb752"/><path d="m89.666 139.541a242.584 242.584 0 0 1 54.178-53.109 228.815 228.815 0 0 1 3.516-50.012 243.278 243.278 0 0 0 -57.27 39.28l.01.01a263.861 263.861 0 0 0 -.434 63.831z" fill="#edd46b"/><path d="m59.055 193.732a246.993 246.993 0 0 1 16.315-32.792q1.47-2.49 3.01-4.92c3.56-5.7 7.342-11.176 11.286-16.479a263.861 263.861 0 0 1 .434-63.831l-.01-.01a243.787 243.787 0 0 0 -41.71 50.32c-.629 19.28 4.007 43.508 10.675 67.712z" fill="#ceb752"/><path d="m246.06 44.31a245.623 245.623 0 0 1 28.2-3.008 106.083 106.083 0 0 1 5.373-27.069 245.637 245.637 0 0 1 154.6 76.738q4.864 3.687 9.489 7.587a244.668 244.668 0 0 0 -227.662-84.248c-4.349 10.561-6.86 25.072-8.288 39.559a246.613 246.613 0 0 1 38.288-9.559z" fill="#edd46b"/><path d="m59.055 193.732c-6.668-24.2-11.3-48.436-10.675-67.712q-1.545 2.43-3.01 4.92c-62.131 104.643-37.359 236.76 52.916 312.521-57.463-68.5-73.877-164.814-39.231-249.729z" fill="#edd46b"/><path d="m381.06 44.37a243.869 243.869 0 0 0 -100.426-33.137 106.083 106.083 0 0 0 -5.373 27.067 243.789 243.789 0 0 1 136.799 34.07 247.8 247.8 0 0 1 23.172 15.6 244.88 244.88 0 0 0 -54.172-43.6z" fill="#ceb752"/><g fill="#d8bf56"><path d="m188.649 182.306a28.506 28.506 0 0 1 -24.449-43.043 6 6 0 0 1 10.318 6.126 16.489 16.489 0 1 0 22.6-5.76 6 6 0 0 1 6.126-10.318 28.488 28.488 0 0 1 -7.506 52.1 28.693 28.693 0 0 1 -7.089.895z"/><path d="m124.044 317c-.187 0-.375-.009-.564-.026a6 6 0 0 1 -5.417-6.532 28.492 28.492 0 0 1 55.992-4.327 6 6 0 1 1 -11.635 2.937 16.492 16.492 0 0 0 -32.409 2.5 6 6 0 0 1 -5.967 5.448z"/><path d="m146.5 341.57a28.645 28.645 0 0 1 -22.07-10.383 6 6 0 1 1 9.265-7.626 16.573 16.573 0 0 0 16.78 5.517 6 6 0 0 1 2.938 11.634 28.2 28.2 0 0 1 -6.913.858z"/><path d="m347.153 430.715a28.313 28.313 0 0 1 -14.494-4 6 6 0 1 1 6.127-10.318 16.488 16.488 0 0 0 24.414-18.168 6 6 0 0 1 11.643-2.9 28.487 28.487 0 0 1 -20.603 34.491 28.647 28.647 0 0 1 -7.087.895z"/><path d="m327.86 396.736a6 6 0 0 1 -5.153-9.064 28.52 28.52 0 0 1 39.039-9.953 6 6 0 0 1 -6.126 10.319 16.506 16.506 0 0 0 -22.6 5.76 6 6 0 0 1 -5.16 2.938z"/><path d="m135.648 430.292a5.971 5.971 0 0 1 -3.655-1.246 397.107 397.107 0 0 1 -77.678-79.772 6 6 0 0 1 9.671-7.1 385.17 385.17 0 0 0 75.326 77.367 6 6 0 0 1 -3.664 10.755z"/><path d="m379.682 185.135a6 6 0 0 1 -5.6-3.842 34.11 34.11 0 1 1 64.871-20.721 6 6 0 1 1 -11.628 2.965 22.11 22.11 0 1 0 -42.047 13.437 6 6 0 0 1 -5.6 8.161z"/><path d="m405.908 203.12a34.061 34.061 0 0 1 -17.42-4.791 6 6 0 0 1 6.126-10.319 22.082 22.082 0 0 0 27.957-4.479 6 6 0 1 1 9.057 7.872 34.026 34.026 0 0 1 -25.72 11.717z"/><path d="m380.932 162.143h-.055a118.4 118.4 0 0 1 -59.29-16.611 6 6 0 0 1 6.126-10.318 106.38 106.38 0 0 0 53.272 14.929 6 6 0 0 1 -.053 12z"/><path d="m302.609 490.817c-43.665-7.811-84.467-22.391-121.273-43.336a6 6 0 0 0 -5.935 10.43 387.947 387.947 0 0 0 108.646 41.433q8.757-1.016 17.413-2.644c1.993-.377 3.98-.785 5.962-1.211a6 6 0 0 0 -4.813-4.672z"/><path d="m46.761 333.873a6 6 0 0 0 5.012-9.29c-24.193-36.9-34.18-65.583-34.316-65.983a6 6 0 0 0 -6.436-4.013c0 .739-.007 1.477 0 2.215q.008 1.6.036 3.189.02 1.179.052 2.355.043 1.63.107 3.259c.03.747.067 1.493.1 2.239.055 1.122.113 2.244.184 3.364.042.677.094 1.353.143 2.029.084 1.187.169 2.375.271 3.561 0 .036.007.072.01.108a381.813 381.813 0 0 0 29.814 54.253 6 6 0 0 0 5.023 2.714z"/><path d="m321.39 57.987h.1a6 6 0 0 0 5.906-6.093 50.108 50.108 0 0 1 7.04-26.366 5.973 5.973 0 0 0 .8-2.349q-5.6-1.918-11.24-3.557a62.094 62.094 0 0 0 -8.6 32.459 6 6 0 0 0 5.994 5.906z"/><path d="m420.8 76.805a50.239 50.239 0 0 1 -86.155.372 6 6 0 1 0 -10.272 6.2 62.217 62.217 0 0 0 106.461 0q-4.151-4.224-8.528-8.272a5.956 5.956 0 0 0 -1.506 1.7z"/><path d="m282.559 107.993a6 6 0 0 0 10.083-6.507 106.336 106.336 0 0 1 -12.649-88.109 6 6 0 0 0 .226-1.181c-1.992-.2-3.986-.379-5.979-.526-2.044-.152-4.088-.263-6.132-.363a118.328 118.328 0 0 0 14.451 96.686z"/><path d="m422.163 142.29 4.512 11.119a118.935 118.935 0 0 0 38.37-25.187c-1.068-1.752-2.151-3.5-3.265-5.222s-2.246-3.409-3.4-5.095a106.788 106.788 0 0 1 -36.217 24.385z"/></g></svg>