<svg id="Layer_1" height="512" viewBox="0 0 512 512" width="512" xmlns="http://www.w3.org/2000/svg" data-name="Layer 1"><path d="m258.989 310.189-6.839-9.86 22.511-15.612a26.3 26.3 0 0 0 6.615-36.554l-6.533-9.42 9.86-6.839 6.533 9.42a38.312 38.312 0 0 1 -9.636 53.254z" fill="#ccd3df"/><path d="m275.689 274.687a6.061 6.061 0 0 1 -1.075-.1l-28.394-5.138a6 6 0 0 1 2.136-11.809l28.394 5.138a6 6 0 0 1 -1.061 11.906z" fill="#49bdff"/><path d="m367.93 153.38-.01.01-27.15 25.67-39.28-56.65 33.55-16.44z" fill="#5f6a78"/><path d="m295.63 113.96-213.84 135.22a55.547 55.547 0 1 0 63.26 91.21l201.58-152.89z" fill="#e5f5fd"/><path d="m246.62 263.9-.26-.35-89.92 68.2.01.02 35.65 128.55 91.42-63.4z" fill="#a6b7d0"/><g fill="#50a6ea"><path d="m185.44 182.82.37.58-95.76 60.56-.01-.01a35.237 35.237 0 0 1 10.93-45.54l64.34-44.62z"/><path d="m227.8 215.46a17.164 17.164 0 1 1 -23.92-4.39 17.189 17.189 0 0 1 23.92 4.39z"/><path d="m169.54 234.75 19.77 28.51-67.31 49.44a19.621 19.621 0 1 1 -22.36-32.23z"/></g><path d="m247.22 350.96 10.02 36.81-52.59 36.47-10.03-36.85 52.49-36.4z" fill="#ed6337"/><path d="m238.26 318.05 8.96 32.91-.11.03-52.49 36.4-8.95-32.92.16-.05z" fill="#c24e38"/><path d="m227.4 278.14 10.86 39.91-52.43 36.37-.16.05h-.01l-10.1-37.14-.04-.05 51.78-39.27z" fill="#ed6337"/><path d="m335.04 105.97-33.55 16.44 13.13 18.936 33.42-16.376z" fill="#475673"/><path d="m295.63 113.96-213.84 135.22a55.572 55.572 0 0 0 -8.59 87.092 55.543 55.543 0 0 1 21.59-68.092l213.84-135.22z" fill="#a6b7d0"/><path d="m382.458 113.733a6 6 0 0 1 -3.424-10.93l73.547-51.003a6 6 0 1 1 6.838 9.86l-73.546 51.008a5.976 5.976 0 0 1 -3.415 1.065z" fill="#50dd5a"/><path d="m420.356 122.917a5.994 5.994 0 0 1 -4.936-2.581l-32.78-47.266a6 6 0 0 1 9.86-6.839l32.781 47.269a6 6 0 0 1 -4.925 9.42z" fill="#d8ff33"/><path d="m437.053 103.927a5.992 5.992 0 0 1 -4.935-2.581l-25.842-37.259a6 6 0 1 1 9.861-6.839l25.841 37.259a6 6 0 0 1 -4.925 9.42z" fill="#d8ff33"/><path d="m453.75 84.938a5.992 5.992 0 0 1 -4.936-2.582l-18.901-27.256a6 6 0 1 1 9.86-6.839l18.9 27.253a6 6 0 0 1 -4.925 9.42z" fill="#d8ff33"/><path d="m259.167 203.977a6 6 0 0 1 -3.424-10.931l62.357-43.246a6 6 0 0 1 6.839 9.861l-62.355 43.246a5.976 5.976 0 0 1 -3.417 1.07z" fill="#c5dee8"/><path d="m267.51 173.328a6 6 0 0 1 -3.425-10.931l42.37-29.384a6 6 0 1 1 6.838 9.86l-42.369 29.385a5.975 5.975 0 0 1 -3.414 1.07z" fill="#c5dee8"/><path d="m290.8 206.9a6 6 0 0 1 -3.425-10.931l42.37-29.385a6 6 0 0 1 6.839 9.861l-42.37 29.384a5.967 5.967 0 0 1 -3.414 1.071z" fill="#c5dee8"/><path d="m152.1 430.243a6 6 0 0 1 -5.779-4.4l-13.621-49.103a6 6 0 1 1 11.564-3.207l13.62 49.1a6.006 6.006 0 0 1 -5.785 7.605z" fill="#ccd3df"/><path d="m162.1 466.317a6 6 0 0 1 -5.778-4.4l-4.812-17.35a6 6 0 0 1 11.563-3.207l4.812 17.35a6 6 0 0 1 -5.785 7.605z" fill="#ccd3df"/><path d="m362.54 79.03-34.39 17.01 46.67 67.28 27.97-26.24z" fill="#e5f5fd"/><path d="m362.54 79.03-34.39 17.01 13.134 18.934 34.256-16.944z" fill="#a6b7d0"/></svg>