<svg id="Layer_1" height="512" viewBox="0 0 512 512" width="512" xmlns="http://www.w3.org/2000/svg" data-name="Layer 1"><path d="m483.1 284.82-17.51 1.91c-34.17 3.72-49.69 44.94-26.56 70.55l11.85 13.13-16.38-6.51c-31.98-12.7-64.74 16.53-56.07 50.04l4.43 17.16-11.5-13.43c-22.45-26.21-64.94-15.66-72.73 18.06l-3.99 17.28-3.99-17.28c-7.78-33.72-50.28-44.27-72.73-18.06l-11.5 13.43 1.99-7.69 2.45-9.47c8.66-33.51-24.1-62.74-56.07-50.04l-16.38 6.51 11.85-13.13c23.13-25.61 7.6-66.83-26.57-70.55l-17.5-1.91 16.54-6.07c32.3-11.85 37.57-55.62 9.03-74.91l-14.62-9.88 17.45 2.37c34.06 4.63 58.93-31.66 42.55-62.1l-8.38-15.6 14.35 10.27c28.03 20.04 66.79-.45 66.33-35.07l-.23-17.73 7.98 15.81c15.57 30.86 59.34 30.86 74.91 0l7.97-15.81-.23 17.73c-.45 34.62 38.3 55.11 66.33 35.07l14.36-10.27-8.39 15.6c-16.37 30.44 8.49 66.73 42.55 62.1l17.45-2.37-14.62 9.88c-28.54 19.29-23.26 63.06 9.03 74.91z" fill="#fadf4a"/><path d="m154.79 363.9c31.97-12.7 64.73 16.53 56.07 50.04l-2.45 9.47a159.943 159.943 0 0 1 -180.42-83.48l.1-.05c1.21.12 2.44.18 3.68.18a35.925 35.925 0 1 0 -20.63-65.35q-.135-3.225-.13-6.5a158.99 158.99 0 0 1 17.78-73.29 27.842 27.842 0 1 0 31.81-42.38 159.146 159.146 0 0 1 98.63-43.62l.19-.17 8.96 9.75.38.13 8.38 15.6c16.38 30.44-8.49 66.73-42.55 62.1l-17.45-2.37 14.62 9.88c28.54 19.29 23.27 63.06-9.03 74.91l-16.54 6.07 17.5 1.91c34.17 3.72 49.7 44.94 26.57 70.55l-11.85 13.13z" fill="#e5f5fd"/><path d="m60.6 152.54a27.846 27.846 0 1 1 -31.81 42.38 159.8 159.8 0 0 1 31.81-42.38z" fill="#a6b7d0"/><path d="m31.77 268.21a35.925 35.925 0 1 1 0 71.85c-1.24 0-2.47-.06-3.68-.18l-.1.05a158.732 158.732 0 0 1 -16.85-65.22 35.742 35.742 0 0 1 20.63-6.5z" fill="#7d97b2"/><path d="m294.64 151.48a113.07 113.07 0 1 1 -113.07 113.07 113.074 113.074 0 0 1 113.07-113.07z" fill="#ff9c40"/><circle cx="136.47" cy="152.07" fill="#95acc6" r="10.37"/><circle cx="88.77" cy="365.68" fill="#95acc6" r="10.37"/><path d="m211.57 264.55a113.083 113.083 0 0 1 98.071-112.078 113.07 113.07 0 1 0 0 224.156 113.083 113.083 0 0 1 -98.071-112.078z" fill="#fe8700"/><g fill="#ffe783"><path d="m465.891 79.515a6 6 0 0 1 -4.243-10.243l3.543-3.543a6 6 0 0 1 8.485 8.486l-3.543 3.543a5.982 5.982 0 0 1 -4.242 1.757z"/><path d="m420.907 124.5a6 6 0 0 1 -4.242-10.243l20.784-20.784a6 6 0 0 1 8.485 8.486l-20.785 20.784a5.98 5.98 0 0 1 -4.242 1.757z"/><path d="m294.643 483.363a6 6 0 0 1 -6-6v-2.438a6 6 0 0 1 12 0v2.438a6 6 0 0 1 -6 6z"/><path d="m394.91 458.25a6 6 0 0 1 -5.244-3.074l-2.351-4.208a6 6 0 0 1 10.476-5.854l2.351 4.209a6 6 0 0 1 -5.232 8.927z"/><path d="m345.4 59.465a6 6 0 0 1 -5.834-7.423l3.9-16a6 6 0 0 1 11.658 2.844l-3.9 16a6 6 0 0 1 -5.824 4.579z"/><path d="m188 465.4a6 6 0 0 1 -5.061-9.216l5.187-8.174a6 6 0 0 1 10.133 6.43l-5.187 8.173a6 6 0 0 1 -5.072 2.787z"/><path d="m473.668 389.278a5.974 5.974 0 0 1 -3.018-.818l-7.631-4.452a6 6 0 1 1 6.046-10.365l7.635 4.457a6 6 0 0 1 -3.029 11.183z"/><path d="m501 291.281h-3.476a6 6 0 0 1 0-12h3.476a6 6 0 0 1 0 12z"/><path d="m142.094 95.893a5.986 5.986 0 0 1 -4.42-1.94l-5.751-6.253a6 6 0 0 1 8.836-8.12l5.751 6.258a6 6 0 0 1 -4.416 10.06z"/><path d="m486.864 193.772a6 6 0 0 1 -2.256-11.562l6.651-2.7a6 6 0 0 1 4.508 11.121l-6.651 2.7a5.986 5.986 0 0 1 -2.252.441z"/><path d="m244.7 61.368a6 6 0 0 1 -5.844-4.672l-4.711-20.729a6 6 0 1 1 11.7-2.659l4.711 20.729a6.007 6.007 0 0 1 -5.857 7.331z"/></g><path d="m101.213 194.361a8.074 8.074 0 1 1 8.074-8.073 8.083 8.083 0 0 1 -8.074 8.073z" fill="#a6b7d0"/></svg>