<svg id="Layer_1" height="512" viewBox="0 0 512 512" width="512" xmlns="http://www.w3.org/2000/svg" data-name="Layer 1"><path d="m262.67 11c-117.64 0-213 95.65-213 213.63a213.488 213.488 0 0 0 82.21 168.62h.35v-28.64a223.825 223.825 0 0 0 69.27 33.36l109 3.03.07.34 78.28-4.58c1.56-1.15 3.09-2.32 4.61-3.51a213.488 213.488 0 0 0 82.21-168.62c0-117.98-95.36-213.63-213-213.63z" fill="#e5f5fd"/><path d="m310 348v.011c.052-.04.112-.081.16-.121z" fill="#efc597"/><path d="m310 401v-55l-109-2v64l109.195 3.355z" fill="#efc597"/><path d="m79.67 224.63c0-112.921 87.362-205.374 198-213.095-4.956-.346-9.956-.535-15-.535-117.64 0-213 95.65-213 213.63a213.488 213.488 0 0 0 82.21 168.62h.35v-28.119a213.165 213.165 0 0 1 -52.56-140.501z" fill="#a6b7d0"/><path d="m189.19 331.63a82.605 82.605 0 0 1 -12.91-29.82l-4.01-18.69-.38-1.78v-55.1h-2.57v-23.67a56.053 56.053 0 0 1 22.85-45.14l-2.1 30.43c17.33-4.33 36.09-30.84 42.1-39.95a3.193 3.193 0 0 1 4.76-.66 44.737 44.737 0 0 0 45.32 7.92c21.79-8.36 46.61 1.28 56.44 22.45a69.328 69.328 0 0 1 6.43 29.27v29.5h4.4a16.4 16.4 0 0 1 11.65 4.83 16.476 16.476 0 0 1 -11.65 28.13h-4.4l-6.95 32.46a82.648 82.648 0 0 1 -27.76 46.08c-.38.32-.76.64-1.15.95a82.8 82.8 0 0 1 -120.07-17.21z" fill="#ffd8b7"/><path d="m232.54 346.61a82.7 82.7 0 0 1 -26.26-44.8l-4.01-18.69-.38-1.78-1-55.1-.57-23.67c0-7.7.59-15.2 3.551-22.088-4.525 3.522-9.213 6.232-13.8 7.378l2.1-30.43a56.359 56.359 0 0 0 -23.171 45.14v23.67l2.729 55.1.46 1.78 4.051 18.69a82.792 82.792 0 0 0 95.96 64.058 82.793 82.793 0 0 1 -39.66-19.258z" fill="#f2cfad"/><path d="m446.55 447.48v53.52h-367.76v-53.52a54.16 54.16 0 0 1 53.09-54.23c.11.09.23.18.35.27v30.98l-.15.21a224.648 224.648 0 0 0 256.97 3.1l-.2-.3v-30.75c1.56-1.15 3.09-2.32 4.61-3.51a54.16 54.16 0 0 1 53.09 54.23z" fill="#50a6ea"/><path d="m388.85 427.51.2.3a224.648 224.648 0 0 1 -256.97-3.1l.15-.21v-30.98a212.546 212.546 0 0 0 256.62 3.24z" fill="#475673"/><path d="m132.23 393.25v-28.64a224.473 224.473 0 0 0 256.42 3.27l.2.93v27.95a212.546 212.546 0 0 1 -256.62-3.24z" fill="#5f6a78"/><path d="m362.94 158.64a152.232 152.232 0 0 1 -8.72 78.43 16.586 16.586 0 0 0 -4.7-.68h-4.4v-29.5a69.328 69.328 0 0 0 -6.43-29.27c-9.83-21.17-34.65-30.81-56.44-22.45a44.737 44.737 0 0 1 -45.32-7.92 3.193 3.193 0 0 0 -4.76.66c-6.01 9.11-24.77 35.62-42.1 39.95l2.1-30.43a56.053 56.053 0 0 0 -22.85 45.14v23.67h-7.33a28.181 28.181 0 0 0 -6.79.82l-.17-.78a124.488 124.488 0 0 1 -9.03-46.81c0-63.75 47.21-115.42 105.45-115.42a98.735 98.735 0 0 1 59.07 19.79 10.773 10.773 0 0 1 3.24 3.9 11.209 11.209 0 0 1 1.15 4.95 11.123 11.123 0 0 0 7.68 10.58s15.53 5.35 16.22 6.27c4.82 6.42 21.69 33.1 24.13 49.1z" fill="#6d7486"/><ellipse cx="238.63" cy="331.63" fill="#3090fc" rx="7.1" ry="7.12"/><path d="m132.23 402.781v-9.261c-.12-.09-.24-.18-.35-.27a54.16 54.16 0 0 0 -53.09 54.23v53.52h30v-53.52a54.218 54.218 0 0 1 23.44-44.699z" fill="#72bcef"/><path d="m211.629 261.912a19.36 19.36 0 0 1 -19.338-19.338 6 6 0 0 1 12 0 7.338 7.338 0 0 0 14.676 0 6 6 0 0 1 12 0 19.36 19.36 0 0 1 -19.338 19.338z" fill="#e0b68c"/><path d="m300.371 261.912a19.36 19.36 0 0 1 -19.338-19.338 6 6 0 1 1 12 0 7.338 7.338 0 0 0 14.676 0 6 6 0 0 1 12 0 19.36 19.36 0 0 1 -19.338 19.338z" fill="#e0b68c"/><path d="m88.011 230.629a6 6 0 0 1 -6-6 180.691 180.691 0 0 1 13.151-67.986 6 6 0 0 1 11.127 4.494 168.739 168.739 0 0 0 -12.278 63.492 6 6 0 0 1 -6 6z" fill="#a6b7d0"/><path d="m95.983 283.116a6 6 0 0 1 -5.724-4.21 180.949 180.949 0 0 1 -4.975-19.77 6 6 0 1 1 11.783-2.267 169.006 169.006 0 0 0 4.645 18.454 6 6 0 0 1 -5.729 7.793z" fill="#a6b7d0"/><path d="m231.53 337.626h-55.678a19.945 19.945 0 0 1 -19.9-19.942v-36.484h12v36.48a7.931 7.931 0 0 0 7.9 7.942h55.678z" fill="#4a5160"/><path d="m156 462.815a6 6 0 0 0 -6 6v31.185h12v-31.185a6 6 0 0 0 -6-6z" fill="#4297d1"/><path d="m370 462.815a6 6 0 0 0 -6 6v31.185h12v-31.185a6 6 0 0 0 -6-6z" fill="#4297d1"/><path d="m484.92 44.31a33.632 33.632 0 0 1 -21.135-21.2 6 6 0 0 0 -11.387 0 33.632 33.632 0 0 1 -21.135 21.2 6 6 0 0 0 0 11.38 33.632 33.632 0 0 1 21.135 21.2 6 6 0 0 0 11.387 0 33.632 33.632 0 0 1 21.135-21.2 6 6 0 0 0 0-11.38z" fill="#50dd5a"/><path d="m74.732 364.411a33.7 33.7 0 0 1 -15.932-25.378 6 6 0 0 0 -11.106-2.516 33.562 33.562 0 0 1 -25.285 15.975 6 6 0 0 0 -2.526 11.1 33.7 33.7 0 0 1 15.933 25.378 6 6 0 0 0 11.106 2.516 33.564 33.564 0 0 1 25.285-15.975 6 6 0 0 0 2.526-11.1z" fill="#50dd5a"/><g fill="#ccd3df"><path d="m486.436 457.418a6 6 0 0 1 -6-6v-.168a6 6 0 0 1 12 0v.168a6 6 0 0 1 -6 6z"/><path d="m486.436 433.479a6 6 0 0 1 -6-6 48.287 48.287 0 0 0 -27.575-43.648 6 6 0 0 1 5.139-10.844 60.244 60.244 0 0 1 34.436 54.492 6 6 0 0 1 -6 6z"/><path d="m487.006 483a8 8 0 1 1 7.994-8 8.006 8.006 0 0 1 -7.994 8z"/></g><ellipse cx="476.038" cy="103" fill="#d8ff33" rx="10.985" ry="11"/><ellipse cx="42.322" cy="75" fill="#d8ff33" rx="10.985" ry="11"/><ellipse cx="42.322" cy="432" fill="#d8ff33" rx="10.985" ry="11"/><path d="m435.846 212.456a6 6 0 0 1 -5.962-5.386c-.489-4.747-1.188-9.522-2.074-14.191a6 6 0 0 1 11.789-2.24c.95 5 1.7 10.116 2.222 15.2a6.012 6.012 0 0 1 -5.975 6.616z" fill="#a6b7d0"/><path d="m423.809 164.354a6 6 0 0 1 -5.555-3.728c-1.966-4.8-4.178-9.561-6.572-14.145a169.224 169.224 0 0 0 -31.205-42.152 6 6 0 0 1 8.423-8.547 181.1 181.1 0 0 1 33.417 45.143c2.567 4.91 4.936 10.01 7.042 15.155a6 6 0 0 1 -5.55 8.274z" fill="#a6b7d0"/><path d="m238.63 344.748a13.122 13.122 0 1 1 13.1-13.122 13.126 13.126 0 0 1 -13.1 13.122z" fill="#ed6337"/><path d="m171.89 281.34v1.86h-9.94a28.434 28.434 0 0 1 -28.4-28.44v-.08a28.429 28.429 0 0 1 28.44-28.44h9.9z" fill="#ed6337"/></svg>