<svg id="Layer_1" height="512" viewBox="0 0 512 512" width="512" xmlns="http://www.w3.org/2000/svg" data-name="Layer 1"><path d="m47.15 127.85a244.906 244.906 0 0 1 391.35-35.31v.01a244.028 244.028 0 0 1 62.5 163.45c0 135.31-109.69 245-245 245s-245-109.69-245-245a243.8 243.8 0 0 1 36.15-128.15z" fill="#f7643c"/><path d="m51 256a244.919 244.919 0 0 1 224.948-244.188q-9.87-.795-19.948-.812a244.914 244.914 0 0 0 -245 245c0 135.31 109.69 245 245 245q10.1 0 20-.816c-125.954-10.178-225-115.609-225-244.184z" fill="#ffaa4d"/><circle cx="134" cy="149" fill="#cc5a26" r="82"/><circle cx="287.5" cy="243.5" fill="#cc5a26" r="49.5"/><circle cx="365.5" cy="371.5" fill="#cc5a26" r="57.5"/><path d="m108.5 332a62.5 62.5 0 0 0 -61.566 51.785 246.269 246.269 0 0 0 68.42 72.833 62.5 62.5 0 0 0 -6.854-124.618z" fill="#cc5a26"/><path d="m438.5 92.55v-.01a245.6 245.6 0 0 0 -87.65-62.5q-2.969-1.248-5.978-2.416a70.5 70.5 0 1 0 97.928 69.876q-2.118-2.5-4.3-4.95z" fill="#cc5a26"/><circle cx="371.5" cy="93.5" fill="#fcc251" r="20.5"/><circle cx="364.5" cy="373.5" fill="#fcc251" r="15.5"/><circle cx="287.5" cy="243.5" fill="#fcc251" r="18.5"/><circle cx="111" cy="392" fill="#fcc251" r="29"/><path d="m52.218 119.965c-.138 1.494-.218 3-.218 4.535a48.478 48.478 0 1 0 36.069-46.885 246.3 246.3 0 0 0 -35.851 42.35z" fill="#fcc251"/><g fill="#b54418"><path d="m318.214 125.38a6 6 0 0 0 -10.342 6.086 73.389 73.389 0 0 0 112.615 17.147 6 6 0 1 0 -8.071-8.881 61.389 61.389 0 0 1 -94.2-14.352z"/><path d="m344.325 95.525a24.4 24.4 0 0 0 24.375 24.375 6 6 0 0 0 0-12 12.375 12.375 0 0 1 0-24.75 6 6 0 0 0 0-12 24.4 24.4 0 0 0 -24.375 24.375z"/><path d="m287.85 268.125a6 6 0 0 0 0-12 12.375 12.375 0 1 1 12.375-12.375 6 6 0 0 0 12 0 24.375 24.375 0 1 0 -24.375 24.375z"/><path d="m342.85 243.75a54.512 54.512 0 0 0 -5.323-23.631 6 6 0 1 0 -10.833 5.161 42.6 42.6 0 0 1 4.156 18.47 43 43 0 1 1 -75.574-28.071 6 6 0 1 0 -9.086-7.839 55 55 0 1 0 96.66 35.91z"/><path d="m287.85 200.75a43.03 43.03 0 0 1 27.635 10.055 6 6 0 0 0 7.718-9.19 55.053 55.053 0 0 0 -35.353-12.865 6 6 0 0 0 0 12z"/><path d="m165.921 362.076a6 6 0 0 0 -3.29 7.822 55.509 55.509 0 0 1 .965 39.163 6 6 0 1 0 11.322 3.974 67.507 67.507 0 0 0 -1.175-47.669 6 6 0 0 0 -7.822-3.29z"/><path d="m136.738 328.418a6 6 0 1 0 -4.515 11.119 54.973 54.973 0 0 1 18.982 12.845 6 6 0 0 0 8.634-8.334 66.913 66.913 0 0 0 -23.101-15.63z"/><path d="m148.087 390.75a6 6 0 0 0 -12 0 24.625 24.625 0 1 1 -24.625-24.625 6 6 0 0 0 0-12 36.625 36.625 0 1 0 36.625 36.625z"/><path d="m219.25 140.975a6 6 0 0 0 -6 6 79.776 79.776 0 0 1 -117.795 70.108 6 6 0 0 0 -5.734 10.542 91.777 91.777 0 0 0 135.529-80.65 6 6 0 0 0 -6-6z"/><path d="m313.45 371.15a51.64 51.64 0 0 1 6.175-24.5 6 6 0 1 0 -10.555-5.708 63.609 63.609 0 0 0 11 75.157 6 6 0 0 0 8.485-8.485 51.238 51.238 0 0 1 -15.105-36.464z"/><path d="m417.617 395.373a6 6 0 0 0 -8.224 2.09 51.862 51.862 0 0 1 -44.368 25.262 51.341 51.341 0 0 1 -18.837-3.546 6 6 0 1 0 -4.385 11.17 63.646 63.646 0 0 0 77.905-26.749 6 6 0 0 0 -2.091-8.227z"/><path d="m365.025 307.575a6 6 0 0 0 0 12 51.633 51.633 0 0 1 51.575 51.575 6 6 0 0 0 12 0 63.647 63.647 0 0 0 -63.575-63.575z"/><path d="m362.575 368.575a6 6 0 0 0 0-12 18.25 18.25 0 0 0 0 36.5 6 6 0 0 0 0-12 6.25 6.25 0 0 1 0-12.5z"/><path d="m297.775 94.3a74.049 74.049 0 0 0 1.25 13.554 6 6 0 0 0 5.892 4.9 6.077 6.077 0 0 0 1.108-.1 6 6 0 0 0 4.8-7 62 62 0 0 1 -1.05-11.354 61.134 61.134 0 0 1 42.881-58.541 5.982 5.982 0 0 0 3.686-3.32c-1.821-.818-3.648-1.624-5.492-2.4l-.022-.009q-4.111-1.729-8.3-3.307a73.052 73.052 0 0 0 -44.753 67.577z"/><path d="m432.5 92.7c.014.534.021 1.068.021 1.605a61 61 0 0 1 -4.82 23.888 6 6 0 1 0 11.051 4.675 72.707 72.707 0 0 0 5.579-23.525c-.511-.614-1.014-1.233-1.531-1.841q-2.123-2.5-4.3-4.945v-.01c-1.333-1.488-2.692-2.952-4.06-4.407a5.982 5.982 0 0 0 -1.94 4.56z"/><path d="m153.476 435.708a6 6 0 0 0 -8.413-1.105 54.728 54.728 0 0 1 -33.613 11.397 6 6 0 0 0 -5.523 3.655c1.156.9 2.313 1.8 3.485 2.672 2.5 1.869 5.048 3.673 7.619 5.447a66.517 66.517 0 0 0 35.34-13.653 6 6 0 0 0 1.105-8.413z"/><path d="m56.222 389.155a55.33 55.33 0 0 1 34.07-49.461 6 6 0 1 0 -4.6-11.084 67.367 67.367 0 0 0 -40.706 51.924q2.535 4.286 5.231 8.462c.116.179.235.356.351.535q1.462 2.244 2.971 4.454a5.989 5.989 0 0 0 2.683-4.83z"/><path d="m60.669 202.783a6 6 0 1 0 9.52-7.306 78.84 78.84 0 0 1 -15.889-39.114 55.106 55.106 0 0 0 41.226 18.662c.462 0 .928-.006 1.392-.018a55.036 55.036 0 0 0 50.134-74.26 6 6 0 1 0 -11.239 4.2 43.009 43.009 0 1 1 -82.741 21.953 5.978 5.978 0 0 0 -2.706-4.106c-1.088 1.675-2.168 3.356-3.216 5.059-1.626 2.643-3.184 5.33-4.71 8.038a92.412 92.412 0 0 0 -.69 11.087 90.9 90.9 0 0 0 18.919 55.805z"/><path d="m95.438 78.039c11.873-.293 21.5 3.153 29.432 10.555a6 6 0 0 0 8.19-8.77 50.037 50.037 0 0 0 -17.216-10.618 79.755 79.755 0 0 1 84.671 34.518 6 6 0 1 0 10.076-6.518 91.886 91.886 0 0 0 -98.541-39.457 246.5 246.5 0 0 0 -21.676 17.74 5.954 5.954 0 0 0 5.064 2.55z"/></g></svg>