<svg id="Layer_1" height="512" viewBox="0 0 512 512" width="512" xmlns="http://www.w3.org/2000/svg" data-name="Layer 1"><path d="m43.94 385.93v25.49a27.92 27.92 0 0 0 27.92 27.92h368.28a27.92 27.92 0 0 0 27.92-27.92v-25.49z" fill="#5f6a78"/><path d="m200.6 439.34h110.8v66.02h-110.8z" fill="#475673"/><path d="m440.14 142.64h-368.28a27.92 27.92 0 0 0 -27.92 27.92v215.37h424.12v-215.37a27.92 27.92 0 0 0 -27.92-27.92zm-19.14 124.72a.5.5 0 0 1 -.5-.5.5.5 0 0 1 1 0 .5.5 0 0 1 -.5.5z" fill="#e5f5fd"/><path d="m187.41 335.22a13.906 13.906 0 0 1 27.81.18v3.21a17.11 17.11 0 1 0 34.22 0v-94.21h28.24v94.21a17.11 17.11 0 1 0 34.22 0v-11.34a14.334 14.334 0 0 1 28.46-2.42 21.374 21.374 0 0 1 36.99 14.61l.55 1.26a30.008 30.008 0 0 1 38.34 45.21h-322.76a30.01 30.01 0 0 1 45.86-38.16l.16-.18a25.514 25.514 0 0 1 47.91-12.37zm161.59 26.14a1 1 0 1 0 -1 1 1 1 0 0 0 1-1zm-180-10a1 1 0 1 0 -1 1 1 1 0 0 0 1-1z" fill="#ed6337"/><path d="m353.39 261.51h20.54v18.06h-20.54z" fill="#50a6ea"/><path d="m306.34 244.4v14.64 2.47h67.59v-2.47-14.64z" fill="#a6b7d0"/><path d="m361.53 190.92a42.241 42.241 0 0 0 -29.95-12.4 25.24 25.24 0 0 1 -25.24-25.24v91.12h67.59v-23.53a42.258 42.258 0 0 0 -12.4-29.95z" fill="#50a6ea"/><path d="m306.34 261.51h20.53v18.06h-20.53z" fill="#50a6ea"/><path d="m306.34 235.94v8.46h-28.66v-28.73-.09h28.66z" fill="#7f8a98"/><path d="m302.38 61.09c-2.62-9.77-6.55-19.33-11.75-34.94a28.535 28.535 0 0 0 -54.14 0c-10.41 31.22-15.71 38.24-15.71 71.14v118.29h85.56v-118.29c0-16.45-1.33-26.43-3.96-36.2z" fill="#a0eaea"/><path d="m277.68 215.67v28.73h-28.24v-28.73-.09h28.24z" fill="#a6b7d0"/><path d="m249.44 215.67v28.73h-28.66v-8.46-20.36h28.66z" fill="#7f8a98"/><path d="m200.25 261.51h20.53v18.06h-20.53z" fill="#50a6ea"/><path d="m153.19 244.4v14.64 2.47h67.59v-2.47-14.64z" fill="#a6b7d0"/><path d="m195.54 178.52a42.336 42.336 0 0 0 -42.35 42.35v23.53h67.59v-91.12a25.24 25.24 0 0 1 -25.24 25.24z" fill="#50a6ea"/><path d="m153.19 261.51h20.53v18.06h-20.53z" fill="#50a6ea"/><path d="m73.94 411.42v-25.49h-30v25.49a27.92 27.92 0 0 0 27.92 27.92h30a27.92 27.92 0 0 1 -27.92-27.92z" fill="#475673"/><path d="m101.86 142.64h-30a27.92 27.92 0 0 0 -27.92 27.92v215.37h30v-215.37a27.92 27.92 0 0 1 27.92-27.92z" fill="#a6b7d0"/><path d="m266.49 26.15a27.906 27.906 0 0 1 12.07-15.363 29 29 0 0 0 -15-4.147 28.012 28.012 0 0 0 -27.07 19.51c-10.41 31.22-15.71 38.24-15.71 71.14v118.29h30v-118.29c0-32.9 5.3-39.92 15.71-71.14z" fill="#81ccca"/><path d="m346.824 511.356h-176.624a6 6 0 0 1 0-12h176.624a6 6 0 1 1 0 12z" fill="#5f6a78"/><path d="m290.627 83.491a6 6 0 0 1 -5.691-4.1c-3.787-11.361-13.526-15.408-21.377-15.408s-17.591 4.047-21.378 15.408a6 6 0 0 1 -11.384-3.8 34.534 34.534 0 0 1 65.523 0 6.006 6.006 0 0 1 -5.693 7.9z" fill="#6fbcb8"/><g fill="#ccd3df"><path d="m401 303.356a6.5 6.5 0 1 1 6.5-6.5 6.508 6.508 0 0 1 -6.5 6.5z"/><path d="m400.5 285.356a6 6 0 0 1 -6-6v-41a6 6 0 0 1 12 0v41a6 6 0 0 1 -6 6z"/><path d="m421 273.356a6.5 6.5 0 1 1 6.5-6.5 6.508 6.508 0 0 1 -6.5 6.5z"/><path d="m420.5 189.124a6 6 0 0 1 -6-6v-10.768a6 6 0 0 1 12 0v10.768a6 6 0 0 1 -6 6z"/><path d="m420.5 255.356a6 6 0 0 1 -6-6v-43.78a6 6 0 0 1 12 0v43.78a6 6 0 0 1 -6 6z"/><path d="m106 307.356a6.5 6.5 0 1 1 6.5-6.5 6.508 6.508 0 0 1 -6.5 6.5z"/><path d="m105.5 289.356a6 6 0 0 1 -6-6v-41a6 6 0 0 1 12 0v41a6 6 0 0 1 -6 6z"/><path d="m126 277.356a6.5 6.5 0 1 1 6.5-6.5 6.508 6.508 0 0 1 -6.5 6.5z"/><path d="m125.5 193.124a6 6 0 0 1 -6-6v-10.768a6 6 0 0 1 12 0v10.768a6 6 0 0 1 -6 6z"/><path d="m125.5 259.356a6 6 0 0 1 -6-6v-43.78a6 6 0 0 1 12 0v43.78a6 6 0 0 1 -6 6z"/></g><path d="m348 368.356a7 7 0 1 1 7-7 7.008 7.008 0 0 1 -7 7z" fill="#ce4925"/><path d="m228 318.356a7 7 0 1 1 7-7 7.008 7.008 0 0 1 -7 7z" fill="#ccd3df"/><path d="m168 358.356a7 7 0 1 1 7-7 7.008 7.008 0 0 1 -7 7z" fill="#ce4925"/></svg>