<svg id="Layer_1" height="512" viewBox="0 0 512 512" width="512" xmlns="http://www.w3.org/2000/svg" data-name="Layer 1"><path d="m18.17 223.6v-.01c15.82-117.22 116.27-207.59 237.83-207.59a240 240 0 0 1 237.83 207.59v.01a241.813 241.813 0 0 1 -9.07 105.19c-30.82 96.96-121.58 167.21-228.76 167.21-107.06 0-197.74-70.09-228.66-166.89a239.685 239.685 0 0 1 -11.34-73.11 242.19 242.19 0 0 1 2.17-32.4z" fill="#9163c6"/><path d="m57.34 329.11a239.685 239.685 0 0 1 -11.34-73.11 242.19 242.19 0 0 1 2.17-32.4v-.01c15.169-112.4 108.156-200.1 222.949-207.121q-7.5-.469-15.119-.469c-121.56 0-222.01 90.37-237.83 207.59v.01a242.19 242.19 0 0 0 -2.17 32.4 239.685 239.685 0 0 0 11.34 73.11c30.92 96.8 121.6 166.89 228.66 166.89q7.557 0 15-.462c-100.461-6.194-184.195-74.183-213.66-166.428z" fill="#bc8dff"/><g fill="#7952af"><path d="m127.76 82.97a245.933 245.933 0 0 0 38.249 19.049c5.713 2.246 11.585 4.3 17.452 6.11a6 6 0 0 0 3.539-11.468c-5.58-1.72-11.163-3.674-16.595-5.81a233.834 233.834 0 0 1 -36.377-18.116 6 6 0 1 0 -6.268 10.235z"/><path d="m348.927 94.429a6 6 0 0 0 -7.773-3.4 232.8 232.8 0 0 1 -55.439 14.107 238.226 238.226 0 0 1 -65.05-.781 6 6 0 1 0 -1.8 11.864 248.779 248.779 0 0 0 37.135 2.781 249.437 249.437 0 0 0 31.224-1.963 244.809 244.809 0 0 0 58.3-14.835 6 6 0 0 0 3.403-7.773z"/><path d="m371.6 83.463a6 6 0 0 0 8.206 2.159 247.472 247.472 0 0 0 24.5-16.337 6 6 0 0 0 1.114-1.109q-2.34-1.866-4.73-3.676c-1.672-1.265-3.367-2.5-5.073-3.722a235 235 0 0 1 -21.862 14.479 6 6 0 0 0 -2.155 8.206z"/><path d="m73.521 172.618a6 6 0 0 0 3.679-10.742 294.7 294.7 0 0 1 -27.678-24.4 5.934 5.934 0 0 0 -1.614-1.122q-3.027 5.252-5.793 10.669a306.62 306.62 0 0 0 27.731 24.337 5.973 5.973 0 0 0 3.675 1.258z"/><path d="m256 223a292.429 292.429 0 0 1 -138.687-34.972 6 6 0 0 0 -5.708 10.556 304.464 304.464 0 0 0 144.395 36.416 6 6 0 0 0 0-12z"/><path d="m354.2 206.08c-8.378 2.991-17 5.625-25.614 7.829a6 6 0 1 0 2.974 11.626c8.975-2.3 17.95-5.039 26.674-8.153a305.989 305.989 0 0 0 111.643-70.35q-2.79-5.463-5.847-10.763a5.936 5.936 0 0 0 -1.311.966 293.892 293.892 0 0 1 -108.519 68.845z"/><path d="m93.356 300.877a6 6 0 1 0 6.429-10.132 292.444 292.444 0 0 1 -76.828-70.778 5.983 5.983 0 0 0 -3.905-2.313q-.476 2.957-.882 5.936v.01q-.572 4.232-.99 8.508a304.263 304.263 0 0 0 76.176 68.769z"/><path d="m256 336c-9.149 0-18.383-.428-27.445-1.272a289.907 289.907 0 0 1 -91.149-23.815 6 6 0 1 0 -4.879 10.964 301.906 301.906 0 0 0 94.914 24.8c9.432.879 19.04 1.324 28.559 1.324a6 6 0 0 0 0-12z"/><path d="m413.623 289.846a289.455 289.455 0 0 1 -96.584 39.766 6 6 0 0 0 1.242 11.87 6.063 6.063 0 0 0 1.254-.133 301.4 301.4 0 0 0 100.574-41.407 6 6 0 0 0 -6.486-10.1z"/><path d="m493.83 223.59q-.4-2.98-.879-5.937a5.98 5.98 0 0 0 -3.908 2.314 293.9 293.9 0 0 1 -50.556 52 6 6 0 0 0 7.5 9.363 305.9 305.9 0 0 0 48.828-49.225q-.423-4.273-.99-8.5z"/><path d="m90.158 392.821a6 6 0 0 0 6.555-10.052 293.219 293.219 0 0 1 -64.774-57.513 6 6 0 0 0 -6.346-1.892c.562 1.924 1.138 3.842 1.747 5.746q2.479 7.764 5.477 15.288a305.126 305.126 0 0 0 57.341 48.423z"/><path d="m169.971 417.123c-5.689-1.752-11.4-3.706-16.979-5.809-5.227-1.971-10.47-4.124-15.583-6.4a6 6 0 1 0 -4.879 10.963c5.324 2.37 10.784 4.612 16.229 6.664 5.808 2.19 11.757 4.225 17.681 6.049a6 6 0 1 0 3.531-11.468z"/><path d="m480.324 324.737a278.779 278.779 0 0 1 -35.934 36.37c-6.667 5.636-13.667 11.035-20.806 16.046a290.193 290.193 0 0 1 -114.213 47.982 294.662 294.662 0 0 1 -53.371 4.865 296.089 296.089 0 0 1 -36.126-2.212 6 6 0 1 0 -1.47 11.91 308.336 308.336 0 0 0 37.596 2.302 306.738 306.738 0 0 0 55.551-5.064 302.5 302.5 0 0 0 118.928-49.962c7.432-5.216 14.718-10.836 21.658-16.7a290.13 290.13 0 0 0 27.1-26.01q3.014-7.614 5.525-15.472c.633-1.99 1.231-4 1.813-6.009a6 6 0 0 0 -6.251 1.954z"/></g></svg>