<svg id="Layer_1" height="512" viewBox="0 0 512 512" width="512" xmlns="http://www.w3.org/2000/svg" data-name="Layer 1"><path d="m488.7 124a89.753 89.753 0 0 1 -5.42 30.83l-38.08-107.9a89.945 89.945 0 0 1 43.5 77.07z" fill="#50a6ea"/><path d="m441.17 35.5-43.86 15.48 44.93 127.31 43.86-15.47z" fill="#e5f5fd"/><path d="m436.61 162.35-33.67-95.42-136.99 48.34a140.251 140.251 0 0 1 22.48 99.38z" fill="#a6b7d0"/><path d="m423.25 255.33c-2.15 26.7-90.85 48.17-199.95 48.17s-197.8-21.47-199.95-48.17h-.05v172c0 26.34 84.18 47.83 190 49.11v-.11l60-1.38c86.27-5.46 150-24.71 150-47.62v-172z" fill="#50a6ea"/><path d="m355.79 217.5-271.71 1.83-2.2.24c-36.19 8.89-58.58 21.19-58.58 34.76a8.372 8.372 0 0 0 .05 1c2.15 26.7 90.85 48.17 199.95 48.17s197.8-21.47 199.95-48.17a8.372 8.372 0 0 0 .05-1c0-14.66-26.1-27.82-67.51-36.83z" fill="#72bcef"/><path d="m329.85 200.03 30.02-10.6a142.331 142.331 0 0 1 -4.08 28.07 139.9 139.9 0 0 1 -20.22 45.32q-12.195 1.26-25.04 2.17a139.294 139.294 0 0 0 19.32-64.96z" fill="#e5f5fd"/><path d="m288.43 214.65 41.42-14.62a139.294 139.294 0 0 1 -19.32 64.96c-13.3.95-27.07 1.63-41.21 2a138.918 138.918 0 0 0 19.11-52.34z" fill="#475673"/><path d="m288.43 214.65a138.918 138.918 0 0 1 -19.11 52.34q-12.825.33-26.02.34c-54.03 0-103.9-4.39-144.01-11.79a140.226 140.226 0 0 1 227.89-161.88l-29.63 10.46-.01-.02a139.98 139.98 0 0 0 -107.49-50.48 3.053 3.053 0 0 0 -.6.06 2.867 2.867 0 0 0 -.26 5.56 140.2 140.2 0 0 1 99.24 155.41z" fill="#e5f5fd"/><path d="m297.54 104.1.01.02-31.6 11.15a140.513 140.513 0 0 0 -76.76-56.03 2.867 2.867 0 0 1 .26-5.56 3.053 3.053 0 0 1 .6-.06 139.98 139.98 0 0 1 107.49 50.48z" fill="#475673"/><path d="m273.3 376.33v98.62c-15.98 1.01-32.73 1.55-50 1.55-3.35 0-6.69-.02-10-.06v-100.11z" fill="#4a7cba"/><path d="m53.3 427.33v-147.085c-18.345-7.26-29.214-15.781-29.95-24.915h-.05v172c0 26.34 84.18 47.83 190 49.11v-.11l12.614-.29c-97.505-3.281-172.614-23.83-172.614-48.71z" fill="#4a7cba"/><path d="m219.75 43.62a140.1 140.1 0 0 0 -120.46 211.92l32 5a179.8 179.8 0 0 1 -17.21-41.21 140.238 140.238 0 0 1 73.529-161.23 2.888 2.888 0 0 1 1.841-4.421 3.053 3.053 0 0 1 .6-.06c2.379.005 4.742.079 7.092.2a139.444 139.444 0 0 1 37.591-9.4 141.789 141.789 0 0 0 -14.983-.799z" fill="#a6b7d0"/><path d="m346.813 122.115a6 6 0 0 1 -2.032-11.647l33.375-12.014a6 6 0 0 1 4.064 11.291l-33.375 12.014a5.978 5.978 0 0 1 -2.032.356z" fill="#ccd3df"/><path d="m312.334 134.047a6 6 0 0 1 -1.9-11.692l12.547-4.192a6 6 0 1 1 3.8 11.381l-12.547 4.193a6.016 6.016 0 0 1 -1.9.31z" fill="#ccd3df"/><path d="m258.3 434.333a8 8 0 1 1 8-8 8.009 8.009 0 0 1 -8 8z" fill="#475673"/><g fill="#869bb5"><path d="m112.362 161.5a6 6 0 0 1 -5.884-7.2 145.371 145.371 0 0 1 31.482-64.776 6 6 0 1 1 9.166 7.745 133.417 133.417 0 0 0 -28.893 59.431 6 6 0 0 1 -5.871 4.8z"/><path d="m110.43 205.972a6 6 0 0 1 -5.953-5.313 148.042 148.042 0 0 1 -.971-16.919 6 6 0 0 1 12 0 136.117 136.117 0 0 0 .891 15.543 6 6 0 0 1 -5.272 6.649 6.284 6.284 0 0 1 -.695.04z"/></g></svg>