<svg id="Layer_1" height="512" viewBox="0 0 512 512" width="512" xmlns="http://www.w3.org/2000/svg" data-name="Layer 1"><path d="m485.02 320.96v173.99h-42.61v-173.99-.35h42.61z" fill="#6d7486"/><path d="m26.98 256.7h458.04v63.91h-458.04z" fill="#e5f5fd"/><path d="m458.39 220.48a203.906 203.906 0 0 1 -3.23 36.22h-85.82a299.1 299.1 0 0 0 2.17-36.22 295.576 295.576 0 0 0 -2.69-40.18 318.263 318.263 0 0 0 73.54-38.9 201.766 201.766 0 0 1 16.03 79.08z" fill="#5fa8ed"/><path d="m442.41 320.96v173.99h-88.94v-173.99-.35h88.94z" fill="#a0eaea"/><path d="m383.32 63.15a202.967 202.967 0 0 1 59.04 78.25 318.263 318.263 0 0 1 -73.54 38.9c-4.49-32.94-14.6-63.41-29.98-89.58a199.462 199.462 0 0 0 44.48-27.57z" fill="#4689d3"/><path d="m371.51 220.48a299.1 299.1 0 0 1 -2.17 36.22h-113.34v-56.34h.31a322.285 322.285 0 0 0 112.51-20.06 295.576 295.576 0 0 1 2.69 40.18z" fill="#4689d3"/><path d="m368.82 180.3a322.285 322.285 0 0 1 -112.51 20.06h-.31v-92a201.243 201.243 0 0 0 82.84-17.64c15.38 26.17 25.49 56.64 29.98 89.58z" fill="#5fa8ed"/><path d="m321.51 320.61v.35 173.99h31.96v-173.99-.35z" fill="#6d7486"/><path d="m383.32 63.15a199.462 199.462 0 0 1 -44.48 27.57c-18.46-31.46-44.53-56.71-77.59-72.56a201.384 201.384 0 0 1 122.07 44.99z" fill="#5fa8ed"/><path d="m338.84 90.72a201.243 201.243 0 0 1 -82.84 17.64v-90.27c1.76 0 3.51.02 5.25.07 33.06 15.85 59.13 41.1 77.59 72.56z" fill="#4689d3"/><path d="m256 427.13v-74.56h65.51v142.38h-65.51z" fill="#e5f5fd"/><path d="m190.49 320.61v.35 31.61h131.02v-31.61-.35z" fill="#ed6337"/><path d="m256 427.13v67.82h-65.51v-142.38h65.51z" fill="#a6b7d0"/><path d="m256 200.36v56.34h-113.34a299.1 299.1 0 0 1 -2.17-36.22 295.576 295.576 0 0 1 2.69-40.18 327.272 327.272 0 0 0 112.82 20.06z" fill="#5fa8ed"/><path d="m256 108.36v92a327.272 327.272 0 0 1 -112.82-20.06c4.48-32.87 14.56-63.27 29.88-89.41a204.407 204.407 0 0 0 82.94 17.47z" fill="#4689d3"/><path d="m256 36.49v71.87a204.407 204.407 0 0 1 -82.94-17.47c18.47-31.53 44.57-56.85 77.69-72.73 1.74-.05 3.49-.07 5.25-.07z" fill="#5fa8ed"/><path d="m158.53 320.61v.35 173.99h31.96v-173.99-.35z" fill="#6d7486"/><path d="m128.22 63.52a201.481 201.481 0 0 1 122.53-45.36c-33.12 15.88-59.22 41.2-77.69 72.73a201.355 201.355 0 0 1 -44.84-27.37z" fill="#4689d3"/><path d="m173.06 90.89c-15.32 26.14-25.4 56.54-29.88 89.41a322.212 322.212 0 0 1 -73.7-38.52 203.077 203.077 0 0 1 57.78-77.48l.96-.78a201.355 201.355 0 0 0 44.84 27.37z" fill="#5fa8ed"/><path d="m158.53 320.96v173.99h-88.94v-173.99-.35h88.94z" fill="#a0eaea"/><path d="m142.66 256.7h-85.82a203.906 203.906 0 0 1 -3.23-36.22 201.8 201.8 0 0 1 15.87-78.7 322.212 322.212 0 0 0 73.7 38.52 295.576 295.576 0 0 0 -2.69 40.18 299.1 299.1 0 0 0 2.17 36.22z" fill="#4689d3"/><path d="m69.59 320.96v173.99h-42.61v-173.99-.35h42.61z" fill="#6d7486"/><path d="m26.98 256.7h30v63.91h-30z" fill="#a6b7d0"/><path d="m218.25 38.461a173.264 173.264 0 0 1 32.5-20.3 201.481 201.481 0 0 0 -122.53 45.359 199.853 199.853 0 0 0 18.616 13.326c-.037-.03-.079-.056-.117-.086 20.414-16.638 45.639-30.604 71.531-38.299z" fill="#43a2ff"/><path d="m128.22 63.52-.96.78a203.077 203.077 0 0 0 -57.78 77.48q9.586 6.72 19.7 12.726a206.341 206.341 0 0 1 57.539-77.746 200.063 200.063 0 0 1 -18.499-13.24z" fill="#49bdff"/><path d="m73.61 232.48a201.8 201.8 0 0 1 15.567-77.957q-10.1-6.025-19.7-12.743a201.8 201.8 0 0 0 -15.87 78.7 203.906 203.906 0 0 0 3.23 36.22h18.218a204.512 204.512 0 0 1 -1.445-24.22z" fill="#43a2ff"/><path d="m501 500.95h-490a6 6 0 0 1 0-12h490a6 6 0 0 1 0 12z" fill="#ccd3df"/><path d="m275.552 433.131h-39.1a6 6 0 1 1 0-12h39.1a6 6 0 0 1 0 12z" fill="#4a5160"/><g fill="#ccd3df"><path d="m382.7 294.653h-.35a6 6 0 0 1 0-12h.35a6 6 0 0 1 0 12z"/><path d="m359.628 294.653h-140.995a6 6 0 0 1 0-12h140.995a6 6 0 0 1 0 12z"/><path d="m195.739 294.653h-66.439a6 6 0 0 1 0-12h66.436a6 6 0 1 1 0 12z"/><path d="m110.881 33.5a6 6 0 0 1 -3.126-11.126 208.731 208.731 0 0 1 20.845-11.125 6 6 0 0 1 5.038 10.892 196.672 196.672 0 0 0 -19.638 10.48 5.971 5.971 0 0 1 -3.119.879z"/><path d="m37.822 110.394a6 6 0 0 1 -5.273-8.854 208.208 208.208 0 0 1 50.892-61.863 6 6 0 0 1 7.639 9.255 196.259 196.259 0 0 0 -47.974 58.313 6 6 0 0 1 -5.284 3.149z"/></g></svg>