<svg id="Layer_1" enable-background="new 0 0 512 512" viewBox="0 0 512 512" xmlns="http://www.w3.org/2000/svg"><circle cx="256" cy="256" fill="#61c5e2" r="240"/><circle cx="163.5" cy="109.5" fill="#4eafc6" r="42.5"/><circle cx="229" cy="232" fill="#4eafc6" r="39"/><circle cx="229" cy="232" fill="#3090a0" r="23"/><circle cx="163.5" cy="113.5" fill="#3090a0" r="20.5"/><circle cx="221" cy="413" fill="#4eafc6" r="42"/><circle cx="217" cy="416" fill="#3090a0" r="22"/><circle cx="105" cy="296" fill="#4eafc6" r="39"/><circle cx="105" cy="296" fill="#3090a0" r="22"/><g fill="#3fa3ba"><path d="m185.9 358.6h-27c-3.3 0-6-2.7-6-6s2.7-6 6-6h27c3.3 0 6 2.7 6 6s-2.7 6-6 6z"/><path d="m137 358.6h-19.2c-3.3 0-6-2.7-6-6s2.7-6 6-6h19.2c3.3 0 6 2.7 6 6s-2.7 6-6 6z"/><path d="m300 420.3h-25.8c-3.3 0-6-2.7-6-6s2.7-6 6-6h25.8c3.3 0 6 2.7 6 6s-2.7 6-6 6z"/><path d="m157.1 420.3h-.5c-3.3 0-6-2.7-6-6s2.7-6 6-6h.5c3.3 0 6 2.7 6 6s-2.7 6-6 6z"/><path d="m240 482c-1.6 0-3.1-.6-4.2-1.8-.3-.3-.5-.6-.8-.9-.2-.3-.4-.7-.6-1-.2-.4-.3-.7-.3-1.1-.1-.4-.1-.8-.1-1.2 0-1.6.6-3.1 1.8-4.2.3-.3.6-.5.9-.8.3-.2.7-.4 1-.5.4-.2.7-.3 1.1-.3.8-.2 1.6-.2 2.3 0 .4.1.8.2 1.1.3.4.1.7.3 1 .5s.6.5.9.8c1.1 1.1 1.8 2.6 1.8 4.2 0 .4 0 .8-.1 1.2s-.2.8-.3 1.1c-.1.4-.3.7-.6 1-.2.3-.5.6-.8.9-1 1.2-2.5 1.8-4.1 1.8z"/><path d="m197 296.9h-22.9c-3.3 0-6-2.7-6-6s2.7-6 6-6h22.9c3.3 0 6 2.7 6 6s-2.7 6-6 6z"/><path d="m134.1 235.1h-40.1c-3.3 0-6-2.7-6-6s2.7-6 6-6h40.1c3.3 0 6 2.7 6 6s-2.7 6-6 6z"/><path d="m181.3 235.1h-26.9c-3.3 0-6-2.7-6-6s2.7-6 6-6h26.9c3.3 0 6 2.7 6 6s-2.7 6-6 6z"/><path d="m74.4 235.1h-.2c-3.3 0-6-2.7-6-6s2.7-6 6-6h.2c3.3 0 6 2.7 6 6s-2.7 6-6 6z"/><path d="m240 173.4h-14.3c-3.3 0-6-2.7-6-6s2.7-6 6-6h14.3c3.3 0 6 2.7 6 6s-2.7 6-6 6z"/><path d="m203.8 173.4h-.2c-3.3 0-6-2.7-6-6s2.7-6 6-6h.2c3.3 0 6 2.7 6 6s-2.7 6-6 6z"/><path d="m176.8 173.4h-109.4c-3.3 0-6-2.7-6-6s2.7-6 6-6h109.4c3.3 0 6 2.7 6 6s-2.7 6-6 6z"/><path d="m295.5 111.7h-.5c-3.3 0-6-2.7-6-6s2.7-6 6-6h.5c3.3 0 6 2.7 6 6s-2.7 6-6 6z"/><path d="m278.4 111.7h-27.6c-3.3 0-6-2.7-6-6s2.7-6 6-6h27.6c3.3 0 6 2.7 6 6s-2.7 6-6 6z"/><path d="m229.6 111.7h-.7c-3.3 0-6-2.7-6-6s2.7-6 6-6h.7c3.3 0 6 2.7 6 6s-2.7 6-6 6z"/><path d="m295 50c-3.4 0-6-2.7-6-6s2.7-6 6-6 6 2.7 6 6-2.7 6-6 6z"/><path d="m273.2 50h-.3c-3.3 0-6-2.7-6-6s2.7-6 6-6h.3c3.3 0 6 2.7 6 6s-2.7 6-6 6z"/><path d="m303 235h-16c-3.3 0-6-2.7-6-6s2.7-6 6-6h16c3.3 0 6 2.7 6 6s-2.7 6-6 6z"/></g><path d="m46 256c0-127.5 99.4-231.8 225-239.5-5-.3-10-.5-15-.5-132.5 0-240 107.5-240 240s107.5 240 240 240c5 0 10-.2 15-.5-125.6-7.7-225-112-225-239.5z" fill="#83e8ff"/><path d="m94.2 358.6c3.3 0 6-2.7 6-6s-2.7-6-6-6h-30.5c1.7 4.1 3.4 8.1 5.3 12z" fill="#3fa3ba"/><path d="m63.7 346.6h-27.5c-.8 0-1.6.2-2.3.5 1.6 3.9 3.3 7.7 5.1 11.5h30c-1.9-4-3.7-8-5.3-12z" fill="#3fa3ba"/><path d="m219 470h-59.1c-2.3 0-4.5 1.4-5.5 3.5 6.7 3.1 13.6 6 20.6 8.5h44c3.3 0 6-2.7 6-6s-2.7-6-6-6z" fill="#3fa3ba"/><path d="m51.3 290.9c0-2.3-1.4-4.5-3.5-5.4.4 3.3.9 6.6 1.4 9.9 1.3-1.2 2.1-2.8 2.1-4.5z" fill="#3fa3ba"/><path d="m49.2 295.3c-.5-3.3-1-6.6-1.4-9.9-.8-.4-1.7-.6-2.5-.6h-26.8c-.3 0-.5 0-.8.1.5 4 1.1 8 1.7 11.9h25.8c1.5.1 2.9-.5 4-1.5z" fill="#3fa3ba"/><path d="m52.9 235.1c3.3 0 6-2.7 6-6s-2.7-6-6-6h-4.7c-.5 4-1 8-1.3 12z" fill="#3fa3ba"/><path d="m46.9 235.1c.3-4 .8-8 1.3-12h-30c-.5 4-1 8-1.3 12h.6z" fill="#3fa3ba"/><path d="m47.4 173.4c3.3 0 6-2.7 6-6s-2.7-6-6-6h-12c-1.6 3.8-3.2 7.7-4.6 11.6.7.3 1.4.4 2.1.4z" fill="#3fa3ba"/><path d="m98 111.7c3.3 0 6-2.7 6-6 0-1.6-.6-3.1-1.7-4.2-2.8 3.3-5.5 6.7-8.1 10.2z" fill="#3fa3ba"/><path d="m94.2 111.7c2.6-3.5 5.3-6.9 8.1-10.2-1.1-1.2-2.7-1.8-4.3-1.8h-24.1c-3 3.5-5.9 7-8.6 10.7 1.1.9 2.4 1.3 3.8 1.3z" fill="#3fa3ba"/><path d="m249.8 38h-94.3c-5.9 2.7-11.7 5.7-17.4 8.9 1.1 1.9 3.1 3.1 5.3 3.1h106.4c3.3 0 6-2.7 6-6s-2.7-6-6-6z" fill="#3fa3ba"/></svg>