<svg id="Layer_1" height="512" viewBox="0 0 512 512" width="512" xmlns="http://www.w3.org/2000/svg" data-name="Layer 1"><path d="m256 16c132.55 0 240 107.45 240 240s-107.45 240-240 240-240-107.45-240-240 107.45-240 240-240z" fill="#e5f5fd"/><path d="m165.1 179.88-50.01-50.38a10 10 0 0 1 14.14-14.14s99.03 99.03 99.14 98.96a49.983 49.983 0 1 1 -14.48 14.71z" fill="#72bcef"/><path d="m46 256c0-127.51 99.44-231.775 225-239.52-4.962-.306-9.96-.48-15-.48-132.55 0-240 107.45-240 240s107.45 240 240 240c5.04 0 10.038-.174 15-.48-125.56-7.745-225-112.01-225-239.52z" fill="#a6b7d0"/><path d="m256 442c-102.561 0-186-83.439-186-186a185.693 185.693 0 0 1 47.218-123.839 6 6 0 1 1 8.951 7.992 173.714 173.714 0 0 0 -44.169 115.847c0 95.944 78.056 174 174 174s174-78.056 174-174a172.864 172.864 0 0 0 -50.963-123.037 6 6 0 1 1 8.484-8.485 184.784 184.784 0 0 1 54.479 131.522c0 102.561-83.439 186-186 186z" fill="#a6b7d0"/><path d="m372.235 291.433a6.005 6.005 0 0 1 -5.863-7.3 113.574 113.574 0 0 0 -30.662-105.471 6 6 0 0 1 8.484-8.485 125.521 125.521 0 0 1 33.893 116.557 6 6 0 0 1 -5.852 4.699z" fill="#a6b7d0"/><path d="m255.1 385.272a125.178 125.178 0 0 1 -89.1-36.9c-47-47.013-49.348-122.793-5.331-172.526a6 6 0 0 1 8.987 7.953 114 114 0 0 0 166.053 156.083c1.649-1.648 3.272-3.372 4.825-5.126a6 6 0 0 1 8.985 7.956c-1.714 1.935-3.506 3.838-5.326 5.657a125.171 125.171 0 0 1 -89.093 36.903z" fill="#a6b7d0"/><path d="m385.752 287.5a36 36 0 1 0 10.548 25.456 36.04 36.04 0 0 0 -10.548-25.456z" fill="#ed6337"/><g fill="#50dd5a"><path d="m256 188a10 10 0 1 1 10-10 10.011 10.011 0 0 1 -10 10z"/><path d="m256 58a10 10 0 1 1 10-10 10.011 10.011 0 0 1 -10 10z"/><path d="m256 118a10 10 0 1 1 10-10 10.011 10.011 0 0 1 -10 10z"/><path d="m256 476.8a10 10 0 1 1 10-10 10.011 10.011 0 0 1 -10 10z"/><path d="m256 413.8a10 10 0 1 1 10-10 10.011 10.011 0 0 1 -10 10z"/><path d="m256 346.8a10 10 0 1 1 10-10 10.011 10.011 0 0 1 -10 10z"/></g><path d="m255.4 267.4a10 10 0 1 1 10-10 10.011 10.011 0 0 1 -10 10z" fill="#3090fc"/><path d="m335.4 267.4a10 10 0 1 1 10-10 10.011 10.011 0 0 1 -10 10z" fill="#50dd5a"/><path d="m465.4 267.4a10 10 0 1 1 10-10 10.011 10.011 0 0 1 -10 10z" fill="#50dd5a"/><path d="m405.4 267.4a10 10 0 1 1 10-10 10.011 10.011 0 0 1 -10 10z" fill="#50dd5a"/><path d="m46.6 267.4a10 10 0 1 1 10-10 10.01 10.01 0 0 1 -10 10z" fill="#50dd5a"/><path d="m109.6 267.4a10 10 0 1 1 10-10 10.01 10.01 0 0 1 -10 10z" fill="#50dd5a"/><path d="m176.6 267.4a10 10 0 1 1 10-10 10.01 10.01 0 0 1 -10 10z" fill="#50dd5a"/><path d="m360.3 320.956a8 8 0 1 1 8-8 8.009 8.009 0 0 1 -8 8z" fill="#d8ff33"/></svg>