<svg id="Layer_1" height="512" viewBox="0 0 512 512" width="512" xmlns="http://www.w3.org/2000/svg" data-name="Layer 1"><path d="m454.71 34h-332.68c-10.68 0-19.03 8.87-19.03 19.55v249.45l15 141 61.48 30.055 275.23.945a19.123 19.123 0 0 0 19.29-19.14v-402.31a19.473 19.473 0 0 0 -19.29-19.55z" fill="#5f6a78"/><path d="m419.53 87h-262.31c-5.34 0-9.22 4.81-9.22 10.15v199.3l92.08 125.55h132.98l55.94-56.21v-268.64c0-5.34-4.13-10.15-9.47-10.15z" fill="#e5f5fd"/><path d="m215.95 329.52a102.64 102.64 0 0 1 24.13 92.42c-.54 2.31-1.16 4.6-1.85 6.85l-2.38.24c-.24.03-.48.04-.71.05l-2.49.12a17.2 17.2 0 0 0 -15.06 10.33l-.64 1.45a13.572 13.572 0 0 1 -12.43 8.12h-10.56a4.889 4.889 0 0 1 -4.88-4.42l-.43-4.22a17.1 17.1 0 0 0 -7.8-12.76 6.042 6.042 0 0 1 -2.77-5.09v-4.23a8.271 8.271 0 0 1 2.8-6.2l18.04-15.94a17.768 17.768 0 0 0 5.23-18.44 18.106 18.106 0 0 0 -15.11-12.72l-1.83-.23a8.849 8.849 0 0 1 -5.61-2.97 5.026 5.026 0 0 1 -.61-5.78l3.78-6.46a129.8 129.8 0 0 1 16.42-22.24l4.08-5.69.22-2.14a104.62 104.62 0 0 1 10.46 9.95z" fill="#d8ff33"/><path d="m102.69 303.34a101.985 101.985 0 0 1 37.66-7.15c2.42 0 4.82.08 7.2.26a102.232 102.232 0 0 1 57.94 23.12l-.22 2.14-4.08 5.69a129.8 129.8 0 0 0 -16.42 22.24l-3.78 6.46a5.026 5.026 0 0 0 .61 5.78 8.849 8.849 0 0 0 5.61 2.97l1.83.23a18.106 18.106 0 0 1 15.11 12.72 17.768 17.768 0 0 1 -5.23 18.44l-18.04 15.94a8.271 8.271 0 0 0 -2.8 6.2v4.23a6.042 6.042 0 0 0 2.77 5.09 17.1 17.1 0 0 1 7.8 12.76l.43 4.22a4.889 4.889 0 0 0 4.88 4.42h10.56a13.572 13.572 0 0 0 12.43-8.12l.64-1.45a17.2 17.2 0 0 1 15.06-10.33l2.49-.12c.23-.01.47-.02.71-.05l2.38-.24a102.418 102.418 0 0 1 -200.28-30.19c0-2.45.09-4.89.26-7.3l1.27.08 1.4-.27a16.215 16.215 0 0 1 17.13 7.77 16.467 16.467 0 0 0 2.94 3.7l7.28 6.86a10.984 10.984 0 0 0 4.61 2.58l.85.23a14.8 14.8 0 0 1 10.33 10.29l3.91 14.08a13.594 13.594 0 0 0 2.32 4.68l11.82 15.5a14.95 14.95 0 0 1 2.86 6.61l3.22 19.29a2.826 2.826 0 0 0 .99 1.76 2.731 2.731 0 0 0 2.78.39 5.457 5.457 0 0 0 3.32-4.52 19.554 19.554 0 0 1 4.52-10.7l3.43-4.13a7.239 7.239 0 0 0 1.34-2.47l3.52-11.42a17.023 17.023 0 0 1 5.9-8.5l10.48-8.04a3.742 3.742 0 0 0 1.45-2.34 3.591 3.591 0 0 0 -.81-2.89l-6.97-8.21c-.42-.49-.82-.99-1.19-1.52l-5.33-7.43a15.456 15.456 0 0 0 -12.73-6.7 2.737 2.737 0 0 1 -1.45-.38l-10.89-6.54a10.585 10.585 0 0 0 -10.41-.25l-5.75 3.07a11.265 11.265 0 0 1 -14.85-3.9l-5.58-8.81a12.123 12.123 0 0 1 .21-13.29 13.638 13.638 0 0 1 13.08-5.91l8.37 1.06a7.524 7.524 0 0 0 7.47-3.58 13.219 13.219 0 0 1 13.1-6.47l3.66.47a7.46 7.46 0 0 0 6.81-2.83l3.22-4.18a10.9 10.9 0 0 0 .33-12.9l-6.95-10.02a32.173 32.173 0 0 0 -10.18-9.42 31.287 31.287 0 0 1 -3.06-2.04l-5.86-4.4-7.42-5.58-.89-1.67a100.6 100.6 0 0 1 10.88-5.07z" fill="#55d8d8"/><path d="m145.07 429.84a3.591 3.591 0 0 1 .81 2.89 3.742 3.742 0 0 1 -1.45 2.34l-10.48 8.04a17.023 17.023 0 0 0 -5.9 8.5l-3.52 11.42a7.239 7.239 0 0 1 -1.34 2.47l-3.43 4.13a19.554 19.554 0 0 0 -4.52 10.7 5.457 5.457 0 0 1 -3.32 4.52 2.731 2.731 0 0 1 -2.78-.39 2.826 2.826 0 0 1 -.99-1.76l-3.22-19.29a14.95 14.95 0 0 0 -2.86-6.61l-11.82-15.5a13.594 13.594 0 0 1 -2.32-4.68l-3.91-14.08a14.8 14.8 0 0 0 -10.33-10.29l-.85-.23a10.984 10.984 0 0 1 -4.61-2.58l-7.28-6.86a16.467 16.467 0 0 1 -2.94-3.7 16.215 16.215 0 0 0 -17.13-7.77l-1.4.27-1.27-.08a102.377 102.377 0 0 1 53.6-82.89l.89 1.67 7.42 5.58 5.86 4.4a31.287 31.287 0 0 0 3.06 2.04 32.173 32.173 0 0 1 10.18 9.42l6.95 10.02a10.9 10.9 0 0 1 -.33 12.9l-3.22 4.18a7.46 7.46 0 0 1 -6.81 2.83l-3.66-.47a13.219 13.219 0 0 0 -13.1 6.47 7.524 7.524 0 0 1 -7.47 3.58l-8.37-1.06a13.638 13.638 0 0 0 -13.08 5.91 12.123 12.123 0 0 0 -.21 13.29l5.58 8.81a11.265 11.265 0 0 0 14.85 3.9l5.75-3.07a10.585 10.585 0 0 1 10.41.25l10.89 6.54a2.737 2.737 0 0 0 1.45.38 15.456 15.456 0 0 1 12.73 6.7l5.33 7.43c.37.53.77 1.03 1.19 1.52z" fill="#d8ff33"/><path d="m360.79 226.09h28.17v119.2h-28.17z" fill="#73d88a"/><path d="m303.13 262.16h28.16v83.13h-28.16z" fill="#73d88a"/><path d="m245.46 299.19h28.16v46.1h-28.16z" fill="#73d88a"/><path d="m215.95 266.6v62.92a104.62 104.62 0 0 0 -10.46-9.95 102.2 102.2 0 0 0 -17.7-11.74v-41.23z" fill="#73d88a"/><path d="m323.19 63.22v-17.4a34.859 34.859 0 0 0 -1.98-11.61h-.01a34.817 34.817 0 0 0 -65.65 0h-.01a34.859 34.859 0 0 0 -1.98 11.61v17.4h-63.83v46.42h197.29v-46.42z" fill="#50a6ea"/><path d="m426.88 366.36 1.2.39a11.64 11.64 0 0 1 -2.28 3.25l-48.54 48.54a11.482 11.482 0 0 1 -4.46 2.77v-35.61a19.342 19.342 0 0 1 19.34-19.34z" fill="#a6b7d0"/><path d="m157.22 86.48a9.671 9.671 0 0 0 -9.67 9.67v201.3l30 7v-208.3a9.671 9.671 0 0 1 9.67-9.67z" fill="#a6b7d0"/><path d="m187.79 307.83a101.383 101.383 0 0 0 -40.24-11.38c-2.38-.18-4.78-.26-7.2-.26a101.985 101.985 0 0 0 -37.66 7.15 100.6 100.6 0 0 0 -10.88 5.07l.89 1.67 7.42 5.58 5.86 4.4a31.287 31.287 0 0 0 3.06 2.04l3.77-2.69a100.6 100.6 0 0 1 10.88-5.07 101.985 101.985 0 0 1 37.66-7.15c2.42 0 4.82.08 7.2.26a101.422 101.422 0 0 1 29.445 6.5 101.573 101.573 0 0 0 -10.205-6.12z" fill="#5ac5df"/><path d="m58.95 409.6c0-2.45.09-4.89.26-7.3l1.27.08.229-.044a16.473 16.473 0 0 1 -2.7-3.456 16.215 16.215 0 0 0 -17.13-7.77l-1.4.27-1.27-.08c-.17 2.41-.26 4.85-.26 7.3a102.432 102.432 0 0 0 65.756 95.641 102.29 102.29 0 0 1 -44.755-84.641z" fill="#5ac5df"/><path d="m108.6 321.825a31.174 31.174 0 0 1 -2.62-1.765l-5.86-4.4-7.42-5.58-.89-1.67a102.377 102.377 0 0 0 -53.6 82.89l1.27.08 1.4-.27a16.215 16.215 0 0 1 17.13 7.77 16.669 16.669 0 0 0 1.328 1.944 102.332 102.332 0 0 1 49.262-78.999z" fill="#9be147"/><g id="_Group_" data-name=" Group "><g id="_Path_9" data-name=" Path 9"><path d="m237.66 250.9a5.975 5.975 0 0 1 -3.423-1.076l-21-14.625a6 6 0 0 1 6.857-9.848l21 14.625a6 6 0 0 1 -3.434 10.924z" fill="#f9d438"/></g><g id="_Path_10" data-name=" Path 10"><path d="m280.435 253.736a6 6 0 0 1 -3.872-10.586l23.182-19.55a6 6 0 1 1 7.736 9.173l-23.181 19.55a5.978 5.978 0 0 1 -3.865 1.413z" fill="#f9d438"/></g><g id="_Path_11" data-name=" Path 11"><path d="m338.319 206.979a6 6 0 0 1 -4.055-10.423l23.05-21.127a6 6 0 1 1 8.108 8.846l-23.05 21.125a5.977 5.977 0 0 1 -4.053 1.579z" fill="#f9d438"/></g></g><path d="m253.141 147.193h-67.171a6 6 0 0 1 0-12h67.171a6 6 0 1 1 0 12z" fill="#ccd3df"/><path d="m294.1 177.914h-75.521a6 6 0 0 1 0-12h75.521a6 6 0 0 1 0 12z" fill="#ccd3df"/><path d="m196.786 177.914h-10.816a6 6 0 0 1 0-12h10.816a6 6 0 0 1 0 12z" fill="#ccd3df"/><g fill="#55d8d8"><path d="m200.7 228.207a11.12 11.12 0 1 1 11.12-11.12 11.132 11.132 0 0 1 -11.12 11.12z"/><path d="m260.1 265.072a11.12 11.12 0 1 1 11.12-11.12 11.132 11.132 0 0 1 -11.12 11.12z"/><path d="m320.514 226.159a11.121 11.121 0 1 1 11.12-11.12 11.133 11.133 0 0 1 -11.12 11.12z"/><path d="m377.86 175.981a11.12 11.12 0 1 1 11.12-11.12 11.132 11.132 0 0 1 -11.12 11.12z"/></g></svg>