<svg id="Layer_1" height="512" viewBox="0 0 512 512" width="512" xmlns="http://www.w3.org/2000/svg" data-name="Layer 1"><path d="m450.64 39.68c30.74 30.76 17.77 86.46-17.43 147.3v.01a567.311 567.311 0 0 1 -37.11 55.64l-.01.01a39.942 39.942 0 0 0 -22.08-15.56c19.02-25.35 34.49-49.76 45.76-71.95 22.52-44.39 28.22-79.91 11.79-96.36s-51.94-10.74-96.3 11.81a199.644 199.644 0 0 0 -31.82-13.46c60.8-35.22 116.46-48.21 147.2-17.44z" fill="#ffe578"/><path d="m433.21 186.99a202.556 202.556 0 0 1 -255.22 255.39c47.47-27.49 98.07-68.54 142.4-112.9 8.93-8.93 17.72-18.12 26.29-27.48v-.01a40.006 40.006 0 0 0 54.06-50.67 39.148 39.148 0 0 0 -4.65-8.68l.01-.01a567.311 567.311 0 0 0 37.11-55.64z" fill="#a0eaea"/><path d="m48.69 313.95a202.566 202.566 0 0 1 254.75-256.83 199.644 199.644 0 0 1 31.82 13.46 203.768 203.768 0 0 1 84.5 84.55h.01c-11.27 22.19-26.74 46.6-45.76 71.95a40.018 40.018 0 0 0 -46.59 56q-12.51 13.665-26.11 27.3c-53.65 53.68-109.16 95.16-155.14 118.53a203.614 203.614 0 0 1 -84.49-84.56 200.063 200.063 0 0 1 -12.99-30.4z" fill="#a0eaea"/><path d="m400.74 251.32a40.226 40.226 0 1 1 -4.65-8.68 39.148 39.148 0 0 1 4.65 8.68z" fill="#fe8700"/><path d="m346.68 301.99v.01c-8.57 9.36-17.36 18.55-26.29 27.48-44.33 44.36-94.93 85.41-142.4 112.9-60.8 35.22-116.45 48.2-147.2 17.44-29.99-30.02-15.38-86.75 17.9-145.87a200.063 200.063 0 0 0 12.99 30.4c-22.54 44.4-28.23 79.93-11.8 96.37s51.93 10.74 96.29-11.81c45.98-23.37 101.49-64.85 155.14-118.53q13.59-13.605 26.11-27.3a40.106 40.106 0 0 0 19.26 18.91z" fill="#ffe578"/><path d="m127.59 392.98a202.321 202.321 0 0 1 -35.91-48.63 200.063 200.063 0 0 1 -12.99-30.4 202.59 202.59 0 0 1 177-266.2 202.633 202.633 0 0 0 -109.52 381.16q7.623-3.875 15.586-8.418a203.158 203.158 0 0 1 -34.166-27.512z" fill="#81ccca"/><path d="m123.132 373.416a5.984 5.984 0 0 1 -4.244-1.759 173.184 173.184 0 0 1 -25.23-32.011 6 6 0 0 1 10.238-6.261 161.177 161.177 0 0 0 23.48 29.789 6 6 0 0 1 -4.244 10.242z" fill="#68b5b1"/><path d="m79.933 298.337a6 6 0 0 1 -5.8-4.473 172.51 172.51 0 0 1 3.47-99.754 6 6 0 0 1 11.362 3.862 160.54 160.54 0 0 0 -3.228 92.835 6.007 6.007 0 0 1 -5.806 7.53z" fill="#68b5b1"/><path d="m84.7 55.332a30.082 30.082 0 0 1 -18.928-18.943 6 6 0 0 0 -11.385 0 30.085 30.085 0 0 1 -18.928 18.943 6 6 0 0 0 0 11.383 30.082 30.082 0 0 1 18.928 18.943 6 6 0 0 0 11.385 0 30.081 30.081 0 0 1 18.928-18.943 6 6 0 0 0 0-11.383z" fill="#604af3"/><path d="m435.75 438.463a30.082 30.082 0 0 1 -18.927-18.942 6 6 0 0 0 -11.385 0 30.079 30.079 0 0 1 -18.928 18.942 6 6 0 0 0 0 11.384 30.081 30.081 0 0 1 18.928 18.942 6 6 0 0 0 11.385 0 30.083 30.083 0 0 1 18.927-18.943 6 6 0 0 0 0-11.384z" fill="#604af3"/><path d="m120.292 5a11.685 11.685 0 1 0 11.681 11.685 11.7 11.7 0 0 0 -11.681-11.685z" fill="#49bdff"/><path d="m498.5 78.8a6 6 0 0 1 -6-5.922c-.307-23.713-7.682-42.96-21.919-57.208a6 6 0 1 1 8.488-8.482c16.525 16.533 25.081 38.583 25.431 65.532a6 6 0 0 1 -5.922 6.077z" fill="#ccd3df"/><path d="m487.811 139.536a6.007 6.007 0 0 1 -5.7-7.869c1.96-5.986 3.667-11.9 5.075-17.575a6 6 0 0 1 11.648 2.89c-1.478 5.958-3.268 12.155-5.318 18.419a6 6 0 0 1 -5.705 4.135z" fill="#ccd3df"/><path d="m358.871 483.631a11.685 11.685 0 1 0 11.68 11.684 11.7 11.7 0 0 0 -11.68-11.684z" fill="#49bdff"/></svg>