<svg id="Layer_1" height="512" viewBox="0 0 512 512" width="512" xmlns="http://www.w3.org/2000/svg" data-name="Layer 1"><path d="m501 256q0 1.23-.03 2.46a31.046 31.046 0 1 1 -9.13-52 137.563 137.563 0 0 1 9.16 49.54z" fill="#7d97b2"/><path d="m337.15 391.62a136.9 136.9 0 0 1 -43.47-16.23c-.01.01-.01.01-.01 0a138.565 138.565 0 0 1 -54.04-57.39l.09-.05a30.172 30.172 0 0 0 3.17.16 31.055 31.055 0 1 0 -17.83-56.48c-.07-1.87-.11-3.74-.11-5.63a137.839 137.839 0 0 1 124.79-137.4l.03.3a30.17 30.17 0 0 0 -.6 5.98 29.67 29.67 0 0 0 59.33.77 138.439 138.439 0 0 1 83.34 80.81 31.06 31.06 0 1 0 9.13 52 138.152 138.152 0 0 1 -163.82 133.16z" fill="#e5f5fd"/><path d="m408.5 125.65a29.67 29.67 0 0 1 -59.33-.77 30.17 30.17 0 0 1 .6-5.98l-.03-.3c4.35-.42 8.77-.63 13.23-.63a138.089 138.089 0 0 1 45.53 7.68z" fill="#a6b7d0"/><path d="m332.57 426.03 4.8 18.54-12.43-14.51c-24.25-28.32-70.16-16.92-78.57 19.51l-4.31 18.66-4.3-18.66c-8.41-36.43-54.32-47.83-78.57-19.51l-12.43 14.51 4.8-18.54c9.36-36.19-26.04-67.78-60.57-54.06l-17.7 7.03 12.8-14.17c24.98-27.67 8.22-72.2-28.69-76.22l-18.92-2.06 17.88-6.56c34.88-12.8 40.58-60.08 9.75-80.92l-15.8-10.67 18.86 2.56c36.79 4.99 63.65-34.21 45.96-67.09l-9.06-16.85 15.52 11.09c30.27 21.65 72.14-.48 71.65-37.88l-.25-19.16 8.61 17.08c16.82 33.35 64.11 33.35 80.93 0l8.61-17.08-.25 19.16a45.371 45.371 0 0 0 29.78 43.54l.23.73a137.745 137.745 0 0 0 -43.5 23.19 122.158 122.158 0 1 0 16.27 227.7c0 .01 0 .01.01 0a136.9 136.9 0 0 0 43.47 16.23 45.221 45.221 0 0 0 -4.58 34.41z" fill="#fadf4a"/><path d="m225.06 261.63a137.177 137.177 0 0 0 14.57 56.37 138.565 138.565 0 0 0 54.04 57.39 122.138 122.138 0 1 1 -16.27-227.7 137.787 137.787 0 0 0 -52.45 108.31c0 1.89.04 3.76.11 5.63z" fill="#ff9c40"/><path d="m242.89 256a31.055 31.055 0 1 1 0 62.11 30.172 30.172 0 0 1 -3.17-.16l-.09.05a137.177 137.177 0 0 1 -14.57-56.37 30.9 30.9 0 0 1 17.83-5.63z" fill="#a6b7d0"/><path d="m423.71 329.84a13.805 13.805 0 1 1 -13.81 13.81 13.8 13.8 0 0 1 13.81-13.81z" fill="#95acc6"/><path d="m373.33 233.23a20.01 20.01 0 1 1 -20.02 20.01 20.012 20.012 0 0 1 20.02-20.01z" fill="#95acc6"/><path d="m305.69 176.64a13.8 13.8 0 1 1 -13.8 13.8 13.8 13.8 0 0 1 13.8-13.8z" fill="#95acc6"/><path d="m149.92 264.65a122.162 122.162 0 0 1 107.087-121.226 122.146 122.146 0 1 0 .03 242.456 122.163 122.163 0 0 1 -107.117-121.23z" fill="#fe8700"/><g fill="#ffe783"><path d="m23.11 416.23a6 6 0 0 1 -3.21-11.073l2.635-1.665a6 6 0 1 1 6.41 10.145l-2.635 1.663a5.981 5.981 0 0 1 -3.2.93z"/><path d="m42.315 404.1a6 6 0 0 1 -3.21-11.074l15.461-9.765a6 6 0 1 1 6.409 10.145l-15.461 9.765a5.967 5.967 0 0 1 -3.199.929z"/><path d="m242.064 500.546a6 6 0 0 1 -6-6v-2.633a6 6 0 0 1 12 0v2.633a6 6 0 0 1 -6 6z"/><path d="m350.381 473.418a6 6 0 0 1 -5.243-3.074l-2.538-4.544a6 6 0 1 1 10.474-5.855l2.541 4.547a6 6 0 0 1 -5.231 8.928z"/><path d="m296.893 42.623a6.008 6.008 0 0 1 -5.834-7.424l4.215-17.284a6 6 0 0 1 11.659 2.843l-4.216 17.285a6 6 0 0 1 -5.824 4.58z"/><path d="m113.8 501.718a6 6 0 0 1 -5.061-9.216l3.09-4.869a6 6 0 0 1 10.133 6.43l-3.09 4.869a6 6 0 0 1 -5.072 2.786z"/><path d="m126.864 481.136a6 6 0 0 1 -5.059-9.216l5.6-8.829a6 6 0 1 1 10.131 6.43l-5.6 8.83a6 6 0 0 1 -5.072 2.785z"/><path d="m77.271 81.975a5.98 5.98 0 0 1 -4.42-1.941l-6.212-6.761a6 6 0 0 1 8.836-8.119l6.212 6.761a6 6 0 0 1 -4.416 10.06z"/><path d="m105.667 112.876a5.984 5.984 0 0 1 -4.42-1.94l-14.747-16.051a6 6 0 1 1 8.836-8.119l14.75 16.051a6 6 0 0 1 -4.416 10.059z"/><path d="m20.38 181.873a5.965 5.965 0 0 1 -2.276-.451l-9.381-3.849a6 6 0 1 1 4.554-11.1l9.382 3.849a6 6 0 0 1 -2.279 11.552z"/><path d="m50.7 194.311a5.979 5.979 0 0 1 -2.275-.451l-12.215-5.011a6 6 0 0 1 4.555-11.1l12.215 5.011a6 6 0 0 1 -2.28 11.553z"/><path d="m193.2 67.072a6 6 0 0 1 -5.845-4.672l-10.179-44.788a6 6 0 1 1 11.7-2.659l10.179 44.788a6.007 6.007 0 0 1 -5.857 7.331z"/><path d="m22.189 295.083a6 6 0 0 1 -.736-11.955l16.286-2.035a6 6 0 1 1 1.489 11.907l-16.287 2.036a6.172 6.172 0 0 1 -.752.047z"/></g><path d="m320.877 349.815a11 11 0 1 1 11-11 11.012 11.012 0 0 1 -11 11z" fill="#a6b7d0"/></svg>