<svg id="Layer_1" height="512" viewBox="0 0 512 512" width="512" xmlns="http://www.w3.org/2000/svg" data-name="Layer 1"><path d="m390.14 195.26a154.186 154.186 0 0 0 -68.31-76.84 40.011 40.011 0 0 1 -76.79-19.44 154.078 154.078 0 0 0 -56.63 11.46c-79 32.24-117.05 122.73-84.81 201.73s122.72 117.05 201.72 84.81c2.79-1.14 5.54-2.35 8.23-3.64 73.37-34.98 107.68-121.88 76.59-198.08zm-40.7 95.44a14.888 14.888 0 0 1 -10.38.35 99.13 99.13 0 0 1 -47.55 51.57c-2.29 1.15-4.65 2.22-7.06 3.2a99.419 99.419 0 1 1 61.57-83.84 15 15 0 0 1 3.42 28.72zm19.83-33.47a.5.5 0 0 1 -.38-.92.5.5 0 1 1 .38.92z" fill="#a6b7d0"/><path d="m339.06 291.05a15 15 0 1 1 10.38-.35 14.948 14.948 0 0 1 -10.38.35z" fill="#ffdb00"/><path d="m338.97 216.13a99.477 99.477 0 1 0 -54.52 129.69c2.41-.98 4.77-2.05 7.06-3.2a99.13 99.13 0 0 0 47.55-51.57 15 15 0 0 1 6.96-29.07 99.217 99.217 0 0 0 -7.05-45.85z" fill="#475673"/><path d="m282.87 226.71a45.017 45.017 0 0 1 -13.16 65.77 43.488 43.488 0 0 1 -5.84 2.9 45 45 0 1 1 19-68.67z" fill="#ed6337"/><path d="m347.009 109.456a10 10 0 1 1 9.26-13.785 10.013 10.013 0 0 1 -9.261 13.782z" fill="#9be147"/><path d="m243.128 68.916a7.006 7.006 0 1 1 2.653-.524 6.982 6.982 0 0 1 -2.653.524z" fill="#9be147"/><path d="m369.087 263.273a6.5 6.5 0 1 1 6.008-8.962l.009.021a6.509 6.509 0 0 1 -3.577 8.46 6.424 6.424 0 0 1 -2.44.481z" fill="#d8ff33"/><path d="m285.561 288.145h12.001v109.192h-12.001z" fill="#4a5160" transform="matrix(.917 -.398 .398 .917 -112.396 144.504)"/><path d="m271.742 188.458h111.129v12.001h-111.129z" fill="#4a5160" transform="matrix(.809 -.588 .588 .809 -51.801 229.406)"/><g fill="#ccd3df"><path d="m436.467 431.122a6 6 0 0 1 -4.359-10.122c2.893-3.059 5.731-6.244 8.435-9.468a6 6 0 0 1 9.193 7.714c-2.857 3.4-5.854 6.769-8.909 10a5.985 5.985 0 0 1 -4.36 1.876z"/><path d="m464.706 394.077a6 6 0 0 1 -5.123-9.115 214.94 214.94 0 0 0 27.474-71.371 6 6 0 1 1 11.785 2.256 226.91 226.91 0 0 1 -29 75.343 6 6 0 0 1 -5.136 2.887z"/><path d="m99.263 53.765a6 6 0 0 1 -3.211-11.074c4.109-2.6 8.36-5.091 12.634-7.417a6 6 0 1 1 5.736 10.54c-4.047 2.2-8.07 4.564-11.96 7.022a5.979 5.979 0 0 1 -3.199.929z"/><path d="m19.047 143.67a6 6 0 0 1 -5.4-8.619 224.732 224.732 0 0 1 56.674-73.409 6 6 0 1 1 7.787 9.13 212.818 212.818 0 0 0 -53.659 69.515 6 6 0 0 1 -5.402 3.383z"/></g><path d="m450.56 170.6c-45.82-112.32-174.49-166.41-286.81-120.58s-166.41 174.49-120.58 286.81a218.808 218.808 0 0 0 76.73 96.48l53.21 27.57a219.11 219.11 0 0 0 156.87-3.47c112.32-45.83 166.41-174.49 120.58-286.81zm-137.01 222.74c-2.69 1.29-5.44 2.5-8.23 3.64-79 32.24-169.49-5.81-201.72-84.81s5.81-169.48 84.81-201.72a150.1 150.1 0 0 1 56.63-11.45h.01l76.78 19.43a154.165 154.165 0 0 1 68.31 76.833c31.09 76.199-3.22 163.097-76.59 198.077z" fill="#e5f5fd"/><path d="m321.86 88.11a40 40 0 1 1 -76.82 10.87h.01a40 40 0 0 1 76.81-10.87z" fill="#dcbe3f"/><path d="m303.34 95.67a20 20 0 1 1 -26.07-10.97 19.988 19.988 0 0 1 26.07 10.97z" fill="#fadf4a"/><path d="m73.17 336.83c-45.83-112.32 8.27-240.98 120.58-286.81a219.144 219.144 0 0 1 67.862-15.779 218.663 218.663 0 0 0 -97.862 15.779c-112.31 45.83-166.41 174.49-120.58 286.81a218.808 218.808 0 0 0 76.73 96.48 29.737 29.737 0 0 1 13.934-12.482 218.722 218.722 0 0 1 -60.664-83.998z" fill="#a6b7d0"/><path d="m173.66 436.95a29.981 29.981 0 1 1 -39.11-16.45 29.937 29.937 0 0 1 39.11 16.45z" fill="#50a6ea"/></svg>