<svg id="Layer_1" height="512" viewBox="0 0 512 512" width="512" xmlns="http://www.w3.org/2000/svg" data-name="Layer 1"><path d="m391.67 39.55-31.19 41.59 31.19 41.58h-124.75v-83.17z" fill="#e5f5fd"/><path d="m266.92 39.55h30v83.17h-30z" fill="#a6b7d0"/><path d="m260.396 20.317h12v189.212h-12z" fill="#604af3"/><path d="m266.4 28.4a11.2 11.2 0 1 1 11.2-11.2 11.211 11.211 0 0 1 -11.2 11.2z" fill="#43a2ff"/><path d="m266.4 207.39a225.113 225.113 0 0 1 70.96 14.82 242.74 242.74 0 0 0 -10.82 39.87l-2.5 13.78a9.4 9.4 0 0 0 4.78 9.76 16.6 16.6 0 0 0 11.78 1.63l3.34-.77a33.908 33.908 0 0 1 34.74 12.67 33.277 33.277 0 0 1 2.62 35.77l-21.49 39.58a15.517 15.517 0 0 0 -.95 12.71l2.72 7.43a11.285 11.285 0 0 0 8.13 7.17 32.008 32.008 0 0 1 21.89 17.42l3.45 7.15a9.16 9.16 0 0 0 11.42 4.64l18.56-6.77a25.429 25.429 0 0 0 16.66-22.25l.19-2.95a32.207 32.207 0 0 1 19.85-27.83l4.29-1.78c.41-.18.82-.36 1.23-.55l5.1-2.47a227.972 227.972 0 0 1 .55 132.66l-.1.33c-51.01 8.34-55.26-29.21-108.56-29.17-54.09.05-54.07 29.16-108.16 29.21s-54.12-29.06-108.21-29.01c-53.32.05-57.51 37.67-108.55 29.36a225.594 225.594 0 0 1 -7.3-32.3 228.865 228.865 0 0 1 -2.51-33.85 225.445 225.445 0 0 1 41.24-130.34l1.42.17a30.009 30.009 0 0 0 10.22-.5l4.75-1.06a27.414 27.414 0 0 1 7.71-.7 29.269 29.269 0 0 1 22.09 12.34 61.485 61.485 0 0 0 9.05 10.41l10.84 9.73a19.549 19.549 0 0 0 8.43 4.46l1.53.39a26.6 26.6 0 0 1 19.07 18.11l7.62 25.2a24.831 24.831 0 0 0 4.39 8.32l21.97 27.44a27.011 27.011 0 0 1 5.43 11.78l6.61 34.61a5.076 5.076 0 0 0 1.69 3 4.926 4.926 0 0 0 5.2.72 9.8 9.8 0 0 0 5.78-8.29 35.291 35.291 0 0 1 7.7-19.47l6-7.57a13.1 13.1 0 0 0 2.31-4.52l5.85-20.73a30.62 30.62 0 0 1 10.28-15.55l18.52-14.94a6.708 6.708 0 0 0 2.49-4.09 6.4 6.4 0 0 0 -1.55-5.36l-12.91-14.49c-.77-.87-1.51-1.76-2.21-2.69l-9.92-13.16c-5.5-7.31-14.15-12.02-23.29-11.54a4.611 4.611 0 0 1 -2.54-.62l-19.91-11.32a19.107 19.107 0 0 0 -18.77-.01l-10.22 5.78a20.32 20.32 0 0 1 -26.93-6.41l-10.27-15.39a22.068 22.068 0 0 1 -.69-23.64 24.612 24.612 0 0 1 23.67-11.76l15.12 1.56a13.568 13.568 0 0 0 13.31-6.77 23.782 23.782 0 0 1 23.33-12.21l6.61.68a13.4 13.4 0 0 0 12.15-5.38l5.63-7.67a19.687 19.687 0 0 0 .03-23.25l-.75-1.03q9.1-.735 18.41-.74c3.49 0 6.95.08 10.4.24z" fill="#49bdff"/><path d="m472.35 366.42-5.1 2.47c-.41.19-.82.37-1.23.55l-4.29 1.78a32.207 32.207 0 0 0 -19.85 27.83l-.19 2.95a25.429 25.429 0 0 1 -16.66 22.25l-18.56 6.77a9.16 9.16 0 0 1 -11.42-4.64l-3.45-7.15a32.008 32.008 0 0 0 -21.89-17.42 11.285 11.285 0 0 1 -8.13-7.17l-2.72-7.43a15.517 15.517 0 0 1 .95-12.71l21.49-39.58a33.277 33.277 0 0 0 -2.62-35.77 33.908 33.908 0 0 0 -34.74-12.67l-3.34.77a16.6 16.6 0 0 1 -11.78-1.63 9.4 9.4 0 0 1 -4.78-9.76l2.5-13.78a242.74 242.74 0 0 1 10.82-39.87 227.094 227.094 0 0 1 134.99 144.21z" fill="#9be147"/><path d="m276.15 367.21a6.4 6.4 0 0 1 1.55 5.36 6.708 6.708 0 0 1 -2.49 4.09l-18.52 14.94a30.62 30.62 0 0 0 -10.28 15.55l-5.85 20.73a13.1 13.1 0 0 1 -2.31 4.52l-6 7.57a35.291 35.291 0 0 0 -7.7 19.47 9.8 9.8 0 0 1 -5.78 8.29 4.926 4.926 0 0 1 -5.2-.72 5.076 5.076 0 0 1 -1.69-3l-6.61-34.61a27.011 27.011 0 0 0 -5.43-11.78l-21.97-27.44a24.831 24.831 0 0 1 -4.39-8.32l-7.62-25.2a26.6 26.6 0 0 0 -19.07-18.11l-1.53-.39a19.549 19.549 0 0 1 -8.43-4.46l-10.84-9.73a61.485 61.485 0 0 1 -9.05-10.41 29.269 29.269 0 0 0 -22.09-12.34 27.414 27.414 0 0 0 -7.71.7l-4.75 1.06a30.009 30.009 0 0 1 -10.22.5l-1.42-.17a226.243 226.243 0 0 1 166.84-95.42l.75 1.03a19.687 19.687 0 0 1 -.03 23.25l-5.63 7.67a13.4 13.4 0 0 1 -12.15 5.38l-6.61-.68a23.782 23.782 0 0 0 -23.33 12.21 13.568 13.568 0 0 1 -13.31 6.77l-15.12-1.56a24.612 24.612 0 0 0 -23.67 11.76 22.068 22.068 0 0 0 .69 23.64l10.27 15.39a20.32 20.32 0 0 0 26.93 6.41l10.22-5.78a19.107 19.107 0 0 1 18.77.01l19.91 11.32a4.611 4.611 0 0 0 2.54.62c9.14-.48 17.79 4.23 23.29 11.54l9.92 13.16c.7.93 1.44 1.82 2.21 2.69z" fill="#9be147"/><path d="m72.02 467.5a228.865 228.865 0 0 1 -2.51-33.85 225.422 225.422 0 0 1 39.453-127.75 29.118 29.118 0 0 0 -14.113-4.68 27.414 27.414 0 0 0 -7.71.7l-4.75 1.06a30.009 30.009 0 0 1 -10.22.5l-1.42-.17a225.445 225.445 0 0 0 -41.24 130.34 228.865 228.865 0 0 0 2.51 33.85 225.594 225.594 0 0 0 7.3 32.3c16.949 2.76 28.73.452 38.861-3.861a226.015 226.015 0 0 1 -6.161-28.439z" fill="#3090fc"/><path d="m238.34 208.92-.75-1.03a226.243 226.243 0 0 0 -166.84 95.42l1.42.17a30.009 30.009 0 0 0 10.22-.5l4.75-1.06a27.414 27.414 0 0 1 7.71-.7 29.128 29.128 0 0 1 14.118 4.669l1.782-2.579a226.693 226.693 0 0 1 130.212-89.41 19.614 19.614 0 0 0 -2.622-4.98z" fill="#81c83d"/></svg>