<svg id="Layer_1" height="512" viewBox="0 0 512 512" width="512" xmlns="http://www.w3.org/2000/svg" data-name="Layer 1"><path d="m300.28 260.66h19.65v17.29h-19.65z" fill="#72bcef"/><path d="m453.59 260.66h19.66v17.29h-19.66z" fill="#72bcef"/><path d="m387.59 11.01c-62.88.67-114.26 53.06-113.41 113.4.4 27.86 10.05 53.37 26.71 73.11l172.01 1.28.35-.06a112.988 112.988 0 0 0 27.75-74.33c0-62.63-50.78-114.08-113.41-113.4z" fill="#fadf4a"/><path d="m279.55 421.88v79.12h-118.59v-33.11a40.349 40.349 0 0 1 11.84-28.55l17.5-17.46-14.22-15.83 32.46-30.78-32.14-32.51h24.17a79.048 79.048 0 0 1 78.98 79.12z" fill="#e5f5fd"/><path d="m228.19 200.64a41.657 41.657 0 0 1 0 58.89v24.47a51.64 51.64 0 0 1 -51.64 51.64s13.48-14.62 13.48-27a15.666 15.666 0 0 0 -.12-1.94 58.139 58.139 0 0 0 13.17-26.21l9.54-35.54h3.35a12.56 12.56 0 0 0 0-25.12h-3.11v-8.15c.83-40.94-26.55-51.36-26.55-51.36l2.92 37.6a60.638 60.638 0 0 1 -39.88-38.66l-.95-2.84v-.02h-.01l.01.02c-6.67 27.07-24.04 42.92-39.76 52a98.088 98.088 0 0 1 -29.78 11.41h-3.35a12.56 12.56 0 0 0 0 25.12h3.35l9.64 35.98a58.2 58.2 0 0 0 12.01 24.86q1.395 1.68 2.91 3.26c2.08 17.8 9.7 26.59 9.7 26.59a49.83 49.83 0 0 1 -49.83-49.83v-21.75a44.806 44.806 0 0 1 -1.33-61.97l1.33-1.45a82.45 82.45 0 0 1 164.9 0z" fill="#edb740"/><path d="m174.72 319.01-60.01-.82-.55.86v25.75a53.1 53.1 0 0 0 1.38 12.03c0 .01.01.01.01.02a34.738 34.738 0 0 0 59.46-.02 52.545 52.545 0 0 0 1.39-12.03v-25.75z" fill="#efc597"/><path d="m175.01 356.83a52.876 52.876 0 0 1 -13.81 25.11l-15.92 16.2-15.93-16.2a52.926 52.926 0 0 1 -13.8-25.09 34.738 34.738 0 0 0 59.46-.02z" fill="#4a5160"/><path d="m208.54 375.27-32.14-32.51v2.04a53.061 53.061 0 0 1 -15.2 37.14l-15.92 16.2-15.93-16.2a52.926 52.926 0 0 1 -13.8-25.09c0-.01-.01-.01-.01-.02a53.1 53.1 0 0 1 -1.38-12.03v-1.97l-32.07 32.44 32.46 30.78-14.22 15.83 15.87 15.82a40.315 40.315 0 0 1 11.86 28.56v34.74h32.9v-33.11a40.349 40.349 0 0 1 11.84-28.55l17.5-17.46-14.22-15.83z" fill="#3090fc"/><path d="m128.06 466.26v34.74h-117.06v-79.12a79.056 79.056 0 0 1 78.99-79.12h24.17v.07l-32.07 32.44 32.46 30.78-14.22 15.83 15.87 15.82a40.315 40.315 0 0 1 11.86 28.56z" fill="#e5f5fd"/><path d="m428 244h45v17h-45z" fill="#6d7486"/><path d="m472.9 198.8a21.38 21.38 0 0 0 -21.04-17.56 24.164 24.164 0 0 1 -24.16-24.16v87.2h45.55z" fill="#72bcef"/><path d="m400.27 216.7v.09 27.49h27.43v-27.58z" fill="#6d7486"/><path d="m423.92 87.99c-2.52-9.35-6.28-18.49-11.25-33.43a27.314 27.314 0 0 0 -51.82 0c-9.95 29.87-15.03 36.59-15.03 68.08v94.06h81.88v-94.06c0-15.74-1.27-25.3-3.78-34.65z" fill="#e5f5fd"/><path d="m400.27 216.79v27.49h-27.02v-27.49-.09h27.02z" fill="#4a5160"/><path d="m345.82 216.7v27.58h27.43v-27.49-.09z" fill="#6d7486"/><path d="m300 244h46v17h-46z" fill="#6d7486"/><path d="m321.67 181.24a21.347 21.347 0 0 0 -21.39 21.39v41.65h45.54v-87.2a24.156 24.156 0 0 1 -24.15 24.16z" fill="#72bcef"/><path d="m215.97 219.83a12.56 12.56 0 0 1 0 25.12h-3.35l-9.54 35.54a58.173 58.173 0 0 1 -34.78 41.63l-1.08.44c-.9.37-1.8.71-2.7 1.03a102.129 102.129 0 0 0 -12.7 5.29 12.8 12.8 0 0 1 -12.11.23 103.125 103.125 0 0 0 -11.93-4.91c-1.74-.57-3.47-1.2-5.16-1.91a58.026 58.026 0 0 1 -19.2-13.24q-1.515-1.575-2.91-3.26a58.2 58.2 0 0 1 -12.01-24.86l-9.64-35.98h-3.35a12.56 12.56 0 0 1 0-25.12h3.35a98.088 98.088 0 0 0 29.78-11.41c15.72-9.08 33.09-24.93 39.76-52l.95 2.84a60.638 60.638 0 0 0 39.88 38.66l-2.92-37.6s27.38 10.42 26.55 51.36v8.15z" fill="#ffd8b7"/><path d="m113.981 343.011.179-.181v-.07h-24.17a79.056 79.056 0 0 0 -78.99 79.12v79.12h30v-79.12a79.058 79.058 0 0 1 72.981-78.869z" fill="#a6b7d0"/><path d="m390.85 54.56a26.8 26.8 0 0 1 10.91-14.3 27.678 27.678 0 0 0 -15-4.373 26.831 26.831 0 0 0 -25.91 18.67c-9.95 29.87-15.03 36.59-15.03 68.08v94.063h30v-94.06c0-31.49 5.08-38.21 15.03-68.08z" fill="#a6b7d0"/><path d="m152.62 322.29a58.026 58.026 0 0 1 -19.2-13.24q-1.515-1.575-2.91-3.26a58.2 58.2 0 0 1 -12.01-24.86l-5.253-19.606a128.773 128.773 0 0 1 -4.387-33.324v-8.17a98.088 98.088 0 0 0 29.78-11.41 85.8 85.8 0 0 0 27-24.047 60.586 60.586 0 0 1 -16.29-25.113l-.95-2.84c-6.67 27.07-24.04 42.92-39.76 52a98.088 98.088 0 0 1 -29.78 11.41h-3.35a12.56 12.56 0 0 0 0 25.12h3.35l9.64 35.98a58.2 58.2 0 0 0 12.01 24.86q1.395 1.68 2.91 3.26a58.026 58.026 0 0 0 19.2 13.24c1.69.71 3.42 1.34 5.16 1.91a103.125 103.125 0 0 1 11.93 4.91 12.8 12.8 0 0 0 12.11-.23 89.1 89.1 0 0 1 8.566-3.764c-.863-.319-1.729-.632-2.606-.916-1.74-.57-3.47-1.2-5.16-1.91z" fill="#f2cca7"/><path d="m255.856 455.571h-52.919a6 6 0 0 1 0-12h52.919a6 6 0 0 1 0 12z" fill="#ccd3df"/><path d="m113.876 257.517a15.6 15.6 0 0 1 -15.576-15.595 6 6 0 0 1 12 0 3.579 3.579 0 1 0 7.157 0 6 6 0 0 1 12 0 15.6 15.6 0 0 1 -15.581 15.595z" fill="#d8af87"/><path d="m177.6 257.517a15.6 15.6 0 0 1 -15.578-15.595 6 6 0 1 1 12 0 3.579 3.579 0 1 0 7.157 0 6 6 0 0 1 12 0 15.6 15.6 0 0 1 -15.579 15.595z" fill="#d8af87"/><path d="m125.424 168.174a6 6 0 0 1 -4.964-9.363 67.883 67.883 0 0 0 6.175-11.27 6 6 0 1 1 11.029 4.725 79.833 79.833 0 0 1 -7.265 13.27 5.994 5.994 0 0 1 -4.975 2.638z" fill="#d8a43d"/><path d="m85.942 200.3a6 6 0 0 1 -.062-12c.6-.017 11.743-.525 20.863-13.92a6 6 0 0 1 9.92 6.754c-12.901 18.947-29.999 19.166-30.721 19.166z" fill="#d8a43d"/><path d="m412.666 109.69a6 6 0 0 1 -5.691-4.1 21.308 21.308 0 0 0 -40.428 0 6 6 0 0 1 -11.385-3.794 33.308 33.308 0 0 1 63.2 0 6 6 0 0 1 -5.693 7.9z" fill="#8ca1ba"/><path d="m367 324.874a10.5 10.5 0 0 1 -21 0v-3.074a19.033 19.033 0 0 0 -34.192-11.779 29.73 29.73 0 0 0 -19.86-7.111 30.688 30.688 0 0 0 -29.948 30.561 6.012 6.012 0 0 0 12.023 0 18.657 18.657 0 0 1 18.207-18.56 18.136 18.136 0 0 1 13.1 5.307 19.48 19.48 0 0 1 5.83 13.806 6 6 0 0 0 12 0 31.322 31.322 0 0 0 -3.141-13.6 7.036 7.036 0 0 1 13.981 1.376v3.071a22.5 22.5 0 0 0 45 0v-107.871h-12z" fill="#fea92a"/><path d="m475.191 299.222a26.3 26.3 0 0 0 -12.565 3.178 19.707 19.707 0 0 0 -35.626 11.624v10.85a10.5 10.5 0 0 1 -21 0v-107.874h-12v107.874a22.5 22.5 0 0 0 45 0v-10.85a7.721 7.721 0 0 1 14.563-3.572 26.317 26.317 0 0 0 -4.844 15.24 6 6 0 0 0 12 0 14.47 14.47 0 0 1 28.94 0 6 6 0 0 0 12 0 26.5 26.5 0 0 0 -26.468-26.47z" fill="#fea92a"/><path d="m250.6 86.859a6 6 0 0 1 -5.711-7.843 120.07 120.07 0 0 1 29-47.351 6 6 0 1 1 8.523 8.446 108.036 108.036 0 0 0 -26.1 42.588 6 6 0 0 1 -5.712 4.16z" fill="#ccd3df"/><path d="m245.471 120.843a6 6 0 0 1 -6-5.915 110.9 110.9 0 0 1 .741-14.453 6 6 0 1 1 11.918 1.4 99.2 99.2 0 0 0 -.661 12.887 6 6 0 0 1 -5.914 6.084z" fill="#ccd3df"/><g fill="#edb740"><path d="m301.937 164.387a7.914 7.914 0 1 1 7.914-7.914 7.923 7.923 0 0 1 -7.914 7.914z"/><path d="m321.077 125.149a7.914 7.914 0 1 1 7.914-7.914 7.923 7.923 0 0 1 -7.914 7.914z"/><path d="m473.243 151.946a7.914 7.914 0 1 1 7.914-7.914 7.923 7.923 0 0 1 -7.914 7.914z"/><path d="m448.36 123.235a7.914 7.914 0 1 1 7.914-7.914 7.923 7.923 0 0 1 -7.914 7.914z"/><path d="m461.759 78.256a7.914 7.914 0 1 1 7.914-7.914 7.923 7.923 0 0 1 -7.914 7.914z"/><path d="m310.55 90.7a7.914 7.914 0 1 1 7.914-7.914 7.923 7.923 0 0 1 -7.914 7.914z"/></g></svg>