<svg id="Layer_1" height="512" viewBox="0 0 512 512" width="512" xmlns="http://www.w3.org/2000/svg" data-name="Layer 1"><path d="m107.38 424.19v61.81h-5.83-90.55v-61.76h.25l96.09-.05z" fill="#50a6ea"/><path d="m429.92 333.27.42-.05a68.521 68.521 0 0 0 -68.09-60.09h-282.71a69 69 0 0 0 -24.32 4.4 68.03 68.03 0 0 0 -43.77 55.69l.42.05-.87 90.97h.25l96.09-.05h.04v61.81h227.03v-61.76h.65l95.03-.05h.7z" fill="#e5f5fd"/><path d="m41.87 333.27-.42-.05a68.03 68.03 0 0 1 43.77-55.69 69 69 0 0 1 24.32-4.4h-30a69 69 0 0 0 -24.32 4.4 68.03 68.03 0 0 0 -43.77 55.69l.42.05-.87 90.97h.25l29.75-.016z" fill="#a6b7d0"/><path d="m11 424.24v61.76h30v-61.76h-29.75z" fill="#3c96d3"/><path d="m375.41 270.4-.18-105.5a22.262 22.262 0 0 0 -20.23-22.056l.873-.1h-278.313a22.291 22.291 0 0 0 -22.39 22.19l.03 112.55.02.05 320.2-3.14z" fill="#ccd3df"/><path d="m499.08 213.98a43.3 43.3 0 0 1 -1.98 30.71l-1.42-.46-25.35-15.23a13.126 13.126 0 0 0 -.97-7.7l.4-.18z" fill="#dedede"/><path d="m499.08 213.98-29.32 7.14-.4.18a13.512 13.512 0 0 0 -8.67-7.49l.12-.4 22.73-20.12.6-.89a43.767 43.767 0 0 1 14.94 21.58z" fill="#ccd3df"/><path d="m495.68 244.23 1.42.46a44.064 44.064 0 0 1 -19.42 20.57l-.62-1.17-13-25.9a13.421 13.421 0 0 0 6.27-9.19z" fill="#ccd3df"/><path d="m484.14 192.4-.6.89-22.73 20.12-.12.4a13.355 13.355 0 0 0 -3.71-.52 48.337 48.337 0 0 1 -16.03-2.71l.52-1.51 17.62-24.65.06-1.29a43.916 43.916 0 0 1 24.99 9.27z" fill="#dedede"/><path d="m477.06 264.09.62 1.17a43.981 43.981 0 0 1 -20.7 5.14h-5.75v-30.22h5.75a13.516 13.516 0 0 0 7.08-1.99z" fill="#dedede"/><path d="m459.15 183.13-.06 1.29-17.62 24.65-.52 1.51a48.527 48.527 0 0 1 -22.07-15.76l.88-.68 24.02-16.87a17.889 17.889 0 0 0 13.2 5.8c.73 0 1.45.02 2.17.06z" fill="#ccd3df"/><path d="m432.19 240.18h19.04v30.22h-19.04z" fill="#ccd3df"/><path d="m443.78 177.27-24.02 16.87-.88.68a47.4 47.4 0 0 1 -10.22-29.09l1.02-.02 29.43-2.95v2.59a17.538 17.538 0 0 0 4.67 11.92z" fill="#dedede"/><path d="m439.11 144.36v18.4l-29.43 2.95-1.02.02c-.01-.13-.01-.25-.01-.38v-20.99z" fill="#ccd3df"/><path d="m439.11 125.47v18.89h-29.51-.95v-18.89h.95z" fill="#dedede"/><path d="m439.11 106.58v18.89h-29.51-.95v-18.89h.95z" fill="#ccd3df"/><path d="m439.11 106.58h-30.46a27 27 0 0 0 -4.73-15.3l1.16-.29 30.37-2.43.67-.22a56.8 56.8 0 0 1 2.99 18.24z" fill="#dedede"/><path d="m436.12 88.34-.67.22-30.37 2.43-1.16.29a27.327 27.327 0 0 0 -6.92-7.02l.12-.17 24.96-17.34.44-.43a57.313 57.313 0 0 1 13.6 22.02z" fill="#ccd3df"/><path d="m413.15 240.18h19.04v30.22h-19.04z" fill="#dedede"/><path d="m430.79 424.19v61.81h-90.55-5.83v-61.76h.65l95.03-.05z" fill="#50a6ea"/><path d="m404.78 54.02a57.955 57.955 0 0 1 17.74 12.3l-.44.43-24.96 17.34-.12.17a26.29 26.29 0 0 0 -5.98-3.21l.26-.66z" fill="#dedede"/><path d="m394.11 240.18h19.04v30.22h-19.04z" fill="#ccd3df"/><path d="m404.78 54.02-13.5 26.37-.26.66a27.568 27.568 0 0 0 -9.98-1.86h-4.77v-30.21h4.77a58.058 58.058 0 0 1 23.74 5.04z" fill="#ccd3df"/><path d="m375.36 241.46v-1.28h18.75v30.22h-18.7z" fill="#dedede"/><path d="m376.27 78.87v.32h-22.04v-.32-29.89h22.04z" fill="#dedede"/><path d="m354.23 78.87v.32h-20.99v-.32-29.89h20.99z" fill="#ccd3df"/><path d="m333.24 78.87v.32h-17.56l-.34.09a72.194 72.194 0 0 0 -16.88-30.21l.09-.09h34.69z" fill="#dedede"/><path d="m317.91 142.73v.01a95.857 95.857 0 0 1 -47.97 82.91 59.612 59.612 0 0 0 9.26-21.37l5.1-23.59h3.22a12.035 12.035 0 0 0 12.08-11.98 11.859 11.859 0 0 0 -3.54-8.47 12.166 12.166 0 0 0 -5.1-3.02 109.8 109.8 0 0 0 6.4-56.99 52.769 52.769 0 0 0 -4.52-13.2 38.185 38.185 0 0 1 25.07 35.77z" fill="#475673"/><path d="m317.91 98.47v24.33a38.185 38.185 0 0 0 -25.07-35.77v-.01a38.813 38.813 0 0 0 -13.48-2.4h-116.94a38.689 38.689 0 0 0 -20.59 5.89 38.09 38.09 0 0 0 -17.96 32.29v-24.33a72.475 72.475 0 0 1 72.47-72.47h49.1a72.4 72.4 0 0 1 72.47 72.47z" fill="#e5f5fd"/><path d="m168.36 223.41-.06.09a97.232 97.232 0 0 1 -16.01-12.82 95.318 95.318 0 0 1 -28.42-67.94v-19.94a38.09 38.09 0 0 1 17.96-32.29l.01.01a90.439 90.439 0 0 0 -3.44 24.84 89.328 89.328 0 0 0 8.56 38.41l1.59 3.54a11.973 11.973 0 0 0 3.71 23.38h3.22l5.1 23.59a59.793 59.793 0 0 0 7.78 19.13z" fill="#475673"/><path d="m280.74 339.06h-118.76a21.32 21.32 0 0 0 -21.42 21.22l.01 125.72h161.59v-125.72a21.32 21.32 0 0 0 -21.42-21.22z" fill="#50a6ea"/><g fill="#ed6337"><path d="m272.77 423.08.05 62.92h-102.87v-62.92z"/><path d="m169.95 370.05h102.82v29.69h-102.82z"/><path d="m430.34 333.22-.42.05h-26.66a13.858 13.858 0 0 0 -13.92 13.79v33.85a13.862 13.862 0 0 0 13.91 13.79l27.27.03h.27z"/><path d="m36.28 333.27h-24.41l-.42-.05-.45 61.51h.26l25.04-.03a13.854 13.854 0 0 0 13.9-13.79v-33.85a13.851 13.851 0 0 0 -13.92-13.79z"/></g><path d="m300.7 225.59-.04-.03h-159.54l-.04.03a29.055 29.055 0 0 0 -21.01 27.83v10.94a28.433 28.433 0 0 0 1.35 8.7 29.316 29.316 0 0 0 27.99 20.22h143.04a29.2 29.2 0 0 0 27.92-20.23 28.369 28.369 0 0 0 1.35-8.69v-10.94a29.046 29.046 0 0 0 -21.02-27.83z" fill="#50a6ea"/><path d="m90.45 191.87v49.59h-33.57-1.69l-.01-49.59h1.7z" fill="#475673"/><path d="m375.36 240.18v1.28h-33.48v-49.59h33.4z" fill="#475673"/><path d="m297.36 100.23a109.8 109.8 0 0 1 -6.4 56.99 12.223 12.223 0 0 0 -3.44-.49h-3.22v-21.44a49.959 49.959 0 0 0 -4.72-21.27c-7.2-15.38-25.38-22.39-41.35-16.32a33.057 33.057 0 0 1 -33.21-5.75 2.348 2.348 0 0 0 -3.49.48c-4.4 6.62-18.15 25.88-30.84 29.03l1.54-22.11h-.01a40.615 40.615 0 0 0 -16.74 32.81v24.57h-3.22a11.955 11.955 0 0 0 -3.71.58l-1.59-3.54a89.328 89.328 0 0 1 -8.56-38.41 90.439 90.439 0 0 1 3.44-24.84l-.01-.01a38.689 38.689 0 0 1 20.59-5.89h116.94a38.813 38.813 0 0 1 13.48 2.4v.01a52.769 52.769 0 0 1 4.52 13.2z" fill="#6d7486"/><path d="m296.06 160.24a11.859 11.859 0 0 1 3.54 8.47 12.035 12.035 0 0 1 -12.08 11.98h-3.22l-5.1 23.59a59.612 59.612 0 0 1 -9.26 21.37v.01a97.9 97.9 0 0 1 -101.64-2.16l.06-.09a59.793 59.793 0 0 1 -7.78-19.13l-5.1-23.59h-3.22a12.08 12.08 0 0 1 -8.54-3.51 12 12 0 0 1 8.54-20.45h3.22v-24.57a40.615 40.615 0 0 1 16.74-32.81h.01l-1.54 22.11c12.69-3.15 26.44-22.41 30.84-29.03a2.348 2.348 0 0 1 3.49-.48 33.057 33.057 0 0 0 33.21 5.75c15.97-6.07 34.15.94 41.35 16.32a49.959 49.959 0 0 1 4.72 21.27v21.44h3.22a12.051 12.051 0 0 1 8.54 3.51z" fill="#ffd8b7"/><path d="m334 371.069a6 6 0 0 0 -6 6v108.931h12v-108.931a6 6 0 0 0 -6-6z" fill="#a6b7d0"/><path d="m186.485 176.92a15.751 15.751 0 0 1 -15.774-15.693 6 6 0 1 1 12 0 3.774 3.774 0 0 0 7.547 0 6 6 0 0 1 12 0 15.751 15.751 0 0 1 -15.773 15.693z" fill="#efc597"/><path d="m251.508 176.92a15.751 15.751 0 0 1 -15.773-15.693 6 6 0 1 1 12 0 3.774 3.774 0 0 0 7.546 0 6 6 0 0 1 12 0 15.751 15.751 0 0 1 -15.773 15.693z" fill="#efc597"/><path d="m317.91 142.74v27.74a96.559 96.559 0 0 1 -96.55 96.56h-.93a96.559 96.559 0 0 1 -96.56-96.56v-27.74a95.318 95.318 0 0 0 28.42 67.94 97.766 97.766 0 0 0 117.65 14.98v-.01a95.857 95.857 0 0 0 47.97-82.91z" fill="#e5f5fd"/><path d="m108 371.069a6 6 0 0 0 -6 6v108.931h12v-108.931a6 6 0 0 0 -6-6z" fill="#a6b7d0"/></svg>