<svg id="Layer_1" height="512" viewBox="0 0 512 512" width="512" xmlns="http://www.w3.org/2000/svg" data-name="Layer 1"><path d="m256.725 228.519a50.2 50.2 0 0 1 -31.546-31.644 6 6 0 0 0 -11.387 0 50.194 50.194 0 0 1 -31.545 31.643 6 6 0 0 0 0 11.38 50.19 50.19 0 0 1 31.544 31.643 6 6 0 0 0 11.388 0 50.2 50.2 0 0 1 31.546-31.641 6 6 0 0 0 0-11.38z" fill="#fadf4a"/><path d="m368.814 95.418a33.631 33.631 0 0 1 -21.135-21.2 6 6 0 0 0 -11.387 0 33.633 33.633 0 0 1 -21.135 21.2 6 6 0 0 0 0 11.381 33.629 33.629 0 0 1 21.135 21.201 6 6 0 0 0 11.387 0 33.629 33.629 0 0 1 21.135-21.2 6 6 0 0 0 0-11.381z" fill="#ed6337"/><path d="m333.287 465.273a22.077 22.077 0 0 1 -13.876-13.922 6 6 0 0 0 -11.388 0 22.083 22.083 0 0 1 -13.877 13.922 6 6 0 0 0 0 11.381 22.087 22.087 0 0 1 13.877 13.923 6 6 0 0 0 11.388 0 22.083 22.083 0 0 1 13.876-13.923 6 6 0 0 0 0-11.381z" fill="#604af3"/><path d="m150.905 387.533a33.627 33.627 0 0 1 -21.134-21.2 6 6 0 0 0 -11.387 0 33.632 33.632 0 0 1 -21.136 21.2 6 6 0 0 0 0 11.381 33.632 33.632 0 0 1 21.136 21.2 6 6 0 0 0 11.387 0 33.629 33.629 0 0 1 21.134-21.2 6 6 0 0 0 0-11.381z" fill="#3090fc"/><path d="m72.975 197.894a22.083 22.083 0 0 1 -13.875-13.922 6 6 0 0 0 -11.387 0 22.089 22.089 0 0 1 -13.878 13.923 6 6 0 0 0 0 11.38 22.089 22.089 0 0 1 13.876 13.925 6 6 0 0 0 11.388 0 22.081 22.081 0 0 1 13.876-13.923 6 6 0 0 0 0-11.38z" fill="#3090fc"/><path d="m416.917 282.7a22.087 22.087 0 0 1 -13.878-13.922 6 6 0 0 0 -11.387 0 22.081 22.081 0 0 1 -13.877 13.922 6 6 0 0 0 0 11.381 22.083 22.083 0 0 1 13.877 13.919 6 6 0 0 0 11.387 0 22.086 22.086 0 0 1 13.878-13.923 6 6 0 0 0 0-11.381z" fill="#3090fc"/><path d="m203.72 45.947a22.083 22.083 0 0 1 -13.876-13.923 6 6 0 0 0 -11.388 0 22.089 22.089 0 0 1 -13.878 13.923 6 6 0 0 0 0 11.381 22.085 22.085 0 0 1 13.878 13.922 6 6 0 0 0 11.387 0 22.081 22.081 0 0 1 13.877-13.922 6 6 0 0 0 0-11.381z" fill="#3090fc"/><path d="m358.476 363.887a8.356 8.356 0 1 1 8.356-8.356 8.365 8.365 0 0 1 -8.356 8.356z" fill="#50dd5a"/><path d="m135.793 318.863a10.712 10.712 0 1 1 10.712-10.712 10.723 10.723 0 0 1 -10.712 10.712z" fill="#d8ff33"/><path d="m432.033 213.7a10.712 10.712 0 1 1 10.712-10.712 10.723 10.723 0 0 1 -10.712 10.712z" fill="#d8ff33"/><path d="m100.52 109.464a10.712 10.712 0 1 1 10.71-10.712 10.724 10.724 0 0 1 -10.71 10.712z" fill="#50dd5a"/><path d="m311.36 32.9a10.711 10.711 0 1 1 10.712-10.71 10.723 10.723 0 0 1 -10.712 10.71z" fill="#50dd5a"/><path d="m178.26 184.849a7.178 7.178 0 1 1 7.178-7.178 7.186 7.186 0 0 1 -7.178 7.178z" fill="#d8ff33"/><path d="m12.178 380.377a7.178 7.178 0 1 1 7.177-7.177 7.185 7.185 0 0 1 -7.177 7.177z" fill="#50dd5a"/><path d="m404.413 506.411a7.178 7.178 0 1 1 7.179-7.178 7.186 7.186 0 0 1 -7.179 7.178z" fill="#d8ff33"/><path d="m29.408 487.276a7.178 7.178 0 1 1 7.179-7.177 7.185 7.185 0 0 1 -7.179 7.177z" fill="#d8ff33"/><path d="m19.245 19.945a7.178 7.178 0 1 1 7.178-7.178 7.186 7.186 0 0 1 -7.178 7.178z" fill="#d8ff33"/><path d="m469.774 120.666a7.178 7.178 0 1 1 7.178-7.178 7.186 7.186 0 0 1 -7.178 7.178z" fill="#50dd5a"/><path d="m499.822 373.31a7.178 7.178 0 1 1 7.178-7.178 7.185 7.185 0 0 1 -7.178 7.178z" fill="#d8ff33"/><g fill="#ccd3df"><path d="m221 352.551a6 6 0 0 1 -6-6v-7.662a6 6 0 0 1 12 0v7.662a6 6 0 0 1 -6 6z"/><path d="m221 328.341a6 6 0 0 1 -6-6v-23.034a6 6 0 0 1 12 0v23.034a6 6 0 0 1 -6 6z"/><path d="m241.479 337.381a6 6 0 0 1 -6-6v-7.663a6 6 0 0 1 12 0v7.663a6 6 0 0 1 -6 6z"/><path d="m241.479 313.171a6 6 0 0 1 -6-6v-30.62a6 6 0 0 1 12 0v30.62a6 6 0 0 1 -6 6z"/><path d="m200.521 337.381a6 6 0 0 1 -6-6v-7.663a6 6 0 0 1 12 0v7.663a6 6 0 0 1 -6 6z"/><path d="m200.521 313.171a6 6 0 0 1 -6-6v-30.62a6 6 0 0 1 12 0v30.62a6 6 0 0 1 -6 6z"/><path d="m342 218.551a6 6 0 0 1 -6-6v-7.662a6 6 0 0 1 12 0v7.662a6 6 0 0 1 -6 6z"/><path d="m342 194.341a6 6 0 0 1 -6-6v-23.034a6 6 0 0 1 12 0v23.034a6 6 0 0 1 -6 6z"/><path d="m362.479 203.381a6 6 0 0 1 -6-6v-7.663a6 6 0 0 1 12 0v7.663a6 6 0 0 1 -6 6z"/><path d="m362.479 179.171a6 6 0 0 1 -6-6v-30.62a6 6 0 0 1 12 0v30.62a6 6 0 0 1 -6 6z"/><path d="m321.521 203.381a6 6 0 0 1 -6-6v-7.663a6 6 0 0 1 12 0v7.663a6 6 0 0 1 -6 6z"/><path d="m321.521 179.171a6 6 0 0 1 -6-6v-30.62a6 6 0 0 1 12 0v30.62a6 6 0 0 1 -6 6z"/><path d="m124 501.551a6 6 0 0 1 -6-6v-17.662a6 6 0 0 1 12 0v17.662a6 6 0 0 1 -6 6z"/><path d="m124 467.341a6 6 0 0 1 -6-6v-13.034a6 6 0 0 1 12 0v13.034a6 6 0 0 1 -6 6z"/><path d="m144.479 476.381a6 6 0 0 1 -6-6v-7.663a6 6 0 0 1 12 0v7.663a6 6 0 0 1 -6 6z"/><path d="m144.479 452.171a6 6 0 0 1 -6-6v-20.62a6 6 0 0 1 12 0v20.62a6 6 0 0 1 -6 6z"/><path d="m103.521 476.381a6 6 0 0 1 -6-6v-7.663a6 6 0 0 1 12 0v7.663a6 6 0 0 1 -6 6z"/><path d="m103.521 452.171a6 6 0 0 1 -6-6v-20.62a6 6 0 0 1 12 0v20.62a6 6 0 0 1 -6 6z"/></g><path d="m449.774 42.488a9 9 0 1 1 9-9 9.011 9.011 0 0 1 -9 9z" fill="#d8ff33"/></svg>