<svg id="Layer_1" height="512" viewBox="0 0 512 512" width="512" xmlns="http://www.w3.org/2000/svg" data-name="Layer 1"><path d="m465.11 287.22-19.33 2.11c-37.73 4.11-54.86 49.62-29.33 77.9l13.08 14.48-18.08-7.18c-35.3-14.03-71.47 18.25-61.91 55.24l4.9 18.96-12.69-14.83c-24.79-28.94-71.71-17.3-80.31 19.94l-4.4 19.07-4.4-19.07c-8.6-37.24-55.52-48.88-80.3-19.94l-12.7 14.83 4.9-18.96c9.56-36.99-26.61-69.27-61.91-55.24l-18.08 7.18 13.08-14.48c25.53-28.28 8.4-73.79-29.33-77.9l-19.33-2.11 18.27-6.7c35.65-13.08 41.48-61.4 9.97-82.7l-16.15-10.91 19.27 2.61c37.61 5.11 65.06-34.95 46.98-68.56l-9.26-17.22 15.86 11.33c30.94 22.13 73.73-.49 73.23-38.71l-.26-19.59 8.81 17.46c17.19 34.08 65.51 34.08 82.7 0l8.81-17.46-.26 19.59c-.5 38.22 42.29 60.84 73.24 38.71l15.85-11.33-9.26 17.22c-18.08 33.61 9.37 73.67 46.98 68.56l19.27-2.61-16.15 10.91c-31.51 21.3-25.68 69.62 9.97 82.7z" fill="#eee051"/><circle cx="257.04" cy="264.84" fill="#f9b248" r="124.84"/><path d="m162.2 264.84a124.859 124.859 0 0 1 109.84-123.94 126.1 126.1 0 0 0 -15-.9 124.84 124.84 0 0 0 0 249.68 126.1 126.1 0 0 0 15-.9 124.851 124.851 0 0 1 -109.84-123.94z" fill="#ef9538"/><g fill="#fcea6d"><path d="m446.111 59.925a6 6 0 0 1 -4.242-10.243l3.912-3.912a6 6 0 0 1 8.485 8.485l-3.912 3.912a5.979 5.979 0 0 1 -4.243 1.758z"/><path d="m396.446 109.59a6 6 0 0 1 -4.246-10.242l22.951-22.948a6 6 0 0 1 8.485 8.485l-22.948 22.948a5.982 5.982 0 0 1 -4.242 1.757z"/><path d="m33.26 419.629a6 6 0 0 1 -3.21-11.074l2.693-1.7a6 6 0 1 1 6.409 10.145l-2.693 1.7a5.975 5.975 0 0 1 -3.199.929z"/><path d="m52.888 407.232a6 6 0 0 1 -3.21-11.073l15.8-9.981a6 6 0 0 1 6.408 10.146l-15.8 9.98a5.963 5.963 0 0 1 -3.198.928z"/><path d="m257.04 505.8a6 6 0 0 1 -6-6v-2.691a6 6 0 1 1 12 0v2.691a6 6 0 0 1 -6 6z"/><path d="m367.743 478.077a6 6 0 0 1 -5.243-3.077l-2.6-4.647a6 6 0 1 1 10.475-5.853l2.6 4.646a6 6 0 0 1 -5.232 8.928z"/><path d="m313.076 37.788a6 6 0 0 1 -5.834-7.423l4.309-17.665a6 6 0 0 1 11.658 2.844l-4.309 17.664a6 6 0 0 1 -5.824 4.58z"/><path d="m125.952 507a6 6 0 0 1 -5.061-9.216l3.159-4.976a6 6 0 0 1 10.132 6.429l-3.158 4.977a6 6 0 0 1 -5.072 2.786z"/><path d="m139.3 485.965a6 6 0 0 1 -5.06-9.215l5.727-9.024a6 6 0 1 1 10.131 6.43l-5.726 9.023a6 6 0 0 1 -5.072 2.786z"/><path d="m454.7 401.927a5.97 5.97 0 0 1 -3.018-.819l-8.426-4.916a6 6 0 1 1 6.046-10.365l8.427 4.916a6 6 0 0 1 -3.029 11.184z"/><path d="m484.875 293.73h-3.837a6 6 0 0 1 0-12h3.837a6 6 0 0 1 0 12z"/><path d="m88.614 78.007a5.988 5.988 0 0 1 -4.42-1.94l-6.349-6.91a6 6 0 0 1 8.836-8.119l6.35 6.91a6 6 0 0 1 -4.417 10.059z"/><path d="m117.636 109.59a5.98 5.98 0 0 1 -4.419-1.94l-15.075-16.4a6 6 0 0 1 8.836-8.12l15.075 16.406a6 6 0 0 1 -4.417 10.059z"/><path d="m30.469 180.107a6 6 0 0 1 -2.275-.45l-9.588-3.934a6 6 0 1 1 4.555-11.1l9.588 3.933a6 6 0 0 1 -2.28 11.553z"/><path d="m61.454 192.819a5.979 5.979 0 0 1 -2.275-.451l-12.479-5.121a6 6 0 1 1 4.555-11.1l12.484 5.122a6 6 0 0 1 -2.28 11.552z"/><path d="m452.626 192.819a6 6 0 0 1 -2.256-11.562l38.493-15.605a6 6 0 0 1 4.508 11.121l-38.493 15.6a5.986 5.986 0 0 1 -2.252.446z"/><path d="m207.1 62.776a6 6 0 0 1 -5.846-4.672l-10.404-45.774a6 6 0 1 1 11.7-2.66l10.4 45.775a6.007 6.007 0 0 1 -5.856 7.331z"/><path d="m32.319 295.812a6 6 0 0 1 -.736-11.955l16.645-2.08a6 6 0 0 1 1.489 11.907l-16.646 2.081a6.172 6.172 0 0 1 -.752.047z"/></g><path d="m348.275 253.584a6 6 0 0 1 -5.89-4.893 85.905 85.905 0 0 0 -13.233-32.254 6 6 0 0 1 9.957-6.7 97.841 97.841 0 0 1 15.07 36.737 6.009 6.009 0 0 1 -5.9 7.109z" fill="#ef9538"/><path d="m316.094 199.2a5.975 5.975 0 0 1 -3.816-1.373c-2.129-1.757-4.369-3.433-6.658-4.981a6 6 0 1 1 6.722-9.94c2.6 1.76 5.152 3.667 7.574 5.666a6 6 0 0 1 -3.822 10.628z" fill="#ef9538"/></svg>