<svg id="Layer_1" height="512" viewBox="0 0 512 512" width="512" xmlns="http://www.w3.org/2000/svg" data-name="Layer 1"><path d="m341.22 44.73a159.9 159.9 0 0 0 -155.23 197.82l44.29 75.56c0 .47-.01.93-.03 1.39h.03a159.781 159.781 0 1 0 110.94-274.77zm-119.84 152.24a.445.445 0 1 1 .44-.44.437.437 0 0 1 -.44.44z" fill="#e5f5fd"/><path d="m259.3 316.911-43.45-74.361a160.19 160.19 0 0 1 140.334-197.114c-4.939-.46-9.922-.706-14.982-.706a159.887 159.887 0 0 0 -155.216 197.82l44.292 75.81c0 .47-.008.64-.028 1.64h.03c28.74 27 67.84 44.55 110.94 44.55 5.054 0 9.91-.371 14.845-.83-36.681-3.419-67.624-18.678-93.436-42.652a18.23 18.23 0 0 1 -1.753-1.88 18.174 18.174 0 0 1 -1.576-2.277z" fill="#a6b7d0"/><path d="m182.24 284.67-9.89-28.03-.3.11-86.24 30.43 19.23 54.5 54.2-19.13a34.259 34.259 0 0 1 -.28-4.44 35.66 35.66 0 0 1 23.28-33.44z" fill="#72bcef"/><path d="m89.44 297.46 11.97 33.94-58.28 20.57-.31.11-11.97-33.94.3-.11z" fill="#fadf4a"/><path d="m28.52 311.54-17.52 6.18 16.64 47.14 17.51-6.18z" fill="#50a6ea"/><path d="m463.25 247.54a28.744 28.744 0 0 0 .1 25.77 28.848 28.848 0 0 0 -25.8.03 28.744 28.744 0 0 0 -.1-25.77 28.848 28.848 0 0 0 25.8-.03z" fill="#ccd3df"/><path d="m321.69 318.14a1.775 1.775 0 0 0 3.55 0" fill="#00aeef"/><path d="m364.9 77.58a28.842 28.842 0 0 0 6.82-.82 28.781 28.781 0 0 0 -6.51 18.23 28.448 28.448 0 0 0 .84 6.9 28.9 28.9 0 0 0 -25.16-5.74 28.77 28.77 0 0 0 5.68-25.14 28.884 28.884 0 0 0 18.33 6.57z" fill="#6d7486"/><path d="m476.14 204.51a5.33 5.33 0 1 1 -5.32 5.33 5.328 5.328 0 0 1 5.32-5.33z" fill="#ccd3df"/><path d="m383.83 231.63a52.526 52.526 0 0 1 -8.34 28.46l-27.69-78.46a52.713 52.713 0 0 1 36.03 50z" fill="#6d7486"/><path d="m344.81 173.16-32.63 11.51 33.43 94.73 32.63-11.52z" fill="#72bcef"/><path d="m316.37 196.54-146.93 51.85 12.8 36.28a35.693 35.693 0 0 1 46.38 22.67l112.8-39.81z" fill="#fadf4a"/><path d="m250.94 196.53a.444.444 0 0 0 .44.44.445.445 0 0 0 0-.89.446.446 0 0 0 -.44.45z" fill="#ccd3df"/><path d="m278.328 237.648a6 6 0 0 1 -2-11.66l21.111-7.45a6 6 0 1 1 4 11.316l-21.112 7.451a5.993 5.993 0 0 1 -1.999.343z" fill="#d8a43d"/><path d="m214.068 260.326a6 6 0 0 1 -2-11.659l47.944-16.92a6 6 0 1 1 3.994 11.316l-47.944 16.92a5.993 5.993 0 0 1 -1.994.343z" fill="#d8a43d"/><path d="m272.4 473.269a6 6 0 0 1 -5.273-3.128l-63.456-116.351a6 6 0 1 1 10.535-5.745l63.452 116.355a6 6 0 0 1 -5.262 8.873z" fill="#4a5160"/><path d="m116.842 473.269a6 6 0 0 1 -5.263-8.873l63.521-116.48a6 6 0 0 1 10.535 5.745l-63.525 116.48a6 6 0 0 1 -5.268 3.128z" fill="#4a5160"/><path d="m225.818 183.884a10.439 10.439 0 1 1 10.439-10.438 10.449 10.449 0 0 1 -10.439 10.438z" fill="#867af4"/><path d="m476.145 221.167a11.326 11.326 0 1 1 11.326-11.326 11.339 11.339 0 0 1 -11.326 11.326z" fill="#867af4"/><path d="m387.377 159.933a11.342 11.342 0 1 1 11.323-11.342 11.347 11.347 0 0 1 -11.323 11.342z" fill="#867af4"/><path d="m323.464 325.913a7.776 7.776 0 1 1 7.775-7.775 7.785 7.785 0 0 1 -7.775 7.775z" fill="#867af4"/><path d="m221.381 202.969a6.444 6.444 0 1 1 6.443-6.444 6.45 6.45 0 0 1 -6.443 6.444z" fill="#867af4"/><path d="m413.119 155.478a6.888 6.888 0 1 1 6.888-6.887 6.9 6.9 0 0 1 -6.888 6.887z" fill="#867af4"/><g fill="#a6b7d0"><path d="m282.954 132.84a6 6 0 0 1 -3.473-10.9l29.619-20.975a6 6 0 1 1 6.935 9.792l-29.617 20.978a5.973 5.973 0 0 1 -3.464 1.105z"/><path d="m323.409 104.185a6 6 0 0 1 -3.484-10.885l.237-.169a6 6 0 1 1 6.959 9.775l-.237.169a5.968 5.968 0 0 1 -3.475 1.11z"/><path d="m292 145.633a6 6 0 0 1 -3.493-10.876l.03-.021a6 6 0 1 1 3.463 10.9z"/><path d="m302.82 137.974a6 6 0 0 1 -3.472-10.9l29.885-21.169a6 6 0 1 1 6.936 9.792l-29.886 21.173a5.969 5.969 0 0 1 -3.463 1.104z"/><path d="m377.936 311.264a6 6 0 0 1 -3.473-10.9l15.628-11.07a6 6 0 1 1 6.935 9.792l-15.626 11.074a5.966 5.966 0 0 1 -3.464 1.104z"/><path d="m404.732 292.283a6 6 0 0 1 -3.472-10.9l2.821-2a6 6 0 0 1 6.936 9.793l-2.822 2a5.967 5.967 0 0 1 -3.463 1.107z"/><path d="m397.8 316.4a6 6 0 0 1 -3.473-10.9l4.44-3.145a6 6 0 1 1 6.935 9.792l-4.439 3.145a5.972 5.972 0 0 1 -3.463 1.108z"/><path d="m416.622 303.068a6 6 0 0 1 -3.474-10.9l11.067-7.838a6 6 0 1 1 6.935 9.792l-11.064 7.838a5.976 5.976 0 0 1 -3.464 1.108z"/></g><path d="m228.62 307.34a35.428 35.428 0 0 1 1.66 10.77c0 .47-.01.93-.03 1.39a35.657 35.657 0 0 1 -71.01 3.05 34.259 34.259 0 0 1 -.28-4.44 35.665 35.665 0 0 1 69.66-10.77z" fill="#ed6337"/><path d="m194.62 303.08a15.035 15.035 0 1 1 -15.04 15.03 15.031 15.031 0 0 1 15.04-15.03z" fill="#604af3"/></svg>