<svg id="Layer_1" height="512" viewBox="0 0 512 512" width="512" xmlns="http://www.w3.org/2000/svg" data-name="Layer 1"><path d="m498.49 416.05a8.2 8.2 0 0 1 -13.56 9.01l-113.89-132.28-.03-.2a477.649 477.649 0 0 0 59.84-12.53l.16.54z" fill="#a6b7d0"/><path d="m392.38 175.03a144.1 144.1 0 0 1 3.59 32.14 450.609 450.609 0 0 1 -124.06 21.99q-7.95.3-15.91.29t-15.91-.29a450.609 450.609 0 0 1 -124.06-21.99 144.194 144.194 0 0 1 3.59-32.15c-65.51 12.32-108.62 33.25-108.62 56.99 0 18.7 26.74 35.66 70.11 48.03a475.687 475.687 0 0 0 59.83 12.53 746.32 746.32 0 0 0 77.7 7.23h.01l74.63-.06.3.05a747.066 747.066 0 0 0 77.43-7.21 477.649 477.649 0 0 0 59.84-12.53c43.39-12.37 70.15-29.33 70.15-48.04 0-23.74-43.11-44.67-108.62-56.98z" fill="#50a6ea"/><path d="m392.38 175.03c-14.35-62.73-69.96-107.83-136.38-107.83s-122.03 45.1-136.38 107.82a144.194 144.194 0 0 0 -3.59 32.15 450.609 450.609 0 0 0 124.06 21.99l.07-1.95h31.68l.07 1.95a450.609 450.609 0 0 0 124.06-21.99 144.1 144.1 0 0 0 -3.59-32.14z" fill="#e5f5fd"/><path d="m384.78 58.84a32.383 32.383 0 0 0 12.41 8.11 32.312 32.312 0 0 0 -20.98 19.83 32.194 32.194 0 0 0 -19.85-20.9 32.363 32.363 0 0 0 20.97-19.83 32.088 32.088 0 0 0 7.45 12.79z" fill="#3090fc"/><path d="m376.57 435.08a32.3 32.3 0 0 0 -17.33 23.08 32.127 32.127 0 0 0 -23.1-17.24 32.334 32.334 0 0 0 17.33-23.09 32.173 32.173 0 0 0 23.1 17.25z" fill="#3090fc"/><path d="m271.84 227.21v-28.37l-.1-.09h-31.48l-.1.09v28.37l-.07 1.95q7.95.3 15.91.29t15.91-.29z" fill="#efc597"/><path d="m140.94 292.57-.04.28-113.83 132.21a8.2 8.2 0 0 1 -13.56-9.01l67.38-135.25.22-.76a475.687 475.687 0 0 0 59.83 12.53z" fill="#a6b7d0"/><path d="m76.5 94.57a32.2 32.2 0 0 0 12.4 8.11 32.312 32.312 0 0 0 -20.98 19.83 32.178 32.178 0 0 0 -19.86-20.9 32.35 32.35 0 0 0 20.98-19.83 32.108 32.108 0 0 0 7.46 12.79z" fill="#3090fc"/><path d="m256 272.06a56.79 56.79 0 0 0 -39.12 15.57l27.15 186.35a11.481 11.481 0 0 0 22.71.07l28.38-186.42a56.79 56.79 0 0 0 -39.12-15.57z" fill="#a6b7d0"/><path d="m275.86 94.76c32.67 12.13 41.75 56.03 17.24 81.66l-21.36 22.33-10.25 10.72a7.593 7.593 0 0 1 -10.98 0l-10.25-10.72-21.36-22.33c-24.51-25.63-15.43-69.53 17.24-81.66a57.026 57.026 0 0 1 39.72 0z" fill="#ffd8b7"/><path d="m290.5 134.64s1.79 14.6-5.18 22.39-20.01 5.8-20.01 5.8-1.78-14.59 5.19-22.39 20-5.8 20-5.8z" fill="#6d7486"/><path d="m240.48 140.44c6.97 7.8 5.18 22.39 5.18 22.39s-13.04 2-20-5.8-5.18-22.39-5.18-22.39 13.04-2 20 5.8z" fill="#6d7486"/><path d="m170.94 292.57a475.687 475.687 0 0 1 -59.83-12.53c-43.37-12.37-70.11-29.33-70.11-48.03 0-19.7 29.683-37.461 77.213-49.977.415-2.359.879-4.7 1.407-7.013-65.51 12.32-108.62 33.25-108.62 56.99 0 18.7 26.74 35.66 70.11 48.03a475.687 475.687 0 0 0 59.83 12.53 746.32 746.32 0 0 0 77.7 7.23h.01l29.506-.024a745.789 745.789 0 0 1 -77.216-7.206z" fill="#72bcef"/><path d="m146.03 207.17a144.194 144.194 0 0 1 3.59-32.15 138.659 138.659 0 0 1 121.38-107.041 144.832 144.832 0 0 0 -15-.779c-66.42 0-122.03 45.1-136.38 107.82a144.194 144.194 0 0 0 -3.59 32.15 450.609 450.609 0 0 0 124.06 21.99l.07-1.95h1.153a450.86 450.86 0 0 1 -95.283-20.04z" fill="#a6b7d0"/><path d="m154.932 165.52a6 6 0 0 1 -5.443-8.52 115.41 115.41 0 0 1 18.418-28.173 6 6 0 0 1 8.979 7.962 103.438 103.438 0 0 0 -16.5 25.245 6 6 0 0 1 -5.454 3.486z" fill="#8ca1ba"/><path d="m184.725 126.935a6 6 0 0 1 -3.816-10.634c1.425-1.172 2.9-2.327 4.386-3.432a6 6 0 1 1 7.164 9.626c-1.33.99-2.651 2.024-3.927 3.073a5.973 5.973 0 0 1 -3.807 1.367z" fill="#8ca1ba"/><path d="m259.007 195.347h-6.014a6 6 0 0 1 0-12h6.014a6 6 0 0 1 0 12z" fill="#efc597"/><path d="m96.75 248.556a6 6 0 0 1 -6-6 4.209 4.209 0 0 0 -8.417 0 6 6 0 0 1 -12 0 16.209 16.209 0 0 1 32.417 0 6 6 0 0 1 -6 6z" fill="#72bcef"/><path d="m135.542 248.556a6 6 0 0 1 -6-6 4.209 4.209 0 0 0 -8.417 0 6 6 0 1 1 -12 0 16.209 16.209 0 0 1 32.417 0 6 6 0 0 1 -6 6z" fill="#72bcef"/><path d="m45.708 49.494a11.1 11.1 0 1 1 11.1-11.1 11.118 11.118 0 0 1 -11.1 11.1z" fill="#d8ff33"/><path d="m36.521 72.973a7.021 7.021 0 1 1 7.021-7.021 7.028 7.028 0 0 1 -7.021 7.021z" fill="#d8ff33"/><path d="m128.23 423.332a11.1 11.1 0 1 1 9.335-5.061 11.107 11.107 0 0 1 -9.335 5.061z" fill="#49bdff"/><path d="m146.759 386.366a7.019 7.019 0 1 1 5.9-3.2 7.022 7.022 0 0 1 -5.9 3.2z" fill="#867af4"/><path d="m377.638 409.9a9.088 9.088 0 1 1 1.907-.2 9.17 9.17 0 0 1 -1.907.2z" fill="#d8ff33"/><path d="m387.676 387.388a7.02 7.02 0 1 1 5.9-3.2 6.98 6.98 0 0 1 -5.9 3.2z" fill="#d8ff33"/><g fill="#ccd3df"><path d="m480.116 179.476a5.989 5.989 0 0 1 -2.311-.466c-5.708-2.386-12.052-4.7-18.856-6.873-5.227-1.671-10.828-3.291-16.647-4.816a6 6 0 0 1 3.043-11.609c6.023 1.58 11.829 3.26 17.258 5 7.131 2.279 13.8 4.712 19.831 7.231a6 6 0 0 1 -2.318 11.538z"/><path d="m422.7 162.57a6.045 6.045 0 0 1 -1.232-.128q-2.262-.472-4.566-.93a6 6 0 0 1 2.342-11.769q2.358.47 4.677.953a6 6 0 0 1 -1.221 11.874z"/></g></svg>