<svg id="Layer_1" height="512" viewBox="0 0 512 512" width="512" xmlns="http://www.w3.org/2000/svg" data-name="Layer 1"><path d="m491.42 189.01a245.841 245.841 0 0 1 9.35 70.43c-61.2-5.31-62.09 28.42-90.21 34.97-24.94 5.81-33.04-12.79-56.69-2.96s-14.26 32.46-37.91 42.29-70.94 29.49-94.59 39.32-33.04-12.79-56.69-2.96-14.26 32.46-37.91 42.29-35.04-11.79-58.69-1.96l-1.28 1.06a244.543 244.543 0 0 1 -43.06-78.23c39.22-12.13 31.98-36.38 71.28-48.49 39.32-12.12 46.59 12.16 85.92.04s32.05-36.4 71.37-48.52 117.98-36.37 157.31-48.49c37.91-11.69 46.03 10.46 81.8 1.21z" fill="#ce467e"/><path d="m500.77 259.44a243.4 243.4 0 0 1 -9.51 64.33c-21.98 9.87-37.69 6.46-68.14 8.57-22.23 1.54-14.32 32.43-37.99 42.21s-33.02-12.86-56.68-3.07-71.01 29.35-94.68 39.13-14.32 32.43-37.99 42.22-33.01-12.86-56.68-3.08a29.335 29.335 0 0 0 -14.85 12.68 243.464 243.464 0 0 1 -57.45-50.94l1.28-1.06c23.65-9.83 35.04 11.79 58.69 1.96s14.26-32.46 37.91-42.29 33.04 12.8 56.69 2.96 70.94-29.49 94.59-39.32 14.26-32.46 37.91-42.29 31.75 8.77 56.69 2.96c28.12-6.55 29.01-40.28 90.21-34.97z" fill="#9be147"/><path d="m491.42 189.01c-35.77 9.25-43.89-12.9-81.8-1.21-39.33 12.12-117.98 36.36-157.31 48.49s-32.05 36.4-71.37 48.52-46.6-12.16-85.92-.04c-39.3 12.11-32.06 36.36-71.28 48.49a245.93 245.93 0 0 1 -12.51-79.75c37.05-11.92 44.74 11.14 82.01-1.05 37.43-12.23 29.82-35.52 67.25-47.75s45.02 11.05 82.45-1.19 112.28-36.71 149.7-48.94c34.69-11.34 30.7-32.18 59.72-44.91a245.124 245.124 0 0 1 39.06 79.34z" fill="#9be147"/><path d="m491.26 323.77a245.583 245.583 0 0 1 -24.8 57.29c-69.01 116.33-219.18 154.64-335.41 85.57-2.3-1.37-4.57-2.76-6.8-4.2a29.335 29.335 0 0 1 14.85-12.68c23.67-9.78 33.01 12.86 56.68 3.08s14.32-32.43 37.99-42.22 71.01-29.35 94.68-39.13 33.01 12.86 56.68 3.07 15.76-40.67 37.99-42.21c30.45-2.11 46.16 1.3 68.14-8.57z" fill="#ce467e"/><path d="m452.36 109.67c-29.02 12.73-25.03 33.57-59.72 44.91-37.42 12.23-112.28 36.71-149.7 48.94s-45.03-11.05-82.45 1.19-29.82 35.52-67.25 47.75c-37.27 12.19-44.96-10.87-82.01 1.05a243.88 243.88 0 0 1 34.31-122.57c.85-1.43 1.7-2.84 2.58-4.24 17.72-2.05 38.01-8.01 55.74-5.74 23.42 3 47.01 25.78 73.51 25.79 54.15.02 101.07-39.79 236.98-77.58h.01a243.269 243.269 0 0 1 38 40.5z" fill="#ce467e"/><path d="m380.95 45.37a246.538 246.538 0 0 1 33.4 23.8c-135.91 37.79-182.83 77.6-236.98 77.58-26.5-.01-50.09-22.79-73.51-25.79-17.73-2.27-38.02 3.69-55.74 5.74q5.745-9.27 12.18-17.85c17.32-3.38 38.04-4.09 53.94-11.61 21.35-10.1 36.52-39.83 61.95-47.26 20.46-5.99 107.33 19.07 167.86-1.51 1.42-.49 2.85-.95 4.3-1.36l23.81-6.72q4.425 2.385 8.79 4.98z" fill="#9be147"/><path d="m372.16 40.39-23.81 6.72c-1.45.41-2.88.87-4.3 1.36-60.53 20.58-147.4-4.48-167.86 1.51-25.43 7.43-40.6 37.16-61.95 47.26-15.9 7.52-36.62 8.23-53.94 11.61 72.02-96.2 204.77-126.36 311.86-68.46z" fill="#ce467e"/><path d="m109.446 414.655q-1.335-1.575-2.646-3.165a244.543 244.543 0 0 1 -43.06-78.23q-3.63-10.942-6.213-22.19c-7.459 8.389-15.661 16.584-33.787 22.19a244.543 244.543 0 0 0 43.06 78.23l1.28-1.06c17.11-7.112 27.805 2.232 41.366 4.225z" fill="#de688c"/><path d="m139.1 449.75a35 35 0 0 1 5.007-1.643 242.608 242.608 0 0 1 -34.661-33.452c-13.561-1.993-24.256-11.337-41.366-4.225l-1.28 1.06a243.464 243.464 0 0 0 57.45 50.94 29.335 29.335 0 0 1 14.85-12.68z" fill="#d8ff33"/><path d="m57.527 311.07a245.649 245.649 0 0 1 -6.3-57.56c0-.215.008-.431.011-.647-10.913-2.672-21.988-5.152-40.011.647a245.93 245.93 0 0 0 12.51 79.75c18.129-5.606 26.331-13.801 33.79-22.19z" fill="#d8ff33"/><path d="m164.25 462.43a246.206 246.206 0 0 1 -20.143-14.323 35 35 0 0 0 -5.007 1.643 29.335 29.335 0 0 0 -14.85 12.68c2.23 1.44 4.5 2.83 6.8 4.2a243.469 243.469 0 0 0 144.805 33.542 243.594 243.594 0 0 1 -104.8-33.542c-2.305-1.37-4.575-2.76-6.805-4.2z" fill="#de688c"/><path d="m51.241 252.863a243.877 243.877 0 0 1 34.299-121.923c.85-1.43 1.7-2.84 2.58-4.24 1.292-2.084 2.62-4.133 3.965-6.166-14.587.56-30.065 4.558-43.965 6.166-.88 1.4-1.73 2.81-2.58 4.24a243.88 243.88 0 0 0 -34.31 122.57c18.023-5.799 29.098-3.319 40.011-.647z" fill="#de688c"/><path d="m100.3 108.85q3.372-4.5 6.918-8.813c-14.681 4.963-32.048 5.911-46.918 8.813q-6.42 8.565-12.18 17.85c13.9-1.608 29.378-5.606 43.965-6.166q3.966-5.992 8.215-11.684z" fill="#d8ff33"/><path d="m276.208 11.834a244.806 244.806 0 0 0 -215.908 97.016c14.87-2.9 32.237-3.848 46.918-8.813a244.611 244.611 0 0 1 168.99-88.203z" fill="#de688c"/><g fill="#7cb729"><path d="m158.8 266.015a49.056 49.056 0 0 1 -18.277-3.551 7.736 7.736 0 0 1 -4.3-10.041 49.151 49.151 0 0 1 23.229-25.5 6 6 0 0 1 5.469 10.682 37.12 37.12 0 0 0 -15.609 15.162 37.171 37.171 0 0 0 42.032-18.024 36.849 36.849 0 0 0 -8.032-1.21 6 6 0 0 1 .47-11.991 48.982 48.982 0 0 1 16.346 3.5 7.734 7.734 0 0 1 4.3 10.041 49.261 49.261 0 0 1 -45.628 30.932z"/><path d="m170.321 119.346a6 6 0 0 1 -2.032-.356 64.81 64.81 0 0 1 -19.311-11.011 8.369 8.369 0 0 1 -1.138-11.762 64.926 64.926 0 0 1 39.485-22.808 6 6 0 1 1 1.969 11.837 52.915 52.915 0 0 0 -29.694 15.771 52.664 52.664 0 0 0 12.748 6.682 6 6 0 0 1 -2.032 11.647z"/><path d="m194.144 122.688a6 6 0 0 1 -.388-11.986 52.414 52.414 0 0 0 34.944-16.376 52.671 52.671 0 0 0 -12.653-6.65 6 6 0 0 1 4.087-11.282 64.81 64.81 0 0 1 19.19 10.967 8.369 8.369 0 0 1 1.137 11.761 65.226 65.226 0 0 1 -45.915 23.553c-.137.01-.27.013-.402.013z"/><path d="m167.977 433.431a49.063 49.063 0 0 1 -18.278-3.55 7.735 7.735 0 0 1 -4.3-10.04 49.149 49.149 0 0 1 23.229-25.5 6 6 0 1 1 5.469 10.681 37.134 37.134 0 0 0 -15.61 15.162 37.169 37.169 0 0 0 42.033-18.023 36.84 36.84 0 0 0 -8.031-1.21 6 6 0 0 1 .468-11.991 49.011 49.011 0 0 1 16.347 3.5 7.737 7.737 0 0 1 4.3 10.041 49.256 49.256 0 0 1 -45.627 30.938z"/><path d="m353.6 352.576c-.191 0-.384-.01-.579-.028a49.149 49.149 0 0 1 -13.6-3.313 7.736 7.736 0 0 1 -4.3-10.041 49.151 49.151 0 0 1 23.229-25.5 6 6 0 1 1 5.469 10.681 37.135 37.135 0 0 0 -15.619 15.157 36.961 36.961 0 0 0 5.958 1.071 6 6 0 0 1 -.565 11.973z"/><path d="m374 349.554a6 6 0 0 1 -2.27-11.554 36.829 36.829 0 0 0 18.507-16.488 36.8 36.8 0 0 0 -8.037-1.212 6 6 0 1 1 .469-11.991 48.988 48.988 0 0 1 16.347 3.5 7.735 7.735 0 0 1 4.3 10.04 48.776 48.776 0 0 1 -27.047 27.259 5.983 5.983 0 0 1 -2.269.446z"/></g></svg>